<svg viewBox="0 0 1300 400" xmlns="http://www.w3.org/2000/svg" width="100%" style="max-width:1100px">
    <defs>
      <linearGradient id="enemyCard" x1="0" y1="0" x2="0" y2="1"><stop offset="0%" stop-color="#fff4c2"/><stop offset="100%" stop-color="#d8be83"/></linearGradient>
      <radialGradient id="slimeGlow" cx="0.5" cy="0.5" r="0.5"><stop offset="0%" stop-color="#5fd35f"/><stop offset="100%" stop-color="#3a8a3a" stop-opacity="0"/></radialGradient>
      <radialGradient id="bossAuraCard" cx="0.5" cy="0.5" r="0.5"><stop offset="0%" stop-color="#ff3344" stop-opacity="0.7"/><stop offset="100%" stop-color="#ff3344" stop-opacity="0"/></radialGradient>
    </defs>

    <!-- Slime -->
    <g transform="translate(80 60)">
      <rect x="-50" y="-20" width="160" height="280" rx="10" fill="url(#enemyCard)" stroke="#a07c3a" stroke-width="2"><animate attributeName="stroke-opacity" values="0.55;1;0.55" dur="3.6s" begin="0s" repeatCount="indefinite"/></rect>
      <circle r="55" cx="30" cy="60" fill="url(#slimeGlow)" opacity="0.6">
        <animate attributeName="r" values="50;60;50" dur="2s" repeatCount="indefinite"/>
      </circle>
      <ellipse cx="30" cy="60" rx="38" ry="40" fill="#5fd35f" opacity="0.85"/>
      <ellipse cx="30" cy="50" rx="30" ry="10" fill="#fff" opacity="0.6"/>
      <ellipse cx="20" cy="58" rx="6" ry="9" fill="#1a1a1a"/>
      <ellipse cx="40" cy="58" rx="6" ry="9" fill="#1a1a1a"/>
      <ellipse cx="30" cy="80" rx="4" ry="2" fill="#1a1a1a"/>
      <rect x="-50" y="140" width="160" height="26" fill="#3a2412" stroke="#f6d97c" stroke-width="1.5" rx="3"><animate attributeName="fill-opacity" values="0;1" dur="1.6s" begin="0.2s" fill="freeze"/></rect>
      <text x="30" y="159" text-anchor="middle" font-family="Georgia, serif" font-size="14" font-weight="bold" fill="#f6d97c" letter-spacing="2">SLIME VERT</text>
      <text x="30" y="180" text-anchor="middle" font-family="Georgia, serif" font-size="11" fill="#5a3a1f">PV 25 • ATQ 4</text>
      <text x="30" y="200" text-anchor="middle" font-family="Georgia, serif" font-size="10" font-style="italic" fill="#a07c3a">★☆☆☆☆</text>
      <text x="30" y="230" text-anchor="middle" font-family="Georgia, serif" font-size="10" fill="#a07c3a">XP 8 • Or 2-5</text>
    </g>

    <!-- Goblin -->
    <g transform="translate(280 60)">
      <rect x="-50" y="-20" width="160" height="280" rx="10" fill="url(#enemyCard)" stroke="#a07c3a" stroke-width="2"><animate attributeName="stroke-opacity" values="0.55;1;0.55" dur="3.6s" begin="0.3s" repeatCount="indefinite"/></rect>
      <ellipse cx="30" cy="120" rx="35" ry="80" fill="#8b5a2b"/>
      <ellipse cx="30" cy="55" rx="22" ry="24" fill="#a87f4a"/>
      <polygon points="10,38 18,30 20,45" fill="#a87f4a"/>
      <polygon points="50,38 42,30 40,45" fill="#a87f4a"/>
      <circle cx="22" cy="55" r="3.5" fill="#fff" />
      <circle cx="22" cy="56" r="2" fill="#c00"/>
      <circle cx="38" cy="55" r="3.5" fill="#fff" />
      <circle cx="38" cy="56" r="2" fill="#c00"/>
      <line x1="28" y1="66" x2="36" y2="64" stroke="#3a2412" stroke-width="2"/>
      <rect x="60" y="100" width="6" height="50" fill="#7a6a4a"/>
      <rect x="-50" y="185" width="160" height="26" fill="#3a2412" stroke="#f6d97c" stroke-width="1.5" rx="3"><animate attributeName="fill-opacity" values="0;1" dur="1.6s" begin="0.4s" fill="freeze"/></rect>
      <text x="30" y="204" text-anchor="middle" font-family="Georgia, serif" font-size="14" font-weight="bold" fill="#f6d97c" letter-spacing="2">PILLARD GOBELIN</text>
      <text x="30" y="222" text-anchor="middle" font-family="Georgia, serif" font-size="11" fill="#5a3a1f">PV 45 • ATQ 8</text>
      <text x="30" y="248" text-anchor="middle" font-family="Georgia, serif" font-size="10" font-style="italic" fill="#a07c3a">★★☆☆☆</text>
    </g>

    <!-- Wolf -->
    <g transform="translate(480 60)">
      <rect x="-50" y="-20" width="160" height="280" rx="10" fill="url(#enemyCard)" stroke="#a07c3a" stroke-width="2"><animate attributeName="stroke-opacity" values="0.55;1;0.55" dur="3.6s" begin="0.6s" repeatCount="indefinite"/></rect>
      <ellipse cx="30" cy="100" rx="35" ry="25" fill="#6b6b6b"/>
      <ellipse cx="55" cy="95" rx="22" ry="20" fill="#6b6b6b"/>
      <polygon points="40,80 45,72 50,82" fill="#5a5a5a"/>
      <polygon points="60,78 68,68 72,80" fill="#5a5a5a"/>
      <circle cx="63" cy="92" r="2.5" fill="#fbbf24">
        <animate attributeName="opacity" values="0.6;1;0.6" dur="1.6s" repeatCount="indefinite"/>
      </circle>
      <path d="M70,100 L78,98 L70,104 Z" fill="#1a1a1a"/>
      <line x1="40" y1="125" x2="35" y2="155" stroke="#5a5a5a" stroke-width="4"/>
      <line x1="50" y1="125" x2="55" y2="155" stroke="#5a5a5a" stroke-width="4"/>
      <line x1="20" y1="125" x2="15" y2="155" stroke="#5a5a5a" stroke-width="4"/>
      <line x1="10" y1="125" x2="5" y2="155" stroke="#5a5a5a" stroke-width="4"/>
      <rect x="-50" y="180" width="160" height="26" fill="#3a2412" stroke="#f6d97c" stroke-width="1.5" rx="3"><animate attributeName="fill-opacity" values="0;1" dur="1.6s" begin="0.6s" fill="freeze"/></rect>
      <text x="30" y="199" text-anchor="middle" font-family="Georgia, serif" font-size="14" font-weight="bold" fill="#f6d97c" letter-spacing="2">LOUP SINISTRE</text>
      <text x="30" y="220" text-anchor="middle" font-family="Georgia, serif" font-size="11" fill="#5a3a1f">PV 60 • ATQ 12</text>
      <text x="30" y="245" text-anchor="middle" font-family="Georgia, serif" font-size="10" font-style="italic" fill="#a07c3a">★★★☆☆</text>
    </g>

    <!-- Skeleton -->
    <g transform="translate(680 60)">
      <rect x="-50" y="-20" width="160" height="280" rx="10" fill="url(#enemyCard)" stroke="#a07c3a" stroke-width="2"><animate attributeName="stroke-opacity" values="0.55;1;0.55" dur="3.6s" begin="0.9s" repeatCount="indefinite"/></rect>
      <ellipse cx="30" cy="55" rx="20" ry="22" fill="#e8e8e8"/>
      <circle cx="22" cy="52" r="6" fill="#1a1a1a"/>
      <circle cx="38" cy="52" r="6" fill="#1a1a1a"/>
      <circle cx="22" cy="52" r="2.5" fill="#c2563a">
        <animate attributeName="opacity" values="0.5;1;0.5" dur="1.4s" repeatCount="indefinite"/>
      </circle>
      <circle cx="38" cy="52" r="2.5" fill="#c2563a">
        <animate attributeName="opacity" values="0.5;1;0.5" dur="1.4s" begin="0.3s" repeatCount="indefinite"/>
      </circle>
      <path d="M24,68 L36,68" stroke="#1a1a1a" stroke-width="2"/>
      <rect x="20" y="80" width="20" height="40" fill="#d8d8d8"/>
      <line x1="22" y1="80" x2="22" y2="120" stroke="#a0a0a0"/>
      <line x1="28" y1="80" x2="28" y2="120" stroke="#a0a0a0"/>
      <line x1="34" y1="80" x2="34" y2="120" stroke="#a0a0a0"/>
      <line x1="14" y1="125" x2="46" y2="125" stroke="#a0a0a0" stroke-width="3"/>
      <line x1="22" y1="125" x2="20" y2="155" stroke="#a0a0a0" stroke-width="4"/>
      <line x1="38" y1="125" x2="40" y2="155" stroke="#a0a0a0" stroke-width="4"/>
      <line x1="60" y1="95" x2="80" y2="60" stroke="#a0a0a0" stroke-width="3"/>
      <rect x="78" y="56" width="14" height="14" fill="#a07c3a"/>
      <rect x="-50" y="180" width="160" height="26" fill="#3a2412" stroke="#f6d97c" stroke-width="1.5" rx="3"><animate attributeName="fill-opacity" values="0;1" dur="1.6s" begin="0.8s" fill="freeze"/></rect>
      <text x="30" y="199" text-anchor="middle" font-family="Georgia, serif" font-size="14" font-weight="bold" fill="#f6d97c" letter-spacing="2">SQUELETTE</text>
      <text x="30" y="218" text-anchor="middle" font-family="Georgia, serif" font-size="11" fill="#5a3a1f">PV 80 • ATQ 16</text>
      <text x="30" y="245" text-anchor="middle" font-family="Georgia, serif" font-size="10" font-style="italic" fill="#a07c3a">★★★★☆</text>
    </g>

    <!-- Ogre -->
    <g transform="translate(880 60)">
      <rect x="-50" y="-20" width="190" height="280" rx="10" fill="url(#enemyCard)" stroke="#a07c3a" stroke-width="2"><animate attributeName="stroke-opacity" values="0.55;1;0.55" dur="3.6s" begin="1.2s" repeatCount="indefinite"/></rect>
      <ellipse cx="50" cy="100" rx="50" ry="70" fill="#7a4f8b"/>
      <ellipse cx="50" cy="60" rx="28" ry="28" fill="#9b6fc6"/>
      <circle cx="42" cy="58" r="4" fill="#fff"/>
      <circle cx="42" cy="59" r="2.5" fill="#a13a2a"/>
      <circle cx="58" cy="58" r="4" fill="#fff"/>
      <circle cx="58" cy="59" r="2.5" fill="#a13a2a"/>
      <path d="M40,72 L60,72" stroke="#3a2412" stroke-width="2"/>
      <polygon points="48,72 50,80 52,72" fill="#fff"/>
      <rect x="78" y="80" width="10" height="60" fill="#b8860b"/>
      <rect x="78" y="125" width="35" height="14" fill="#5a3e10"/>
      <rect x="-50" y="185" width="190" height="26" fill="#3a2412" stroke="#f6d97c" stroke-width="1.5" rx="3"><animate attributeName="fill-opacity" values="0;1" dur="1.6s" begin="1.0s" fill="freeze"/></rect>
      <text x="50" y="204" text-anchor="middle" font-family="Georgia, serif" font-size="14" font-weight="bold" fill="#f6d97c" letter-spacing="2">OGRE DES CAVERNES</text>
      <text x="50" y="222" text-anchor="middle" font-family="Georgia, serif" font-size="11" fill="#5a3a1f">PV 160 • ATQ 26</text>
      <text x="50" y="245" text-anchor="middle" font-family="Georgia, serif" font-size="10" font-style="italic" fill="#a07c3a">★★★★★</text>
    </g>

    <!-- Boss Mordrak -->
    <g transform="translate(1050 60)">
      <rect x="-15" y="-20" width="220" height="320" rx="10" fill="#1a0838" stroke="#ff3344" stroke-width="3"><animate attributeName="stroke-opacity" values="0.55;1;0.55" dur="2.4s" begin="0s" repeatCount="indefinite"/></rect>
      <rect x="-12" y="-17" width="214" height="314" rx="8" fill="none" stroke="#ff3344" stroke-width="0.6" opacity="0.5"/>
      <circle cx="100" cy="100" r="100" fill="url(#bossAuraCard)">
        <animate attributeName="r" values="80;110;80" dur="2.2s" repeatCount="indefinite"/>
        <animate attributeName="opacity" values="0.5;1;0.5" dur="2.2s" repeatCount="indefinite"/>
      </circle>
      <!-- Boss robe silhouette -->
      <ellipse cx="100" cy="170" rx="80" ry="100" fill="#2b0a3d"/>
      <ellipse cx="100" cy="100" rx="38" ry="42" fill="#1a0808"/>
      <ellipse cx="100" cy="100" rx="38" ry="42" fill="none" stroke="#ff3344" stroke-width="2"/>
      <!-- Skull -->
      <ellipse cx="100" cy="95" rx="18" ry="22" fill="#f5e6c8"/>
      <ellipse cx="92" cy="93" rx="5" ry="6" fill="#ff3344">
        <animate attributeName="opacity" values="0.5;1;0.5" dur="1.1s" repeatCount="indefinite"/>
      </ellipse>
      <ellipse cx="108" cy="93" rx="5" ry="6" fill="#ff3344">
        <animate attributeName="opacity" values="0.5;1;0.5" dur="1.1s" begin="0.3s" repeatCount="indefinite"/>
      </ellipse>
      <path d="M94,110 L106,110" stroke="#3a2412" stroke-width="2"/>
      <path d="M96,114 L96,120 M100,114 L100,120 M104,114 L104,120" stroke="#3a2412" stroke-width="1.5"/>
      <!-- Hood -->
      <path d="M62,90 Q100,40 138,90 L138,120 L62,120 Z" fill="#1a0808" opacity="0.85"/>
      <rect x="-15" y="232" width="220" height="28" fill="#1a0808" stroke="#ff3344" stroke-width="2" rx="3"><animate attributeName="fill-opacity" values="0;1" dur="1.6s" begin="0.3s" fill="freeze"/></rect>
      <text x="100" y="252" text-anchor="middle" font-family="Georgia, serif" font-size="16" font-weight="bold" fill="#ff8a96" letter-spacing="3">⚔ MORDRAK ⚔</text>
      <text x="100" y="265" text-anchor="middle" font-family="Georgia, serif" font-size="12" fill="#ff8a96">PV 600 • ATQ 40</text>
      <text x="100" y="285" text-anchor="middle" font-family="Georgia, serif" font-size="11" font-style="italic" fill="#ff5468">✦✦✦ BOSS FINAL ✦✦✦</text>
    </g>
  </svg>