<svg xmlns="http://www.w3.org/2000/svg" style="max-width:1100px" viewBox="0 0 1500 400"><defs><radialGradient id="b" cx=".5" cy=".5" r=".5"><stop offset="0%" stop-color="#5fd35f"/><stop offset="100%" stop-color="#3a8a3a" stop-opacity="0"/></radialGradient><radialGradient id="c" cx=".5" cy=".5" r=".5"><stop offset="0%" stop-color="#f34" stop-opacity=".7"/><stop offset="100%" stop-color="#f34" stop-opacity="0"/></radialGradient><linearGradient id="a" x1="0" x2="0" y1="0" y2="1"><stop offset="0%" stop-color="#fff4c2"/><stop offset="100%" stop-color="#d8be83"/></linearGradient></defs><g transform="translate(80 60)"><rect width="160" height="280" x="-50" y="-20" fill="url(#a)" stroke="#a07c3a" stroke-width="2" rx="10"><animate attributeName="stroke-opacity" begin="0s" dur="3.6s" repeatCount="indefinite" values="0.55;1;0.55"/></rect><circle cx="30" cy="100" r="55" fill="url(#b)" opacity=".6"><animate attributeName="r" dur="2s" repeatCount="indefinite" values="50;60;50"/></circle><ellipse cx="30" cy="100" fill="#5fd35f" opacity=".85" rx="38" ry="40"/><ellipse cx="30" cy="90" fill="#fff" opacity=".6" rx="30" ry="10"/><ellipse cx="20" cy="98" fill="#1a1a1a" rx="6" ry="9"/><ellipse cx="40" cy="98" fill="#1a1a1a" rx="6" ry="9"/><ellipse cx="30" cy="120" fill="#1a1a1a" rx="4" ry="2"/><rect width="160" height="26" x="-50" y="180" fill="#3a2412" stroke="#f6d97c" stroke-width="1.5" rx="3"><animate fill="freeze" attributeName="fill-opacity" begin="0.2s" dur="1.6s" values="0;1"/></rect><text x="30" y="199" fill="#f6d97c" font-family="Georgia, serif" font-size="14" font-weight="bold" letter-spacing="1" text-anchor="middle">SLIME VERT</text><text x="30" y="219" fill="#5a3a1f" font-family="Georgia, serif" font-size="11" text-anchor="middle">PV 25 • ATQ 4</text><text x="30" y="243" fill="#a07c3a" font-family="Georgia, serif" font-size="10" font-style="italic" text-anchor="middle">★☆☆☆☆</text></g><g transform="translate(280 60)"><rect width="160" height="280" x="-50" y="-20" fill="url(#a)" stroke="#a07c3a" stroke-width="2" rx="10"><animate attributeName="stroke-opacity" begin="0.3s" dur="3.6s" repeatCount="indefinite" values="0.55;1;0.55"/></rect><polygon fill="#5a8a3a" stroke="#3a5a1a" stroke-width=".6" points="6,52 18,32 22,60"/><polygon fill="#5a8a3a" stroke="#3a5a1a" stroke-width=".6" points="54,52 42,32 38,60"/><polygon fill="#7aa55a" points="10,46 16,38 18,52"/><polygon fill="#7aa55a" points="50,46 44,38 42,52"/><ellipse cx="30" cy="65" fill="#6a9a4a" rx="24" ry="26"/><circle cx="30" cy="62" r="22" fill="#7aa55a"/><ellipse cx="20" cy="72" fill="#4a7a2a" opacity=".5" rx="3" ry="5"/><ellipse cx="40" cy="72" fill="#4a7a2a" opacity=".5" rx="3" ry="5"/><ellipse cx="22" cy="58" fill="#f4d35a" rx="3.5" ry="6"/><ellipse cx="22" cy="58" fill="#1a1a1a" rx="1.5" ry="4.5"/><ellipse cx="38" cy="58" fill="#f4d35a" rx="3.5" ry="6"/><ellipse cx="38" cy="58" fill="#1a1a1a" rx="1.5" ry="4.5"/><polygon fill="#3a5a1a" points="28,72 32,72 30,77"/><path fill="none" stroke="#3a2412" stroke-width="2" d="M22 82q8 8 16 0"/><polygon fill="#fff" points="29,84 31,84 30,91"/><path fill="#5a8a3a" d="M8 95q22-7 44 0l-2 53q-20 10-40 0Z"/><rect width="40" height="6" x="10" y="145" fill="#3a2412"/><rect width="6" height="10" x="27" y="143" fill="#a07c3a"/><path fill="#3a4a1a" d="m14 151 4 17 6-10 6 12 6-12 6 12 4-19Z"/><path fill="none" stroke="#6a9a4a" stroke-linecap="round" stroke-width="7" d="M48 108q12 10 14 20"/><rect width="5" height="22" x="56" y="118" fill="#5a3a1a" rx="1"/><rect width="9" height="4" x="54" y="116" fill="#7a7a7a"/><polygon fill="#d0d0d0" stroke="#7a7a7a" stroke-width=".5" points="56,116 62,116 59,94"/><circle cx="59" cy="95" r="1" fill="#fff"/><rect width="160" height="26" x="-50" y="180" fill="#3a2412" stroke="#f6d97c" stroke-width="1.5" rx="3"><animate fill="freeze" attributeName="fill-opacity" begin="0.4s" dur="1.6s" values="0;1"/></rect><text x="30" y="199" fill="#f6d97c" font-family="Georgia, serif" font-size="14" font-weight="bold" letter-spacing="1" text-anchor="middle">PILLARD GOBELIN</text><text x="30" y="219" fill="#5a3a1f" font-family="Georgia, serif" font-size="11" text-anchor="middle">PV 45 • ATQ 8</text><text x="30" y="243" fill="#a07c3a" font-family="Georgia, serif" font-size="10" font-style="italic" text-anchor="middle">★★☆☆☆</text></g><g transform="translate(480 60)"><rect width="160" height="280" x="-50" y="-20" fill="url(#a)" stroke="#a07c3a" stroke-width="2" rx="10"><animate attributeName="stroke-opacity" begin="0.6s" dur="3.6s" repeatCount="indefinite" values="0.55;1;0.55"/></rect><path fill="#6b6b6b" stroke="#3a3a3a" stroke-width=".6" d="M-4 108q-10 14-6 37 3 17 12 20 8-7 4-25 0-16-2-28Z"/><path fill="none" stroke="#3a3a3a" stroke-width=".8" d="M-3 128q-3 14-1 26"/><path fill="none" stroke="#3a3a3a" stroke-width=".8" d="M1 130q-3 14-1 26"/><ellipse cx="35" cy="115" fill="#7a7a7a" rx="42" ry="28"/><ellipse cx="40" cy="125" fill="#d8c8a8" rx="30" ry="14"/><path fill="#3a3a3a" d="M15 90q20-10 40 0 15 8 15 28H15Z"/><circle cx="68" cy="85" r="22" fill="#7a7a7a"/><polygon fill="#8a8a8a" points="78,90 102,98 98,108 78,104"/><ellipse cx="102" cy="103" fill="#1a1a1a" rx="4" ry="3"/><path fill="none" stroke="#1a1a1a" stroke-width="1.5" d="M88 108q6 6 12 0"/><path fill="#c2563a" d="M92 110q2 4 4 0" opacity=".7"/><polygon fill="#5a5a5a" points="55,70 56,52 68,72"/><polygon fill="#a87a7a" points="58,68 59,60 64,68"/><polygon fill="#5a5a5a" points="74,62 80,46 86,64"/><polygon fill="#a87a7a" points="76,64 80,54 84,66"/><circle cx="68" cy="82" r="3.5" fill="#fbbf24"><animate attributeName="opacity" dur="1.6s" repeatCount="indefinite" values="0.6;1;0.6"/></circle><circle cx="68" cy="82" r="1.5" fill="#1a1a1a"/><line x1="55" x2="55" y1="135" y2="160" stroke="#6a6a6a" stroke-linecap="round" stroke-width="7"/><line x1="68" x2="68" y1="135" y2="160" stroke="#6a6a6a" stroke-linecap="round" stroke-width="7"/><line x1="10" x2="8" y1="135" y2="158" stroke="#6a6a6a" stroke-linecap="round" stroke-width="7"/><line x1="22" x2="24" y1="138" y2="160" stroke="#6a6a6a" stroke-linecap="round" stroke-width="7"/><ellipse cx="55" cy="162" fill="#3a3a3a" rx="6" ry="3"/><ellipse cx="68" cy="162" fill="#3a3a3a" rx="6" ry="3"/><ellipse cx="8" cy="160" fill="#3a3a3a" rx="6" ry="3"/><ellipse cx="24" cy="162" fill="#3a3a3a" rx="6" ry="3"/><line x1="50" x2="52" y1="164" y2="166" stroke="#fff"/><line x1="55" x2="55" y1="164" y2="167" stroke="#fff"/><line x1="60" x2="58" y1="164" y2="166" stroke="#fff"/><rect width="160" height="26" x="-50" y="180" fill="#3a2412" stroke="#f6d97c" stroke-width="1.5" rx="3"><animate fill="freeze" attributeName="fill-opacity" begin="0.6s" dur="1.6s" values="0;1"/></rect><text x="35" y="199" fill="#f6d97c" font-family="Georgia, serif" font-size="14" font-weight="bold" letter-spacing="1" text-anchor="middle">LOUP SINISTRE</text><text x="35" y="219" fill="#5a3a1f" font-family="Georgia, serif" font-size="11" text-anchor="middle">PV 60 • ATQ 12</text><text x="35" y="243" fill="#a07c3a" font-family="Georgia, serif" font-size="10" font-style="italic" text-anchor="middle">★★★☆☆</text></g><g transform="translate(680 60)"><rect width="160" height="280" x="-50" y="-20" fill="url(#a)" stroke="#a07c3a" stroke-width="2" rx="10"><animate attributeName="stroke-opacity" begin="0.9s" dur="3.6s" repeatCount="indefinite" values="0.55;1;0.55"/></rect><circle cx="35" cy="52" r="24" fill="#e8e8e8" stroke="#a0a0a0" stroke-width=".6"/><ellipse cx="27" cy="50" fill="#0a0a0a" rx="6" ry="7"/><ellipse cx="43" cy="50" fill="#0a0a0a" rx="6" ry="7"/><circle cx="27" cy="50" r="3" fill="#c2563a"><animate attributeName="opacity" dur="1.4s" repeatCount="indefinite" values="0.5;1;0.5"/></circle><circle cx="43" cy="50" r="3" fill="#c2563a"><animate attributeName="opacity" begin="0.3s" dur="1.4s" repeatCount="indefinite" values="0.5;1;0.5"/></circle><polygon fill="#0a0a0a" points="33,58 37,58 35,63"/><rect width="18" height="6" x="26" y="68" fill="#f0f0f0" stroke="#a0a0a0" stroke-width=".4"/><line x1="29" x2="29" y1="68" y2="74" stroke="#a0a0a0" stroke-width=".4"/><line x1="32" x2="32" y1="68" y2="74" stroke="#a0a0a0" stroke-width=".4"/><line x1="35" x2="35" y1="68" y2="74" stroke="#a0a0a0" stroke-width=".4"/><line x1="38" x2="38" y1="68" y2="74" stroke="#a0a0a0" stroke-width=".4"/><line x1="41" x2="41" y1="68" y2="74" stroke="#a0a0a0" stroke-width=".4"/><path fill="#e0e0e0" stroke="#a0a0a0" stroke-width=".6" d="M14 88q21-6 42 0l2 47q-23 5-46 0Z"/><path fill="none" stroke="#a0a0a0" stroke-width="1.2" d="M16 95q19 5 38 0"/><path fill="none" stroke="#a0a0a0" stroke-width="1.2" d="M15 104q20 5 40 0"/><path fill="none" stroke="#a0a0a0" stroke-width="1.2" d="M14 113q21 5 42 0"/><path fill="none" stroke="#a0a0a0" stroke-width="1.2" d="M14 122q21 5 42 0"/><path fill="none" stroke="#a0a0a0" stroke-width="1.2" d="M13 131q22 4 44 0"/><line x1="35" x2="35" y1="80" y2="140" stroke="#c8c8c8" stroke-width="2"/><line x1="54" x2="68" y1="92" y2="80" stroke="#d0d0d0" stroke-linecap="round" stroke-width="4"/><line x1="68" x2="80" y1="80" y2="58" stroke="#d0d0d0" stroke-linecap="round" stroke-width="4"/><line x1="14" x2="8" y1="92" y2="120" stroke="#d0d0d0" stroke-linecap="round" stroke-width="4"/><line x1="8" x2="6" y1="120" y2="140" stroke="#d0d0d0" stroke-linecap="round" stroke-width="4"/><path fill="#d8d8d8" stroke="#a0a0a0" stroke-width=".4" d="M18 140q17-2 34 0v8q-17 2-34 0Z"/><line x1="26" x2="24" y1="148" y2="170" stroke="#d8d8d8" stroke-linecap="round" stroke-width="6"/><line x1="44" x2="46" y1="148" y2="170" stroke="#d8d8d8" stroke-linecap="round" stroke-width="6"/><line x1="18" x2="30" y1="170" y2="170" stroke="#d8d8d8" stroke-linecap="round" stroke-width="3"/><line x1="40" x2="52" y1="170" y2="170" stroke="#d8d8d8" stroke-linecap="round" stroke-width="3"/><path fill="#a07c3a" stroke="#3a2412" stroke-width=".6" d="m76 58 20-6v16H78Z"/><rect width="4" height="14" x="78" y="54" fill="#7a5a3a"/><rect width="160" height="26" x="-50" y="180" fill="#3a2412" stroke="#f6d97c" stroke-width="1.5" rx="3"><animate fill="freeze" attributeName="fill-opacity" begin="0.8s" dur="1.6s" values="0;1"/></rect><text x="30" y="199" fill="#f6d97c" font-family="Georgia, serif" font-size="13" font-weight="bold" letter-spacing=".5" text-anchor="middle">GUERRIER SQUELETTE</text><text x="30" y="219" fill="#5a3a1f" font-family="Georgia, serif" font-size="11" text-anchor="middle">PV 80 • ATQ 16</text><text x="30" y="243" fill="#a07c3a" font-family="Georgia, serif" font-size="10" font-style="italic" text-anchor="middle">★★★★☆</text></g><g transform="translate(880 60)"><rect width="220" height="280" x="-55" y="-20" fill="url(#a)" stroke="#a07c3a" stroke-width="2" rx="10"><animate attributeName="stroke-opacity" begin="1.2s" dur="3.6s" repeatCount="indefinite" values="0.55;1;0.55"/></rect><rect width="14" height="125" x="128" y="40" fill="#5a3a1a" rx="3"/><ellipse cx="135" cy="50" fill="#3a2412" rx="30" ry="24"/><ellipse cx="135" cy="50" fill="#5a3a1a" rx="26" ry="20"/><polygon fill="#8a8a8a" stroke="#3a3a3a" stroke-width=".4" points="135,18 130,32 140,32"/><polygon fill="#8a8a8a" stroke="#3a3a3a" stroke-width=".4" points="108,38 112,52 100,48"/><polygon fill="#8a8a8a" stroke="#3a3a3a" stroke-width=".4" points="162,38 158,52 170,48"/><polygon fill="#8a8a8a" stroke="#3a3a3a" stroke-width=".4" points="104,60 113,66 106,72"/><polygon fill="#8a8a8a" stroke="#3a3a3a" stroke-width=".4" points="166,60 157,66 164,72"/><polygon fill="#8a8a8a" stroke="#3a3a3a" stroke-width=".4" points="118,80 124,86 120,90"/><polygon fill="#8a8a8a" stroke="#3a3a3a" stroke-width=".4" points="152,80 146,86 150,90"/><rect width="22" height="22" x="20" y="148" fill="#3a4a1a"/><rect width="22" height="22" x="58" y="148" fill="#3a4a1a"/><rect width="30" height="8" x="16" y="166" fill="#3a2412" rx="2"/><rect width="30" height="8" x="54" y="166" fill="#3a2412" rx="2"/><ellipse cx="50" cy="120" fill="#4a5a2a" rx="50" ry="38"/><path fill="#5a6a3a" d="M5 110q45-12 90 0l-3 38q-42 10-84 0Z"/><path fill="none" stroke="#3a2412" stroke-width="3" d="M10 145q40 5 80 0"/><circle cx="50" cy="148" r="3" fill="#5a3a1a"/><ellipse cx="50" cy="60" fill="#6a7a4a" rx="34" ry="28"/><path fill="#3a2412" d="M16 46q34-8 68 0l-2 9q-32-3-64 0Z"/><circle cx="38" cy="58" r="5" fill="#f34"><animate attributeName="opacity" dur="1.2s" repeatCount="indefinite" values="0.5;1;0.5"/></circle><circle cx="62" cy="58" r="5" fill="#f34"><animate attributeName="opacity" begin="0.3s" dur="1.2s" repeatCount="indefinite" values="0.5;1;0.5"/></circle><circle cx="38" cy="58" r="2" fill="#1a1a1a"/><circle cx="62" cy="58" r="2" fill="#1a1a1a"/><path fill="none" stroke="#3a2412" stroke-width="2.5" d="M30 76q20 8 40 0"/><polygon fill="#fff" stroke="#a0a0a0" stroke-width=".3" points="34,76 40,76 37,90"/><polygon fill="#fff" stroke="#a0a0a0" stroke-width=".3" points="60,76 66,76 63,90"/><line x1="30" x2="30" y1="120" y2="142" stroke="#3a4a1a"/><line x1="70" x2="70" y1="120" y2="142" stroke="#3a4a1a"/><rect width="210" height="26" x="-55" y="180" fill="#3a2412" stroke="#f6d97c" stroke-width="1.5" rx="3"><animate fill="freeze" attributeName="fill-opacity" begin="1.0s" dur="1.6s" values="0;1"/></rect><text x="50" y="199" fill="#f6d97c" font-family="Georgia, serif" font-size="14" font-weight="bold" letter-spacing="1" text-anchor="middle">OGRE DES CAVERNES</text><text x="50" y="219" fill="#5a3a1f" font-family="Georgia, serif" font-size="11" text-anchor="middle">PV 160 • ATQ 26</text><text x="50" y="243" fill="#a07c3a" font-family="Georgia, serif" font-size="10" font-style="italic" text-anchor="middle">★★★★★</text></g><g transform="translate(1180 60)"><rect width="260" height="280" x="-30" y="-20" fill="#1a0838" stroke="#f34" stroke-width="3" rx="10"><animate attributeName="stroke-opacity" begin="0s" dur="2.4s" repeatCount="indefinite" values="0.55;1;0.55"/></rect><rect width="254" height="274" x="-27" y="-17" fill="none" stroke="#f34" stroke-width=".6" opacity=".5" rx="8"/><circle cx="100" cy="80" r="80" fill="url(#c)"><animate attributeName="r" dur="2.2s" repeatCount="indefinite" values="70;88;70"/><animate attributeName="opacity" dur="2.2s" repeatCount="indefinite" values="0.5;1;0.5"/></circle><g transform="translate(100 80)scale(1.36)"><circle r="50" fill="#f34" opacity=".2"><animate attributeName="r" dur="2.2s" repeatCount="indefinite" values="44;54;44"/><animate attributeName="opacity" dur="2.2s" repeatCount="indefinite" values="0.1;0.3;0.1"/></circle><path fill="#4a1d6e" d="M-32 10q32 38 64 0v38h-64Z"/><path fill="none" stroke="#5a2d8e" stroke-width="1.5" d="M-32 10q32 38 64 0"/><path fill="none" stroke="#3a0a2e" stroke-linecap="round" stroke-width="4" d="M-28 8q-8 10-4 24"/><path fill="none" stroke="#3a0a2e" stroke-linecap="round" stroke-width="4" d="M28 8q8 10 4 24"/><ellipse cy="4" fill="#2a0a1a" rx="28" ry="32"/><ellipse cy="4" fill="none" stroke="#f34" stroke-width="1.2" opacity=".6" rx="28" ry="32"/><ellipse cy="-5" fill="#f5e6c8" rx="17" ry="19"/><ellipse cx="-7" cy="-7" fill="#f34" rx="4.5" ry="5.5"><animate attributeName="opacity" dur="1.1s" repeatCount="indefinite" values="0.5;1;0.5"/></ellipse><ellipse cx="7" cy="-7" fill="#f34" rx="4.5" ry="5.5"><animate attributeName="opacity" begin="0.3s" dur="1.1s" repeatCount="indefinite" values="0.5;1;0.5"/></ellipse><ellipse cx="-7" cy="-7" fill="#1a0a0a" rx="1.5" ry="2.5"/><ellipse cx="7" cy="-7" fill="#1a0a0a" rx="1.5" ry="2.5"/><polygon fill="#2a0a1a" points="-2.5,3 2.5,3 0,8"/><line x1="-7" x2="7" y1="11" y2="11" stroke="#2a0a1a" stroke-width="1.5"/><line x1="-4" x2="-4" y1="11" y2="15" stroke="#2a0a1a"/><line x1="-1" x2="-1" y1="11" y2="15" stroke="#2a0a1a"/><line x1="2" x2="2" y1="11" y2="15" stroke="#2a0a1a"/><line x1="5" x2="5" y1="11" y2="15" stroke="#2a0a1a"/><path fill="#a07c3a" d="m-14-18-8-16 12 12Z"/><path fill="#a07c3a" d="m14-18 8-16-12 12Z"/></g><rect width="260" height="28" x="-30" y="180" fill="#1a0808" stroke="#f34" stroke-width="2" rx="3"><animate fill="freeze" attributeName="fill-opacity" begin="0.3s" dur="1.6s" values="0;1"/></rect><text x="100" y="199" fill="#ff8a96" font-family="Georgia, serif" font-size="14" font-weight="bold" letter-spacing="1" text-anchor="middle">⚔ MORDRAK ⚔</text><text x="100" y="224" fill="#ff8a96" font-family="Georgia, serif" font-size="11" text-anchor="middle">PV 600 • ATQ 40</text><text x="100" y="250" fill="#ff5468" font-family="Georgia, serif" font-size="11" font-style="italic" text-anchor="middle">✦✦✦ BOSS FINAL ✦✦✦</text></g></svg>