<svg xmlns="http://www.w3.org/2000/svg" style="max-width:992px" viewBox="0 0 992 422"><defs><linearGradient id="b" x1="0" x2="0" y1="0" y2="1"><stop offset="0%" stop-color="#fff4c2"/><stop offset="50%" stop-color="#f6d97c"/><stop offset="100%" stop-color="#a07c3a"/></linearGradient><linearGradient id="a" x1="0" x2="0" y1="0" y2="1"><stop offset="0%" stop-color="#fff4c2"/><stop offset="100%" stop-color="#d8be83"/></linearGradient><linearGradient id="c" x1="0" x2="0" y1="0" y2="1"><stop offset="0%" stop-color="#1a0e2e"/><stop offset="100%" stop-color="#3a2412"/></linearGradient></defs><g transform="translate(8 8)"><rect width="312" height="192" x="4" y="4" fill="url(#a)" stroke="#a07c3a" stroke-width="1.5" rx="10"><animate attributeName="stroke-opacity" begin="0s" dur="3.6s" repeatCount="indefinite" values="0.55;1;0.55"/></rect><rect width="300" height="180" x="10" y="10" fill="none" stroke="#a07c3a" stroke-width=".5" opacity=".4" rx="8"/><text x="160" y="34" fill="#a13a2a" font-family="Georgia, serif" font-size="11" font-weight="bold" letter-spacing="5" text-anchor="middle">I · LE MONDE</text><line x1="80" x2="240" y1="44" y2="44" stroke="url(#b)" stroke-width=".8" opacity=".7"/><text x="160" y="92" fill="#3a2412" font-family="Georgia, serif" font-size="28" font-weight="900" text-anchor="middle">200 × 200 cases</text><g fill="#5a3a1f" font-family="Georgia, serif" font-size="10" text-anchor="middle"><text x="160" y="124">☀ cycle jour/nuit · 180 s</text><text x="160" y="142">🌫 brouillard exponentiel</text><text x="160" y="160">🏞 six biomes reliés au village</text></g><rect width="292" height="22" x="14" y="170" fill="url(#c)" stroke="#f6d97c" rx="3"><animate fill="freeze" attributeName="fill-opacity" begin="0.2s" dur="1.6s" values="0;1"/></rect><text x="160" y="185" fill="#f6d97c" font-family="Georgia, serif" font-size="10" font-weight="bold" letter-spacing="3" text-anchor="middle">❦ UN SANCTUAIRE À EXPLORER ❦</text></g><g transform="translate(336 8)"><rect width="312" height="192" x="4" y="4" fill="url(#a)" stroke="#a07c3a" stroke-width="1.5" rx="10"><animate attributeName="stroke-opacity" begin="0.3s" dur="3.6s" repeatCount="indefinite" values="0.55;1;0.55"/></rect><rect width="300" height="180" x="10" y="10" fill="none" stroke="#a07c3a" stroke-width=".5" opacity=".4" rx="8"/><text x="160" y="34" fill="#a13a2a" font-family="Georgia, serif" font-size="11" font-weight="bold" letter-spacing="5" text-anchor="middle">II · L&apos;ARSENAL</text><line x1="80" x2="240" y1="44" y2="44" stroke="url(#b)" stroke-width=".8" opacity=".7"/><g transform="translate(160 76)"><line y1="-32" y2="20" stroke="#3a2412" stroke-width="3"/><polygon fill="#a07c3a" points="-7,20 7,20 4,30 -4,30"/><rect width="32" height="6" x="-16" y="-6" fill="#a07c3a"/><circle cy="-6" r="3" fill="#f6d97c"/></g><text x="160" y="124" fill="#3a2412" font-family="Georgia, serif" font-size="22" font-weight="900" text-anchor="middle">17 objets</text><g fill="#5a3a1f" font-family="Georgia, serif" font-size="10" text-anchor="middle"><text x="160" y="144">⚔ 5 armes · 🛡 3 armures · 🧪 3 potions</text><text x="160" y="160">🦴 5 matériaux · 🗝 1 clé de quête</text></g><rect width="292" height="22" x="14" y="170" fill="url(#c)" stroke="#f6d97c" rx="3"><animate fill="freeze" attributeName="fill-opacity" begin="0.5s" dur="1.6s" values="0;1"/></rect><text x="160" y="185" fill="#f6d97c" font-family="Georgia, serif" font-size="10" font-weight="bold" letter-spacing="3" text-anchor="middle">❦ DU COMMUN AU LÉGENDAIRE ❦</text></g><g transform="translate(664 8)"><defs><radialGradient id="d" cx=".5" cy=".5" r=".5"><stop offset="0%" stop-color="#fff"/><stop offset="60%" stop-color="#ff8a96"/><stop offset="100%" stop-color="#7a1c0a" stop-opacity="0"/></radialGradient></defs><rect width="312" height="192" x="4" y="4" fill="url(#a)" stroke="#a07c3a" stroke-width="1.5" rx="10"><animate attributeName="stroke-opacity" begin="0.6s" dur="3.6s" repeatCount="indefinite" values="0.55;1;0.55"/></rect><rect width="300" height="180" x="10" y="10" fill="none" stroke="#a07c3a" stroke-width=".5" opacity=".4" rx="8"/><text x="160" y="34" fill="#a13a2a" font-family="Georgia, serif" font-size="11" font-weight="bold" letter-spacing="5" text-anchor="middle">III · LE COMBAT</text><line x1="80" x2="240" y1="44" y2="44" stroke="url(#b)" stroke-width=".8" opacity=".7"/><circle cx="160" cy="78" r="26" fill="url(#d)" opacity=".8"><animate attributeName="r" dur="2.4s" repeatCount="indefinite" values="22;28;22"/></circle><text x="160" y="84" font-size="22" text-anchor="middle">🔥</text><g fill="#5a3a1f" font-family="Georgia, serif" font-size="11" text-anchor="middle"><text x="160" y="124">arc d&apos;attaque · combo · i-frames</text><text x="160" y="142" font-style="italic">particules &amp; screen-shake sur impact</text><text x="160" y="160">5 sorts cycliques · mana &amp; cooldown</text></g><rect width="292" height="22" x="14" y="170" fill="url(#c)" stroke="#f6d97c" rx="3"><animate fill="freeze" attributeName="fill-opacity" begin="0.8s" dur="1.6s" values="0;1"/></rect><text x="160" y="185" fill="#f6d97c" font-family="Georgia, serif" font-size="10" font-weight="bold" letter-spacing="3" text-anchor="middle">❦ MORT OU GLOIRE ❦</text></g><g transform="translate(8 214)"><defs><radialGradient id="e" cx=".5" cy=".5" r=".5"><stop offset="0%" stop-color="#f6d97c"/><stop offset="100%" stop-color="#a07c3a" stop-opacity="0"/></radialGradient></defs><rect width="312" height="192" x="4" y="4" fill="url(#a)" stroke="#a07c3a" stroke-width="1.5" rx="10"><animate attributeName="stroke-opacity" begin="0.9s" dur="3.6s" repeatCount="indefinite" values="0.55;1;0.55"/></rect><rect width="300" height="180" x="10" y="10" fill="none" stroke="#a07c3a" stroke-width=".5" opacity=".4" rx="8"/><text x="160" y="34" fill="#a13a2a" font-family="Georgia, serif" font-size="11" font-weight="bold" letter-spacing="5" text-anchor="middle">IV · LE BUTIN</text><line x1="80" x2="240" y1="44" y2="44" stroke="url(#b)" stroke-width=".8" opacity=".7"/><g transform="translate(160 80)"><rect width="52" height="32" x="-26" y="-2" fill="#7a4f2b" stroke="#3a2412" stroke-width="1.5"/><path fill="#a07c3a" stroke="#3a2412" stroke-width="1.5" d="M-26-2Q0-30 26-2V8h-52Z"/><rect width="12" height="12" x="-6" y="6" fill="#f6d97c"/><circle cy="12" r="3" fill="#a13a2a"/><circle cy="-10" r="14" fill="url(#e)" opacity=".85"><animate attributeName="r" dur="2.4s" repeatCount="indefinite" values="11;16;11"/><animate attributeName="opacity" dur="2.4s" repeatCount="indefinite" values="0.5;1;0.5"/></circle></g><g fill="#5a3a1f" font-family="Georgia, serif" font-size="10" text-anchor="middle"><text x="160" y="124">7 coffres · 5 raretés · tables de loot</text><text x="160" y="142" font-style="italic">or de coffre + jet aléatoire</text><text x="160" y="160">revente boutique à 50 % de la valeur</text></g><rect width="292" height="22" x="14" y="170" fill="url(#c)" stroke="#f6d97c" rx="3"><animate fill="freeze" attributeName="fill-opacity" begin="1.1s" dur="1.6s" values="0;1"/></rect><text x="160" y="185" fill="#f6d97c" font-family="Georgia, serif" font-size="10" font-weight="bold" letter-spacing="3" text-anchor="middle">❦ À CHACUN SON TRÉSOR ❦</text></g><g transform="translate(336 214)"><rect width="312" height="192" x="4" y="4" fill="url(#a)" stroke="#a07c3a" stroke-width="1.5" rx="10"><animate attributeName="stroke-opacity" begin="1.2s" dur="3.6s" repeatCount="indefinite" values="0.55;1;0.55"/></rect><rect width="300" height="180" x="10" y="10" fill="none" stroke="#a07c3a" stroke-width=".5" opacity=".4" rx="8"/><text x="160" y="34" fill="#a13a2a" font-family="Georgia, serif" font-size="11" font-weight="bold" letter-spacing="5" text-anchor="middle">V · LA PROUESSE</text><line x1="80" x2="240" y1="44" y2="44" stroke="url(#b)" stroke-width=".8" opacity=".7"/><g transform="translate(62 50)"><polyline fill="none" stroke="#a13a2a" stroke-width="2.5" points="0,50 28,43 56,35 84,28 112,22 140,16 168,11 196,8"/><polyline fill="none" stroke="#f6d97c" points="0,50 28,43 56,35 84,28 112,22 140,16 168,11 196,8" opacity=".7"/><circle cy="50" r="3" fill="#a13a2a"/><circle cx="56" cy="35" r="3" fill="#a13a2a"/><circle cx="112" cy="22" r="3" fill="#a13a2a"/><circle cx="196" cy="8" r="4" fill="#f6d97c"><animate attributeName="r" dur="2.4s" repeatCount="indefinite" values="3;5;3"/></circle><line x2="196" y1="54" y2="54" stroke="#a07c3a" stroke-width=".6"/><line y1="54" y2="-2" stroke="#a07c3a" stroke-width=".6"/></g><g fill="#5a3a1f" font-family="Georgia, serif" font-size="10" text-anchor="middle"><text x="160" y="124" font-weight="bold">XP = ⌊50 × level<tspan dy="-.45em" font-size=".85em">1.6</tspan>⌋</text><text x="160" y="142" font-style="italic">3 points de stats allouables par palier</text><text x="160" y="160">sauvegarde auto · reprise locale &amp; Prisma</text></g><rect width="292" height="22" x="14" y="170" fill="url(#c)" stroke="#f6d97c" rx="3"><animate fill="freeze" attributeName="fill-opacity" begin="1.4s" dur="1.6s" values="0;1"/></rect><text x="160" y="185" fill="#f6d97c" font-family="Georgia, serif" font-size="10" font-weight="bold" letter-spacing="3" text-anchor="middle">❦ L&apos;ASCENSION DU HÉROS ❦</text></g><g transform="translate(664 214)"><rect width="312" height="192" x="4" y="4" fill="url(#a)" stroke="#a07c3a" stroke-width="1.5" rx="10"><animate attributeName="stroke-opacity" begin="1.5s" dur="3.6s" repeatCount="indefinite" values="0.55;1;0.55"/></rect><rect width="300" height="180" x="10" y="10" fill="none" stroke="#a07c3a" stroke-width=".5" opacity=".4" rx="8"/><text x="160" y="34" fill="#a13a2a" font-family="Georgia, serif" font-size="11" font-weight="bold" letter-spacing="5" text-anchor="middle">VI · LA SCÈNE</text><line x1="80" x2="240" y1="44" y2="44" stroke="url(#b)" stroke-width=".8" opacity=".7"/><g transform="translate(160 68)"><rect width="36" height="32" x="-58" y="-16" fill="none" stroke="#a07c3a" stroke-width="1.5" rx="6"/><text x="-40" y="6" font-size="16" text-anchor="middle">🌐</text><rect width="36" height="32" x="-18" y="-16" fill="none" stroke="#a07c3a" stroke-width="1.5" rx="6"/><text y="6" font-size="16" text-anchor="middle">🖥</text><rect width="36" height="32" x="22" y="-16" fill="none" stroke="#a07c3a" stroke-width="1.5" rx="6"/><text x="40" y="6" font-size="16" text-anchor="middle">⚙</text></g><g fill="#5a3a1f" font-family="Georgia, serif" font-size="9" letter-spacing="2" text-anchor="middle"><text x="120" y="104">Web</text><text x="160" y="104">Electron</text><text x="200" y="104">R3F</text></g><g fill="#5a3a1f" font-family="Georgia, serif" font-size="10" text-anchor="middle"><text x="160" y="124" fill="#3a2412" font-weight="bold">Next.js · Three.js · Zustand · Prisma</text><text x="160" y="142" font-style="italic">Bloom · God Rays · vignette · FM</text><text x="160" y="160">Steam · itch.io · auto-update</text></g><rect width="292" height="22" x="14" y="170" fill="url(#c)" stroke="#f6d97c" rx="3"><animate fill="freeze" attributeName="fill-opacity" begin="1.7s" dur="1.6s" values="0;1"/></rect><text x="160" y="185" fill="#f6d97c" font-family="Georgia, serif" font-size="10" font-weight="bold" letter-spacing="3" text-anchor="middle">❦ UN DéPÔT, TOUTES LES PORTES ❦</text></g></svg>