<?xml version="1.0" encoding="UTF-8" standalone="no"?>
<svg xmlns="http://www.w3.org/2000/svg" viewBox="0 0 1100 720" preserveAspectRatio="xMidYMid meet" role="img" aria-label="Carte du monde d'Eldoria — cinq territoires et le donjon de Mordrak, reliés au Village central">
  <title>Carte du monde d'Eldoria</title>
  <desc>Topographie du sanctuaire rayonnant depuis le Village central vers cinq territoires (ruines squelettes au nord-ouest, bois loups au nord-est, forêt gobelin au sud-est, champs slimes au sud, cavernes ogres au sud-ouest) puis, au nord lointain, le donjon de Mordrak. Les médaillons portent la créature emblématique de chaque territoire, extraite de public/banner/bestiaire-hero.svg.</desc>

  <defs>
    <!-- ===== Shared gradient set (matches sceau-capot + carres-savoir) ===== -->
    <linearGradient id="cmGold" x1="0" y1="0" x2="0" y2="1">
      <stop offset="0%" stop-color="#fff4c2"/><stop offset="50%" stop-color="#f6d97c"/><stop offset="100%" stop-color="#a07c3a"/>
    </linearGradient>
    <linearGradient id="cmParch" x1="0" y1="0" x2="0" y2="1">
      <stop offset="0%" stop-color="#1a0838"/><stop offset="100%" stop-color="#3a2412"/>
    </linearGradient>
    <linearGradient id="cmDark" x1="0" y1="0" x2="0" y2="1">
      <stop offset="0%" stop-color="#1a0e2e"/><stop offset="100%" stop-color="#3a2412"/>
    </linearGradient>
    <radialGradient id="cmCenterGlow" cx="0.5" cy="0.5" r="0.5">
      <stop offset="0%" stop-color="#fff4c2" stop-opacity="0.85"/>
      <stop offset="55%" stop-color="#f6d97c" stop-opacity="0.25"/>
      <stop offset="100%" stop-color="#f6d97c" stop-opacity="0"/>
    </radialGradient>
    <radialGradient id="cmBossAura" cx="0.5" cy="0.5" r="0.5">
      <stop offset="0%" stop-color="#ff3344" stop-opacity="0.65"/>
      <stop offset="100%" stop-color="#ff3344" stop-opacity="0"/>
    </radialGradient>
    <radialGradient id="cmMordrakBg" cx="0.5" cy="0.5" r="0.5">
      <stop offset="0%" stop-color="#3a2060"/>
      <stop offset="65%" stop-color="#241040"/>
      <stop offset="100%" stop-color="#1a0838"/>
    </radialGradient>
    <radialGradient id="cmSlimeGlow" cx="0.5" cy="0.5" r="0.5">
      <stop offset="0%" stop-color="#5fd35f"/><stop offset="100%" stop-color="#3a8a3a" stop-opacity="0"/>
    </radialGradient>
    <filter id="cmBlur"><feGaussianBlur stdDeviation="1.4"/></filter>

    <!-- ============================================================== -->
    <!-- CREATURE PORTRAIT SYMBOLS (verbatim from bestiaire-hero.svg)   -->
    <!-- ============================================================== -->

    <symbol id="artSlime" viewBox="-15 50 90 110">
      <circle cx="30" cy="100" r="55" fill="url(#cmSlimeGlow)" opacity="0.6">
        <animate attributeName="r" values="50;60;50" dur="2s" repeatCount="indefinite"/>
      </circle>
      <ellipse cx="30" cy="100" rx="38" ry="40" fill="#5fd35f" opacity="0.85"/>
      <ellipse cx="30" cy="90" rx="30" ry="10" fill="#fff" opacity="0.6"/>
      <ellipse cx="20" cy="98" rx="6" ry="9" fill="#1a1a1a"/>
      <ellipse cx="40" cy="98" rx="6" ry="9" fill="#1a1a1a"/>
      <ellipse cx="30" cy="120" rx="4" ry="2" fill="#1a1a1a"/>
    </symbol>

    <symbol id="artGoblin" viewBox="-10 22 80 80">
      <polygon points="6,52 18,32 22,60" fill="#5a8a3a" stroke="#3a5a1a" stroke-width="0.6"/>
      <polygon points="54,52 42,32 38,60" fill="#5a8a3a" stroke="#3a5a1a" stroke-width="0.6"/>
      <polygon points="10,46 16,38 18,52" fill="#7aa55a"/>
      <polygon points="50,46 44,38 42,52" fill="#7aa55a"/>
      <ellipse cx="30" cy="65" rx="24" ry="26" fill="#6a9a4a"/>
      <ellipse cx="30" cy="62" rx="22" ry="22" fill="#7aa55a"/>
      <ellipse cx="20" cy="72" rx="3" ry="5" fill="#4a7a2a" opacity="0.5"/>
      <ellipse cx="40" cy="72" rx="3" ry="5" fill="#4a7a2a" opacity="0.5"/>
      <ellipse cx="22" cy="58" rx="3.5" ry="6" fill="#f4d35a"/>
      <ellipse cx="22" cy="58" rx="1.5" ry="4.5" fill="#1a1a1a"/>
      <ellipse cx="38" cy="58" rx="3.5" ry="6" fill="#f4d35a"/>
      <ellipse cx="38" cy="58" rx="1.5" ry="4.5" fill="#1a1a1a"/>
      <polygon points="28,72 32,72 30,77" fill="#3a5a1a"/>
      <path d="M22,82 Q30,90 38,82" fill="none" stroke="#3a2412" stroke-width="2"/>
      <polygon points="29,84 31,84 30,91" fill="#fff"/>
    </symbol>

    <symbol id="artLoup" viewBox="-5 30 115 80">
      <ellipse cx="68" cy="85" rx="22" ry="22" fill="#7a7a7a"/>
      <polygon points="55,70 56,52 68,72" fill="#5a5a5a"/>
      <polygon points="58,68 59,60 64,68" fill="#a87a7a"/>
      <polygon points="74,62 80,46 86,64" fill="#5a5a5a"/>
      <polygon points="76,64 80,54 84,66" fill="#a87a7a"/>
      <polygon points="78,90 102,98 98,108 78,104" fill="#8a8a8a"/>
      <ellipse cx="102" cy="103" rx="4" ry="3" fill="#1a1a1a"/>
      <path d="M88,108 Q94,114 100,108" fill="none" stroke="#1a1a1a" stroke-width="1.5"/>
      <path d="M92,110 Q94,114 96,110" fill="#c2563a" opacity="0.7"/>
      <circle cx="68" cy="82" r="3.5" fill="#fbbf24">
        <animate attributeName="opacity" values="0.6;1;0.6" dur="1.6s" repeatCount="indefinite"/>
      </circle>
      <circle cx="68" cy="82" r="1.5" fill="#1a1a1a"/>
    </symbol>

    <symbol id="artSquelette" viewBox="-10 28 80 60">
      <ellipse cx="35" cy="52" rx="24" ry="24" fill="#e8e8e8" stroke="#a0a0a0" stroke-width="0.6"/>
      <ellipse cx="27" cy="50" rx="6" ry="7" fill="#0a0a0a"/>
      <ellipse cx="43" cy="50" rx="6" ry="7" fill="#0a0a0a"/>
      <circle cx="27" cy="50" r="3" fill="#c2563a">
        <animate attributeName="opacity" values="0.5;1;0.5" dur="1.4s" repeatCount="indefinite"/>
      </circle>
      <circle cx="43" cy="50" r="3" fill="#c2563a">
        <animate attributeName="opacity" values="0.5;1;0.5" dur="1.4s" begin="0.3s" repeatCount="indefinite"/>
      </circle>
      <polygon points="33,58 37,58 35,63" fill="#0a0a0a"/>
      <rect x="26" y="68" width="18" height="6" fill="#f0f0f0" stroke="#a0a0a0" stroke-width="0.4"/>
      <line x1="29" y1="68" x2="29" y2="74" stroke="#a0a0a0" stroke-width="0.4"/>
      <line x1="32" y1="68" x2="32" y2="74" stroke="#a0a0a0" stroke-width="0.4"/>
      <line x1="35" y1="68" x2="35" y2="74" stroke="#a0a0a0" stroke-width="0.4"/>
      <line x1="38" y1="68" x2="38" y2="74" stroke="#a0a0a0" stroke-width="0.4"/>
      <line x1="41" y1="68" x2="41" y2="74" stroke="#a0a0a0" stroke-width="0.4"/>
    </symbol>

    <symbol id="artOgre" viewBox="-15 18 100 100">
      <ellipse cx="50" cy="60" rx="34" ry="28" fill="#6a7a4a"/>
      <path d="M16,46 Q50,38 84,46 L82,55 Q50,52 18,55 Z" fill="#3a2412"/>
      <circle cx="38" cy="58" r="5" fill="#ff3344">
        <animate attributeName="opacity" values="0.5;1;0.5" dur="1.2s" repeatCount="indefinite"/>
      </circle>
      <circle cx="62" cy="58" r="5" fill="#ff3344">
        <animate attributeName="opacity" values="0.5;1;0.5" dur="1.2s" begin="0.3s" repeatCount="indefinite"/>
      </circle>
      <circle cx="38" cy="58" r="2" fill="#1a1a1a"/>
      <circle cx="62" cy="58" r="2" fill="#1a1a1a"/>
      <path d="M30,76 Q50,84 70,76" fill="none" stroke="#3a2412" stroke-width="2.5"/>
      <polygon points="34,76 40,76 37,90" fill="#fff" stroke="#a0a0a0" stroke-width="0.3"/>
      <polygon points="60,76 66,76 63,90" fill="#fff" stroke="#a0a0a0" stroke-width="0.3"/>
    </symbol>

  </defs>

  <!-- ===== BACKDROP + FRAME ===== -->
  <rect width="1100" height="720" rx="14" fill="url(#cmParch)"/>
  <rect x="6" y="6" width="1088" height="708" fill="none" stroke="url(#cmGold)" stroke-width="2" opacity="0.6" rx="12"/>
  <rect x="14" y="14" width="1072" height="692" fill="none" stroke="#f6d97c" stroke-width="0.5" opacity="0.4" rx="10"/>
  <text x="20" y="40" font-family="Georgia, serif" font-size="20" fill="#a07c3a">❦</text>
  <text x="1080" y="40" font-family="Georgia, serif" font-size="20" fill="#a07c3a" text-anchor="end">❧</text>
  <text x="20" y="702" font-family="Georgia, serif" font-size="20" fill="#a07c3a">❧</text>
  <text x="1080" y="702" font-family="Georgia, serif" font-size="20" fill="#a07c3a" text-anchor="end">❦</text>

  <!-- ===== EYEBROW HEADER ===== -->
  <g transform="translate(550 28)" text-anchor="middle">
    <ellipse cx="0" cy="6" rx="340" ry="14" fill="url(#cmCenterGlow)" opacity="0.45"/>
    <text font-family="Georgia, serif" font-size="11" fill="#f6d97c" letter-spacing="6" font-weight="bold">◆  CARTOGRAPHIE DU SANCTUAIRE  ◆</text>
  </g>
  <text x="550" y="50" text-anchor="middle" font-family="Georgia, serif" font-size="9" fill="#a07c3a" font-style="italic" letter-spacing="3">cinq territoires &amp; au nord, le Seigneur des Ombres</text>

  <!-- ===== ROTATING RINGS AROUND VILLAGE ===== -->
  <g transform="translate(550 380)">
    <g>
      <circle r="178" fill="none" stroke="url(#cmGold)" stroke-width="2" stroke-dasharray="3 8" opacity="0.55"/>
      <animateTransform attributeName="transform" type="rotate" values="0;360" dur="48s" repeatCount="indefinite"/>
    </g>
    <g>
      <circle r="140" fill="none" stroke="#a07c3a" stroke-width="0.8" stroke-dasharray="2 6" opacity="0.45"/>
      <animateTransform attributeName="transform" type="rotate" values="360;0" dur="72s" repeatCount="indefinite"/>
    </g>
  </g>

  <!-- ===== MORDRAK BOSS EMBLEM ===== -->
  <!-- Compose medallion in two passes: filled disc + cream halo, then clipped art on top, then gold ring last so it stays clean -->
  <g transform="translate(550 175)">
    <circle r="58" fill="url(#cmMordrakBg)"/>
    <circle r="52" fill="none" stroke="#f6d97c" stroke-width="0.5" opacity="0.5"/>
    <!-- Mordrak skull inlined directly (no <use> to avoid rendering bugs in GitHub/img contexts) -->
    <g>
      <!-- Subtle red aura behind everything -->
      <circle r="50" fill="#ff3344" opacity="0.2">
        <animate attributeName="r" values="44;54;44" dur="2.2s" repeatCount="indefinite"/>
        <animate attributeName="opacity" values="0.1;0.3;0.1" dur="2.2s" repeatCount="indefinite"/>
      </circle>
      <!-- Cloak / robe base -->
      <path d="M-32,10 Q0,48 32,10 L32,48 L-32,48 Z" fill="#4a1d6e"/>
      <path d="M-32,10 Q0,48 32,10" fill="none" stroke="#5a2d8e" stroke-width="1.5"/>
      <!-- Shoulder mantle -->
      <path d="M-28,8 Q-36,18 -32,32" fill="none" stroke="#3a0a2e" stroke-width="4" stroke-linecap="round"/>
      <path d="M28,8 Q36,18 32,32" fill="none" stroke="#3a0a2e" stroke-width="4" stroke-linecap="round"/>
      <!-- Head / hood silhouette -->
      <ellipse cx="0" cy="4" rx="28" ry="32" fill="#2a0a1a"/>
      <ellipse cx="0" cy="4" rx="28" ry="32" fill="none" stroke="#ff3344" stroke-width="1.2" opacity="0.6"/>
      <!-- Skull face -->
      <ellipse cx="0" cy="-5" rx="17" ry="19" fill="#f5e6c8"/>
      <!-- Glowing red eyes -->
      <ellipse cx="-7" cy="-7" rx="4.5" ry="5.5" fill="#ff3344">
        <animate attributeName="opacity" values="0.5;1;0.5" dur="1.1s" repeatCount="indefinite"/>
      </ellipse>
      <ellipse cx="7" cy="-7" rx="4.5" ry="5.5" fill="#ff3344">
        <animate attributeName="opacity" values="0.5;1;0.5" dur="1.1s" begin="0.3s" repeatCount="indefinite"/>
      </ellipse>
      <!-- pupils -->
      <ellipse cx="-7" cy="-7" rx="1.5" ry="2.5" fill="#1a0a0a"/>
      <ellipse cx="7" cy="-7" rx="1.5" ry="2.5" fill="#1a0a0a"/>
      <!-- Nose cavity -->
      <polygon points="-2.5,3 2.5,3 0,8" fill="#2a0a1a"/>
      <!-- Mouth / teeth -->
      <line x1="-7" y1="11" x2="7" y2="11" stroke="#2a0a1a" stroke-width="1.5"/>
      <line x1="-4" y1="11" x2="-4" y2="15" stroke="#2a0a1a" stroke-width="1"/>
      <line x1="-1" y1="11" x2="-1" y2="15" stroke="#2a0a1a" stroke-width="1"/>
      <line x1="2" y1="11" x2="2" y2="15" stroke="#2a0a1a" stroke-width="1"/>
      <line x1="5" y1="11" x2="5" y2="15" stroke="#2a0a1a" stroke-width="1"/>
      <!-- Horns -->
      <path d="M-14,-18 L-22,-34 L-10,-22 Z" fill="#a07c3a"/>
      <path d="M14,-18 L22,-34 L10,-22 Z" fill="#a07c3a"/>
    </g>
    <circle r="58" fill="none" stroke="url(#cmGold)" stroke-width="2.5"/>
  </g>
  <text x="550" y="100" text-anchor="middle" font-family="Georgia, serif" font-size="12" font-weight="bold" fill="#ff8a96" letter-spacing="4">⚔  LE DONJON DE MORDRAK  ⚔</text>
  <text x="550" y="270" text-anchor="middle" font-family="Georgia, serif" font-size="9" fill="#ff5468" letter-spacing="1.5" font-style="italic">PV 600 · ATQ 40 · ✦✦✦</text>

  <!-- ===== GOLD RADIAL SPOKES (village edge → biome edge, full connection — no floating gaps) ===== -->
  <!-- Each spoke starts at the village gold ring (r=55) and ends at the biome gold ring (r=47),
       computed along the center-to-center vector so it visibly bridges the two medallions.
       The S spoke starts at y=435, safely below the embedded village labels (y=389/400/410). -->
  <line x1="507" y1="345" x2="476" y2="320" stroke="url(#cmGold)" stroke-width="2" opacity="0.7"/>          <!-- NW -->
  <line x1="593" y1="345" x2="624" y2="320" stroke="url(#cmGold)" stroke-width="2" opacity="0.7"/>          <!-- NE -->
  <line x1="593" y1="415" x2="624" y2="440" stroke="url(#cmGold)" stroke-width="2" opacity="0.7"/>          <!-- SE -->
  <line x1="507" y1="415" x2="476" y2="440" stroke="url(#cmGold)" stroke-width="2" opacity="0.7"/>          <!-- SW -->
  <line x1="550" y1="435" x2="550" y2="463" stroke="url(#cmGold)" stroke-width="2" opacity="0.7"/>          <!-- S  -->

  <!-- ============================================================== -->
  <!-- 5 BIOME MEDALLIONS (creature art tightened into upper half so   -->
  <!-- labels at y=18 / y=29 / y=39 sit cleanly below)                -->
  <!-- ============================================================== -->

  <!-- NW: RUINES SQUELETTES -->
  <g transform="translate(440 290)">
    <circle r="46" fill="#fff4c2" stroke="url(#cmGold)" stroke-width="2"/>
    <circle r="40" fill="none" stroke="#a07c3a" stroke-width="0.6" opacity="0.6"/>
    <use href="#artSquelette" x="-27" y="-34" width="48" height="36"/>
    <text x="0" y="21" text-anchor="middle" font-family="Georgia, serif" font-size="9" font-weight="900" fill="#a13a2a" letter-spacing="1">★★★★☆</text>
    <text x="0" y="32" text-anchor="middle" font-family="Georgia, serif" font-size="7" font-weight="bold" fill="#3a2412" letter-spacing="0.5">GUERRIER SQUELETTE</text>
    <text x="0" y="42" text-anchor="middle" font-family="Georgia, serif" font-size="8" fill="#5a3a1f" font-style="italic">Ruines nord-ouest</text>
    <animate attributeName="opacity" values="0.85;1;0.85" dur="3.6s" begin="0s" repeatCount="indefinite"/>
  </g>

  <!-- NE: BOIS LOUPS -->
  <g transform="translate(660 290)">
    <circle r="46" fill="#fff4c2" stroke="url(#cmGold)" stroke-width="2"/>
    <circle r="40" fill="none" stroke="#a07c3a" stroke-width="0.6" opacity="0.6"/>
    <use href="#artLoup" x="-34" y="-40" width="54" height="38"/>
    <text x="0" y="21" text-anchor="middle" font-family="Georgia, serif" font-size="9" font-weight="900" fill="#a13a2a" letter-spacing="1">★★★☆☆</text>
    <text x="0" y="32" text-anchor="middle" font-family="Georgia, serif" font-size="9" font-weight="bold" fill="#3a2412" letter-spacing="2">LOUPS</text>
    <text x="0" y="42" text-anchor="middle" font-family="Georgia, serif" font-size="8" fill="#5a3a1f" font-style="italic">Bois nord-est</text>
    <animate attributeName="opacity" values="0.85;1;0.85" dur="3.6s" begin="0.6s" repeatCount="indefinite"/>
  </g>

  <!-- SE: FORÊT GOBELINS -->
  <g transform="translate(660 470)">
    <circle r="46" fill="#fff4c2" stroke="url(#cmGold)" stroke-width="2"/>
    <circle r="40" fill="none" stroke="#a07c3a" stroke-width="0.6" opacity="0.6"/>
    <use href="#artGoblin" x="-21" y="-38" width="42" height="42"/>
    <text x="0" y="21" text-anchor="middle" font-family="Georgia, serif" font-size="9" font-weight="900" fill="#a13a2a" letter-spacing="1">★★☆☆☆</text>
    <text x="0" y="32" text-anchor="middle" font-family="Georgia, serif" font-size="9" font-weight="bold" fill="#3a2412" letter-spacing="2">GOBELINS</text>
    <text x="0" y="42" text-anchor="middle" font-family="Georgia, serif" font-size="8" fill="#5a3a1f" font-style="italic">Forêt sud-est</text>
    <animate attributeName="opacity" values="0.85;1;0.85" dur="3.6s" begin="1.2s" repeatCount="indefinite"/>
  </g>

  <!-- S: CHAMPS SLIMES -->
  <g transform="translate(550 510)">
    <circle r="46" fill="#fff4c2" stroke="url(#cmGold)" stroke-width="2"/>
    <circle r="40" fill="none" stroke="#a07c3a" stroke-width="0.6" opacity="0.6"/>
    <use href="#artSlime" x="-18" y="-40" width="36" height="44"/>
    <text x="0" y="21" text-anchor="middle" font-family="Georgia, serif" font-size="9" font-weight="900" fill="#a13a2a" letter-spacing="1">★☆☆☆☆</text>
    <text x="0" y="32" text-anchor="middle" font-family="Georgia, serif" font-size="9" font-weight="bold" fill="#3a2412" letter-spacing="2">SLIMES</text>
    <text x="0" y="42" text-anchor="middle" font-family="Georgia, serif" font-size="8" fill="#5a3a1f" font-style="italic">Champs du sud</text>
    <animate attributeName="opacity" values="0.85;1;0.85" dur="3.6s" begin="1.8s" repeatCount="indefinite"/>
  </g>

  <!-- SW: CAVERNES OGRES -->
  <g transform="translate(440 470)">
    <circle r="46" fill="#fff4c2" stroke="url(#cmGold)" stroke-width="2"/>
    <circle r="40" fill="none" stroke="#a07c3a" stroke-width="0.6" opacity="0.6"/>
    <use href="#artOgre" x="-29" y="-36" width="44" height="44"/>
    <text x="0" y="21" text-anchor="middle" font-family="Georgia, serif" font-size="9" font-weight="900" fill="#a13a2a" letter-spacing="1">★★★★★</text>
    <text x="0" y="32" text-anchor="middle" font-family="Georgia, serif" font-size="9" font-weight="bold" fill="#3a2412" letter-spacing="2">OGRES</text>
    <text x="0" y="42" text-anchor="middle" font-family="Georgia, serif" font-size="8" fill="#5a3a1f" font-style="italic">Cavernes sud-ouest</text>
    <animate attributeName="opacity" values="0.85;1;0.85" dur="3.6s" begin="2.4s" repeatCount="indefinite"/>
  </g>

  <!-- ===== VILLAGE EMBLEM (labels embedded INSIDE the inner dark circle — no more overlap with SW/SE medallions) ===== -->
  <g transform="translate(550 380)">
    <circle r="56" fill="url(#cmCenterGlow)">
      <animate attributeName="r" values="50;62;50" dur="3.6s" repeatCount="indefinite"/>
      <animate attributeName="opacity" values="0.5;0.95;0.5" dur="3.6s" repeatCount="indefinite"/>
    </circle>
    <circle r="54" fill="#fff4c2" stroke="url(#cmGold)" stroke-width="2.5"/>
    <circle r="48" fill="none" stroke="#a07c3a" stroke-width="0.7" opacity="0.7"/>
    <circle r="42" fill="#1a0838" stroke="#a07c3a" stroke-width="0.8"/>
    <!-- Building icon: smaller and pulled up so labels below have breathing room -->
    <g transform="translate(0 -18) scale(0.6)" fill="#a07c3a" stroke="#3a2412" stroke-width="0.6">
      <polygon points="-22,12 -22,-2 -8,-12 6,-2 6,12"/>
      <rect x="-22" y="12" width="28" height="6"/>
      <polygon points="-4,18 -4,8 14,8 14,18 18,8 22,18"/>
      <rect x="20" y="-6" width="10" height="14"/>
      <polygon points="20,-6 25,-14 30,-6"/>
    </g>
    <!-- Embedded labels (stacked below the building icon, all within the inner dark r=42) -->
    <text x="0" y="9" text-anchor="middle" font-family="Georgia, serif" font-size="10" font-weight="bold" fill="#f6d97c" letter-spacing="1">LE VILLAGE</text>
    <text x="0" y="20" text-anchor="middle" font-family="Georgia, serif" font-size="8" font-weight="bold" fill="#f6d97c" letter-spacing="2">CENTRAL</text>
    <text x="0" y="30" text-anchor="middle" font-family="Georgia, serif" font-size="6" fill="#a07c3a" font-style="italic" letter-spacing="0.5">hub · auberge</text>
  </g>

  <!-- ===== BOTTOM LEGEND BAR ===== -->
  <g transform="translate(550 660)">
    <rect x="-470" y="-15" width="940" height="30" rx="5" fill="url(#cmDark)" stroke="url(#cmGold)" stroke-width="1.2" opacity="0.95"/>
    <rect x="-464" y="-10" width="928" height="20" rx="3" fill="none" stroke="#f6d97c" stroke-width="0.4" opacity="0.5"/>
    <text x="0" y="-2" text-anchor="middle" font-family="Georgia, serif" font-size="9" fill="#f6d97c" letter-spacing="4" font-weight="bold">◈ ÉCHELLE DE DIFFICULTÉ ◈</text>
    <g font-family="Georgia, serif" font-size="9">
      <text x="-420" y="11" text-anchor="middle" fill="#5fd35f">★</text>
      <text x="-385" y="11" text-anchor="end" fill="#cfb88a">slimes</text>
      <text x="-265" y="11" text-anchor="middle" fill="#c0854a">★★</text>
      <text x="-220" y="11" text-anchor="end" fill="#cfb88a">gobelins</text>
      <text x="-100" y="11" text-anchor="middle" fill="#9aa3b0">★★★</text>
      <text x="-50"  y="11" text-anchor="end" fill="#cfb88a">loups</text>
      <text x="80"   y="11" text-anchor="middle" fill="#f5f5f5">★★★★</text>
      <text x="135"  y="11" text-anchor="end" fill="#cfb88a">squelettes</text>
      <text x="270"  y="11" text-anchor="middle" fill="#b07ac8">★★★★★</text>
      <text x="325"  y="11" text-anchor="end" fill="#cfb88a">ogres</text>
      <text x="400"  y="11" text-anchor="middle" fill="#ff3344">✦✦✦</text>
      <text x="440"  y="11" text-anchor="end" fill="#cfb88a">Mordrak</text>
    </g>
  </g>
</svg>
