<svg xmlns="http://www.w3.org/2000/svg" aria-label="Carte du monde d'Eldoria — cinq territoires et le donjon de Mordrak, reliés au Village central" viewBox="0 0 1100 720"><title>Carte du monde d&apos;Eldoria</title><desc>Topographie du sanctuaire rayonnant depuis le Village central vers cinq territoires (ruines squelettes au nord-ouest, bois loups au nord-est, forêt gobelin au sud-est, champs slimes au sud, cavernes ogres au sud-ouest) puis, au nord lointain, le donjon de Mordrak. Les médaillons portent la créature emblématique de chaque territoire, extraite de public/banner/bestiaire-hero.svg.</desc><defs><symbol id="i" viewBox="-15 50 90 110"><circle cx="30" cy="100" r="55" fill="url(#a)" opacity=".6"><animate attributeName="r" dur="2s" repeatCount="indefinite" values="50;60;50"/></circle><ellipse cx="30" cy="100" fill="#5fd35f" opacity=".85" rx="38" ry="40"/><ellipse cx="30" cy="90" fill="#fff" opacity=".6" rx="30" ry="10"/><ellipse cx="20" cy="98" fill="#1a1a1a" rx="6" ry="9"/><ellipse cx="40" cy="98" fill="#1a1a1a" rx="6" ry="9"/><ellipse cx="30" cy="120" fill="#1a1a1a" rx="4" ry="2"/></symbol><symbol id="h" viewBox="-10 22 80 80"><polygon fill="#5a8a3a" stroke="#3a5a1a" stroke-width=".6" points="6,52 18,32 22,60"/><polygon fill="#5a8a3a" stroke="#3a5a1a" stroke-width=".6" points="54,52 42,32 38,60"/><polygon fill="#7aa55a" points="10,46 16,38 18,52"/><polygon fill="#7aa55a" points="50,46 44,38 42,52"/><ellipse cx="30" cy="65" fill="#6a9a4a" rx="24" ry="26"/><circle cx="30" cy="62" r="22" fill="#7aa55a"/><ellipse cx="20" cy="72" fill="#4a7a2a" opacity=".5" rx="3" ry="5"/><ellipse cx="40" cy="72" fill="#4a7a2a" opacity=".5" rx="3" ry="5"/><ellipse cx="22" cy="58" fill="#f4d35a" rx="3.5" ry="6"/><ellipse cx="22" cy="58" fill="#1a1a1a" rx="1.5" ry="4.5"/><ellipse cx="38" cy="58" fill="#f4d35a" rx="3.5" ry="6"/><ellipse cx="38" cy="58" fill="#1a1a1a" rx="1.5" ry="4.5"/><polygon fill="#3a5a1a" points="28,72 32,72 30,77"/><path fill="none" stroke="#3a2412" stroke-width="2" d="M22 82q8 8 16 0"/><polygon fill="#fff" points="29,84 31,84 30,91"/></symbol><symbol id="g" viewBox="-5 30 115 80"><circle cx="68" cy="85" r="22" fill="#7a7a7a"/><polygon fill="#5a5a5a" points="55,70 56,52 68,72"/><polygon fill="#a87a7a" points="58,68 59,60 64,68"/><polygon fill="#5a5a5a" points="74,62 80,46 86,64"/><polygon fill="#a87a7a" points="76,64 80,54 84,66"/><polygon fill="#8a8a8a" points="78,90 102,98 98,108 78,104"/><ellipse cx="102" cy="103" fill="#1a1a1a" rx="4" ry="3"/><path fill="none" stroke="#1a1a1a" stroke-width="1.5" d="M88 108q6 6 12 0"/><path fill="#c2563a" d="M92 110q2 4 4 0" opacity=".7"/><circle cx="68" cy="82" r="3.5" fill="#fbbf24"><animate attributeName="opacity" dur="1.6s" repeatCount="indefinite" values="0.6;1;0.6"/></circle><circle cx="68" cy="82" r="1.5" fill="#1a1a1a"/></symbol><symbol id="f" viewBox="-10 28 80 60"><circle cx="35" cy="52" r="24" fill="#e8e8e8" stroke="#a0a0a0" stroke-width=".6"/><ellipse cx="27" cy="50" fill="#0a0a0a" rx="6" ry="7"/><ellipse cx="43" cy="50" fill="#0a0a0a" rx="6" ry="7"/><circle cx="27" cy="50" r="3" fill="#c2563a"><animate attributeName="opacity" dur="1.4s" repeatCount="indefinite" values="0.5;1;0.5"/></circle><circle cx="43" cy="50" r="3" fill="#c2563a"><animate attributeName="opacity" begin="0.3s" dur="1.4s" repeatCount="indefinite" values="0.5;1;0.5"/></circle><polygon fill="#0a0a0a" points="33,58 37,58 35,63"/><rect width="18" height="6" x="26" y="68" fill="#f0f0f0" stroke="#a0a0a0" stroke-width=".4"/><line x1="29" x2="29" y1="68" y2="74" stroke="#a0a0a0" stroke-width=".4"/><line x1="32" x2="32" y1="68" y2="74" stroke="#a0a0a0" stroke-width=".4"/><line x1="35" x2="35" y1="68" y2="74" stroke="#a0a0a0" stroke-width=".4"/><line x1="38" x2="38" y1="68" y2="74" stroke="#a0a0a0" stroke-width=".4"/><line x1="41" x2="41" y1="68" y2="74" stroke="#a0a0a0" stroke-width=".4"/></symbol><symbol id="j" viewBox="-15 18 100 100"><ellipse cx="50" cy="60" fill="#6a7a4a" rx="34" ry="28"/><path fill="#3a2412" d="M16 46q34-8 68 0l-2 9q-32-3-64 0Z"/><circle cx="38" cy="58" r="5" fill="#f34"><animate attributeName="opacity" dur="1.2s" repeatCount="indefinite" values="0.5;1;0.5"/></circle><circle cx="62" cy="58" r="5" fill="#f34"><animate attributeName="opacity" begin="0.3s" dur="1.2s" repeatCount="indefinite" values="0.5;1;0.5"/></circle><circle cx="38" cy="58" r="2" fill="#1a1a1a"/><circle cx="62" cy="58" r="2" fill="#1a1a1a"/><path fill="none" stroke="#3a2412" stroke-width="2.5" d="M30 76q20 8 40 0"/><polygon fill="#fff" stroke="#a0a0a0" stroke-width=".3" points="34,76 40,76 37,90"/><polygon fill="#fff" stroke="#a0a0a0" stroke-width=".3" points="60,76 66,76 63,90"/></symbol><radialGradient id="d" cx=".5" cy=".5" r=".5"><stop offset="0%" stop-color="#fff4c2" stop-opacity=".85"/><stop offset="55%" stop-color="#f6d97c" stop-opacity=".25"/><stop offset="100%" stop-color="#f6d97c" stop-opacity="0"/></radialGradient><radialGradient id="e" cx=".5" cy=".5" r=".5"><stop offset="0%" stop-color="#3a2060"/><stop offset="65%" stop-color="#241040"/><stop offset="100%" stop-color="#1a0838"/></radialGradient><radialGradient id="a" cx=".5" cy=".5" r=".5"><stop offset="0%" stop-color="#5fd35f"/><stop offset="100%" stop-color="#3a8a3a" stop-opacity="0"/></radialGradient><linearGradient id="c" x1="0" x2="0" y1="0" y2="1"><stop offset="0%" stop-color="#fff4c2"/><stop offset="50%" stop-color="#f6d97c"/><stop offset="100%" stop-color="#a07c3a"/></linearGradient><linearGradient id="b" x1="0" x2="0" y1="0" y2="1"><stop offset="0%" stop-color="#1a0838"/><stop offset="100%" stop-color="#3a2412"/></linearGradient><linearGradient id="k" x1="0" x2="0" y1="0" y2="1"><stop offset="0%" stop-color="#1a0e2e"/><stop offset="100%" stop-color="#3a2412"/></linearGradient></defs><rect width="1100" height="720" fill="url(#b)" rx="14"/><rect width="1088" height="708" x="6" y="6" fill="none" stroke="url(#c)" stroke-width="2" opacity=".6" rx="12"/><rect width="1072" height="692" x="14" y="14" fill="none" stroke="#f6d97c" stroke-width=".5" opacity=".4" rx="10"/><text x="20" y="40" fill="#a07c3a" font-family="Georgia, serif" font-size="20">❦</text><text x="1080" y="40" fill="#a07c3a" font-family="Georgia, serif" font-size="20" text-anchor="end">❧</text><text x="20" y="702" fill="#a07c3a" font-family="Georgia, serif" font-size="20">❧</text><text x="1080" y="702" fill="#a07c3a" font-family="Georgia, serif" font-size="20" text-anchor="end">❦</text><g text-anchor="middle" transform="translate(550 28)"><ellipse cy="6" fill="url(#d)" opacity=".45" rx="340" ry="14"/><text fill="#f6d97c" font-family="Georgia, serif" font-size="11" font-weight="bold" letter-spacing="6">◆  CARTOGRAPHIE DU SANCTUAIRE  ◆</text></g><text x="550" y="50" fill="#a07c3a" font-family="Georgia, serif" font-size="9" font-style="italic" letter-spacing="3" text-anchor="middle">cinq territoires &amp; au nord, le Seigneur des Ombres</text><g transform="translate(550 380)"><circle r="178" fill="none" stroke="url(#c)" stroke-dasharray="3 8" stroke-width="2" opacity=".55"/><animateTransform attributeName="transform" dur="48s" repeatCount="indefinite" type="rotate" values="0;360"/></g><g transform="translate(550 380)"><circle r="140" fill="none" stroke="#a07c3a" stroke-dasharray="2 6" stroke-width=".8" opacity=".45"/><animateTransform attributeName="transform" dur="72s" repeatCount="indefinite" type="rotate" values="360;0"/></g><g transform="translate(550 175)"><circle r="58" fill="url(#e)"/><circle r="52" fill="none" stroke="#f6d97c" stroke-width=".5" opacity=".5"/><circle r="50" fill="#f34" opacity=".2"><animate attributeName="r" dur="2.2s" repeatCount="indefinite" values="44;54;44"/><animate attributeName="opacity" dur="2.2s" repeatCount="indefinite" values="0.1;0.3;0.1"/></circle><path fill="#4a1d6e" d="M-32 10q32 38 64 0v38h-64Z"/><path fill="none" stroke="#5a2d8e" stroke-width="1.5" d="M-32 10q32 38 64 0"/><path fill="none" stroke="#3a0a2e" stroke-linecap="round" stroke-width="4" d="M-28 8q-8 10-4 24"/><path fill="none" stroke="#3a0a2e" stroke-linecap="round" stroke-width="4" d="M28 8q8 10 4 24"/><ellipse cy="4" fill="#2a0a1a" rx="28" ry="32"/><ellipse cy="4" fill="none" stroke="#f34" stroke-width="1.2" opacity=".6" rx="28" ry="32"/><ellipse cy="-5" fill="#f5e6c8" rx="17" ry="19"/><ellipse cx="-7" cy="-7" fill="#f34" rx="4.5" ry="5.5"><animate attributeName="opacity" dur="1.1s" repeatCount="indefinite" values="0.5;1;0.5"/></ellipse><ellipse cx="7" cy="-7" fill="#f34" rx="4.5" ry="5.5"><animate attributeName="opacity" begin="0.3s" dur="1.1s" repeatCount="indefinite" values="0.5;1;0.5"/></ellipse><ellipse cx="-7" cy="-7" fill="#1a0a0a" rx="1.5" ry="2.5"/><ellipse cx="7" cy="-7" fill="#1a0a0a" rx="1.5" ry="2.5"/><polygon fill="#2a0a1a" points="-2.5,3 2.5,3 0,8"/><line x1="-7" x2="7" y1="11" y2="11" stroke="#2a0a1a" stroke-width="1.5"/><line x1="-4" x2="-4" y1="11" y2="15" stroke="#2a0a1a"/><line x1="-1" x2="-1" y1="11" y2="15" stroke="#2a0a1a"/><line x1="2" x2="2" y1="11" y2="15" stroke="#2a0a1a"/><line x1="5" x2="5" y1="11" y2="15" stroke="#2a0a1a"/><path fill="#a07c3a" d="m-14-18-8-16 12 12Z"/><path fill="#a07c3a" d="m14-18 8-16-12 12Z"/><circle r="58" fill="none" stroke="url(#c)" stroke-width="2.5"/></g><text x="550" y="100" fill="#ff8a96" font-family="Georgia, serif" font-size="12" font-weight="bold" letter-spacing="4" text-anchor="middle">⚔  LE DONJON DE MORDRAK  ⚔</text><text x="550" y="270" fill="#ff5468" font-family="Georgia, serif" font-size="9" font-style="italic" letter-spacing="1.5" text-anchor="middle">PV 600 · ATQ 40 · ✦✦✦</text><line x1="507" x2="476" y1="345" y2="320" stroke="url(#c)" stroke-width="2" opacity=".7"/><line x1="593" x2="624" y1="345" y2="320" stroke="url(#c)" stroke-width="2" opacity=".7"/><line x1="593" x2="624" y1="415" y2="440" stroke="url(#c)" stroke-width="2" opacity=".7"/><line x1="507" x2="476" y1="415" y2="440" stroke="url(#c)" stroke-width="2" opacity=".7"/><line x1="550" x2="550" y1="435" y2="463" stroke="url(#c)" stroke-width="2" opacity=".7"/><g transform="translate(440 290)"><circle r="46" fill="#fff4c2" stroke="url(#c)" stroke-width="2"/><circle r="40" fill="none" stroke="#a07c3a" stroke-width=".6" opacity=".6"/><use width="48" height="36" x="-27" y="-34" href="#f"/><text y="21" fill="#a13a2a" font-family="Georgia, serif" font-size="9" font-weight="900" letter-spacing="1" text-anchor="middle">★★★★☆</text><text y="32" fill="#3a2412" font-family="Georgia, serif" font-size="7" font-weight="bold" letter-spacing=".5" text-anchor="middle">GUERRIER SQUELETTE</text><text y="42" fill="#5a3a1f" font-family="Georgia, serif" font-size="8" font-style="italic" text-anchor="middle">Ruines nord-ouest</text><animate attributeName="opacity" begin="0s" dur="3.6s" repeatCount="indefinite" values="0.85;1;0.85"/></g><g transform="translate(660 290)"><circle r="46" fill="#fff4c2" stroke="url(#c)" stroke-width="2"/><circle r="40" fill="none" stroke="#a07c3a" stroke-width=".6" opacity=".6"/><use width="54" height="38" x="-34" y="-40" href="#g"/><text y="21" fill="#a13a2a" font-family="Georgia, serif" font-size="9" font-weight="900" letter-spacing="1" text-anchor="middle">★★★☆☆</text><text y="32" fill="#3a2412" font-family="Georgia, serif" font-size="9" font-weight="bold" letter-spacing="2" text-anchor="middle">LOUPS</text><text y="42" fill="#5a3a1f" font-family="Georgia, serif" font-size="8" font-style="italic" text-anchor="middle">Bois nord-est</text><animate attributeName="opacity" begin="0.6s" dur="3.6s" repeatCount="indefinite" values="0.85;1;0.85"/></g><g transform="translate(660 470)"><circle r="46" fill="#fff4c2" stroke="url(#c)" stroke-width="2"/><circle r="40" fill="none" stroke="#a07c3a" stroke-width=".6" opacity=".6"/><use width="42" height="42" x="-21" y="-38" href="#h"/><text y="21" fill="#a13a2a" font-family="Georgia, serif" font-size="9" font-weight="900" letter-spacing="1" text-anchor="middle">★★☆☆☆</text><text y="32" fill="#3a2412" font-family="Georgia, serif" font-size="9" font-weight="bold" letter-spacing="2" text-anchor="middle">GOBELINS</text><text y="42" fill="#5a3a1f" font-family="Georgia, serif" font-size="8" font-style="italic" text-anchor="middle">Forêt sud-est</text><animate attributeName="opacity" begin="1.2s" dur="3.6s" repeatCount="indefinite" values="0.85;1;0.85"/></g><g transform="translate(550 510)"><circle r="46" fill="#fff4c2" stroke="url(#c)" stroke-width="2"/><circle r="40" fill="none" stroke="#a07c3a" stroke-width=".6" opacity=".6"/><use width="36" height="44" x="-18" y="-40" href="#i"/><text y="21" fill="#a13a2a" font-family="Georgia, serif" font-size="9" font-weight="900" letter-spacing="1" text-anchor="middle">★☆☆☆☆</text><text y="32" fill="#3a2412" font-family="Georgia, serif" font-size="9" font-weight="bold" letter-spacing="2" text-anchor="middle">SLIMES</text><text y="42" fill="#5a3a1f" font-family="Georgia, serif" font-size="8" font-style="italic" text-anchor="middle">Champs du sud</text><animate attributeName="opacity" begin="1.8s" dur="3.6s" repeatCount="indefinite" values="0.85;1;0.85"/></g><g transform="translate(440 470)"><circle r="46" fill="#fff4c2" stroke="url(#c)" stroke-width="2"/><circle r="40" fill="none" stroke="#a07c3a" stroke-width=".6" opacity=".6"/><use width="44" height="44" x="-29" y="-36" href="#j"/><text y="21" fill="#a13a2a" font-family="Georgia, serif" font-size="9" font-weight="900" letter-spacing="1" text-anchor="middle">★★★★★</text><text y="32" fill="#3a2412" font-family="Georgia, serif" font-size="9" font-weight="bold" letter-spacing="2" text-anchor="middle">OGRES</text><text y="42" fill="#5a3a1f" font-family="Georgia, serif" font-size="8" font-style="italic" text-anchor="middle">Cavernes sud-ouest</text><animate attributeName="opacity" begin="2.4s" dur="3.6s" repeatCount="indefinite" values="0.85;1;0.85"/></g><g transform="translate(550 380)"><circle r="56" fill="url(#d)"><animate attributeName="r" dur="3.6s" repeatCount="indefinite" values="50;62;50"/><animate attributeName="opacity" dur="3.6s" repeatCount="indefinite" values="0.5;0.95;0.5"/></circle><circle r="54" fill="#fff4c2" stroke="url(#c)" stroke-width="2.5"/><circle r="48" fill="none" stroke="#a07c3a" stroke-width=".7" opacity=".7"/><circle r="42" fill="#1a0838" stroke="#a07c3a" stroke-width=".8"/><g fill="#a07c3a" stroke="#3a2412" stroke-width=".6" transform="matrix(.6 0 0 .6 0 -18)"><polygon points="-22,12 -22,-2 -8,-12 6,-2 6,12"/><rect width="28" height="6" x="-22" y="12"/><polygon points="-4,18 -4,8 14,8 14,18 18,8 22,18"/><rect width="10" height="14" x="20" y="-6"/><polygon points="20,-6 25,-14 30,-6"/></g><text y="9" fill="#f6d97c" font-family="Georgia, serif" font-size="10" font-weight="bold" letter-spacing="1" text-anchor="middle">LE VILLAGE</text><text y="20" fill="#f6d97c" font-family="Georgia, serif" font-size="8" font-weight="bold" letter-spacing="2" text-anchor="middle">CENTRAL</text><text y="30" fill="#a07c3a" font-family="Georgia, serif" font-size="6" font-style="italic" letter-spacing=".5" text-anchor="middle">hub · auberge</text></g><g transform="translate(550 660)"><rect width="940" height="30" x="-470" y="-15" fill="url(#k)" stroke="url(#c)" stroke-width="1.2" opacity=".95" rx="5"/><rect width="928" height="20" x="-464" y="-10" fill="none" stroke="#f6d97c" stroke-width=".4" opacity=".5" rx="3"/><text y="-2" fill="#f6d97c" font-family="Georgia, serif" font-size="9" font-weight="bold" letter-spacing="4" text-anchor="middle">◈ ÉCHELLE DE DIFFICULTÉ ◈</text><g font-family="Georgia, serif" font-size="9"><text x="-420" y="11" fill="#5fd35f" text-anchor="middle">★</text><text x="-385" y="11" fill="#cfb88a" text-anchor="end">slimes</text><text x="-265" y="11" fill="#c0854a" text-anchor="middle">★★</text><text x="-220" y="11" fill="#cfb88a" text-anchor="end">gobelins</text><text x="-100" y="11" fill="#9aa3b0" text-anchor="middle">★★★</text><text x="-50" y="11" fill="#cfb88a" text-anchor="end">loups</text><text x="80" y="11" fill="#f5f5f5" text-anchor="middle">★★★★</text><text x="135" y="11" fill="#cfb88a" text-anchor="end">squelettes</text><text x="270" y="11" fill="#b07ac8" text-anchor="middle">★★★★★</text><text x="325" y="11" fill="#cfb88a" text-anchor="end">ogres</text><text x="400" y="11" fill="#f34" text-anchor="middle">✦✦✦</text><text x="440" y="11" fill="#cfb88a" text-anchor="end">Mordrak</text></g></g></svg>