<?xml version="1.0" encoding="UTF-8"?>
<svg viewBox="0 0 1064 244" xmlns="http://www.w3.org/2000/svg" width="100%" style="max-width:1064px">
  <defs>
    <!-- Shared parchment palette reused across all 5 skill cards -->
    <linearGradient id="comParch" x1="0" y1="0" x2="0" y2="1">
      <stop offset="0%" stop-color="#fff4c2"/>
      <stop offset="100%" stop-color="#d8be83"/>
    </linearGradient>
    <linearGradient id="comPlaque" x1="0" y1="0" x2="0" y2="1">
      <stop offset="0%" stop-color="#3a2412"/>
      <stop offset="100%" stop-color="#1a0e2e"/>
    </linearGradient>
    <!-- Element-specific gradients -->
    <radialGradient id="sFire" cx="0.5" cy="0.5" r="0.5">
      <stop offset="0%" stop-color="#fff4a0"/>
      <stop offset="50%" stop-color="#ff5722"/>
      <stop offset="100%" stop-color="#7a1c0a" stop-opacity="0"/>
    </radialGradient>
    <radialGradient id="sHeal" cx="0.5" cy="0.5" r="0.5">
      <stop offset="0%" stop-color="#fff"/>
      <stop offset="50%" stop-color="#a3e635"/>
      <stop offset="100%" stop-color="#1a4a1a" stop-opacity="0"/>
    </radialGradient>
    <radialGradient id="sFrost" cx="0.5" cy="0.5" r="0.5">
      <stop offset="0%" stop-color="#fff"/>
      <stop offset="60%" stop-color="#7dd3fc"/>
      <stop offset="100%" stop-color="#0a3a5a" stop-opacity="0"/>
    </radialGradient>
    <filter id="lyGlow" x="-50%" y="-50%" width="200%" height="200%">
      <feGaussianBlur stdDeviation="2"/>
    </filter>
  </defs>

  <!-- ==================== CARD 1 — BOULE DE FEU ==================== -->
  <g transform="translate(8 8)">
    <rect x="6" y="6" width="188" height="208" rx="10" fill="url(#comParch)" stroke="#a07c3a" stroke-width="2">
      <animate attributeName="stroke-opacity" values="0.55;1;0.55" dur="3.6s" begin="0s" repeatCount="indefinite"/>
    </rect>
    <rect x="10" y="10" width="180" height="200" rx="8" fill="none" stroke="#a07c3a" stroke-width="0.5" opacity="0.4"/>
    <!-- Flame aura -->
    <circle cx="100" cy="80" r="70" fill="url(#sFire)" opacity="0.6">
      <animate attributeName="r" values="60;75;60" dur="2.4s" repeatCount="indefinite"/>
      <animate attributeName="opacity" values="0.4;0.8;0.4" dur="2.4s" repeatCount="indefinite"/>
    </circle>
    <circle cx="100" cy="80" r="30" fill="#ffd24a">
      <animate attributeName="r" values="28;36;28" dur="2.4s" repeatCount="indefinite"/>
    </circle>
    <text x="100" y="92" font-size="40" text-anchor="middle">🔥</text>
    <rect x="10" y="135" width="180" height="28" fill="url(#comPlaque)" stroke="#f6d97c" stroke-width="1.5" rx="3">
      <animate attributeName="fill-opacity" values="0;1" dur="1.6s" begin="0.4s" fill="freeze"/>
    </rect>
    <text x="100" y="155" font-size="15" text-anchor="middle" font-family="Georgia, serif" font-weight="bold" fill="#f6d97c" letter-spacing="2">❦ BOULE DE FEU ❦</text>
    <text x="100" y="170" font-size="12" text-anchor="middle" font-family="Georgia, serif" fill="#5a3a1f">♦ 15 mana</text>
    <text x="100" y="190" font-size="11" text-anchor="middle" font-family="Georgia, serif" fill="#a07c3a" font-style="italic">dégâts AoE</text>
  </g>

  <!-- ==================== CARD 2 — SOIN LÉGER ==================== -->
  <g transform="translate(220 8)">
    <rect x="6" y="6" width="188" height="208" rx="10" fill="url(#comParch)" stroke="#a07c3a" stroke-width="2">
      <animate attributeName="stroke-opacity" values="0.55;1;0.55" dur="3.6s" begin="0.2s" repeatCount="indefinite"/>
    </rect>
    <rect x="10" y="10" width="180" height="200" rx="8" fill="none" stroke="#a07c3a" stroke-width="0.5" opacity="0.4"/>
    <!-- Healing aura -->
    <circle cx="100" cy="80" r="60" fill="url(#sHeal)" opacity="0.7">
      <animate attributeName="r" values="50;65;50" dur="3s" repeatCount="indefinite"/>
    </circle>
    <!-- Pulsating cross -->
    <g transform="translate(100 80)">
      <line x1="0" y1="-32" x2="0" y2="-12" stroke="#1a4a1a" stroke-width="3">
        <animate attributeName="opacity" values="0;1;0" dur="2s" repeatCount="indefinite"/>
      </line>
      <line x1="0" y1="12" x2="0" y2="32" stroke="#1a4a1a" stroke-width="3">
        <animate attributeName="opacity" values="0;1;0" dur="2s" begin="0.5s" repeatCount="indefinite"/>
      </line>
      <line x1="-32" y1="0" x2="-12" y2="0" stroke="#1a4a1a" stroke-width="3">
        <animate attributeName="opacity" values="0;1;0" dur="2s" begin="1s" repeatCount="indefinite"/>
      </line>
      <line x1="12" y1="0" x2="32" y2="0" stroke="#1a4a1a" stroke-width="3">
        <animate attributeName="opacity" values="0;1;0" dur="2s" begin="1.5s" repeatCount="indefinite"/>
      </line>
      <circle r="8" fill="#a3e635">
        <animate attributeName="r" values="6;10;6" dur="2s" repeatCount="indefinite"/>
      </circle>
    </g>
    <text x="100" y="92" font-size="36" text-anchor="middle">✨</text>
    <rect x="10" y="135" width="180" height="28" fill="url(#comPlaque)" stroke="#f6d97c" stroke-width="1.5" rx="3">
      <animate attributeName="fill-opacity" values="0;1" dur="1.6s" begin="0.6s" fill="freeze"/>
    </rect>
    <text x="100" y="155" font-size="15" text-anchor="middle" font-family="Georgia, serif" font-weight="bold" fill="#f6d97c" letter-spacing="2">❦ SOIN LÉGER ❦</text>
    <text x="100" y="170" font-size="12" text-anchor="middle" font-family="Georgia, serif" fill="#5a3a1f">♦ 20 mana</text>
    <text x="100" y="190" font-size="11" text-anchor="middle" font-family="Georgia, serif" fill="#a07c3a" font-style="italic">+50 PV instantanés</text>
  </g>

  <!-- ==================== CARD 3 — ÉCLAIR ==================== -->
  <g transform="translate(432 8)">
    <rect x="6" y="6" width="188" height="208" rx="10" fill="url(#comParch)" stroke="#a07c3a" stroke-width="2">
      <animate attributeName="stroke-opacity" values="0.55;1;0.55" dur="3.6s" begin="0.4s" repeatCount="indefinite"/>
    </rect>
    <rect x="10" y="10" width="180" height="200" rx="8" fill="none" stroke="#a07c3a" stroke-width="0.5" opacity="0.4"/>
    <!-- Glowing lightning zigzag -->
    <path d="M70,30 L120,80 L80,100 L130,140" fill="none" stroke="#fbbf24" stroke-width="6" stroke-linejoin="round" filter="url(#lyGlow)">
      <animate attributeName="opacity" values="0.4;1;0.4" dur="1.4s" repeatCount="indefinite"/>
    </path>
    <path d="M70,30 L120,80 L80,100 L130,140" fill="none" stroke="#fff" stroke-width="2.5" stroke-linejoin="round"/>
    <!-- Plaque label below the bolt -->
    <rect x="10" y="186" width="180" height="28" fill="url(#comPlaque)" stroke="#f6d97c" stroke-width="1.5" rx="3">
      <animate attributeName="fill-opacity" values="0;1" dur="1.6s" begin="0.8s" fill="freeze"/>
    </rect>
    <text x="100" y="180" font-size="22" text-anchor="middle">⚡</text>
    <text x="100" y="207" font-size="13" text-anchor="middle" font-family="Georgia, serif" font-weight="bold" fill="#f6d97c" letter-spacing="2">ÉCLAIR</text>
  </g>

  <!-- ==================== CARD 4 — BOUCLIER ==================== -->
  <g transform="translate(644 8)">
    <rect x="6" y="6" width="188" height="208" rx="10" fill="url(#comParch)" stroke="#a07c3a" stroke-width="2">
      <animate attributeName="stroke-opacity" values="0.55;1;0.55" dur="3.6s" begin="0.6s" repeatCount="indefinite"/>
    </rect>
    <rect x="10" y="10" width="180" height="200" rx="8" fill="none" stroke="#a07c3a" stroke-width="0.5" opacity="0.4"/>
    <!-- Shield with checkmark -->
    <path d="M100,30 L150,55 L150,110 Q150,140 100,162 Q50,140 50,110 L50,55 Z" fill="#38bdf8" opacity="0.85">
      <animate attributeName="opacity" values="0.6;1;0.6" dur="2s" repeatCount="indefinite"/>
    </path>
    <path d="M100,30 L150,55 L150,110 Q150,140 100,162 Q50,140 50,110 L50,55 Z" fill="none" stroke="#0a3a5a" stroke-width="2"/>
    <path d="M76,100 L94,118 L130,80" fill="none" stroke="#fff" stroke-width="6" stroke-linecap="round" stroke-linejoin="round"/>
    <rect x="10" y="186" width="180" height="28" fill="url(#comPlaque)" stroke="#f6d97c" stroke-width="1.5" rx="3">
      <animate attributeName="fill-opacity" values="0;1" dur="1.6s" begin="1.0s" fill="freeze"/>
    </rect>
    <text x="100" y="207" font-size="13" text-anchor="middle" font-family="Georgia, serif" font-weight="bold" fill="#f6d97c" letter-spacing="2">BOUCLIER</text>
  </g>

  <!-- ==================== CARD 5 — GIVRE ==================== -->
  <g transform="translate(856 8)">
    <rect x="6" y="6" width="188" height="208" rx="10" fill="url(#comParch)" stroke="#a07c3a" stroke-width="2">
      <animate attributeName="stroke-opacity" values="0.55;1;0.55" dur="3.6s" begin="0.8s" repeatCount="indefinite"/>
    </rect>
    <rect x="10" y="10" width="180" height="200" rx="8" fill="none" stroke="#a07c3a" stroke-width="0.5" opacity="0.4"/>
    <!-- Frosty aura -->
    <circle cx="100" cy="100" r="65" fill="url(#sFrost)" opacity="0.6">
      <animate attributeName="r" values="55;72;55" dur="3s" repeatCount="indefinite"/>
    </circle>
    <!-- Rotating snowflake -->
    <g transform="translate(100 100)" stroke="#0a3a5a" stroke-width="2.5" stroke-linecap="round">
      <line x1="-30" y1="0" x2="30" y2="0"/>
      <line x1="0" y1="-30" x2="0" y2="30"/>
      <line x1="-22" y1="-22" x2="22" y2="22"/>
      <line x1="-22" y1="22" x2="22" y2="-22"/>
      <line x1="-10" y1="0" x2="-15" y2="-5"/>
      <line x1="-10" y1="0" x2="-15" y2="5"/>
      <line x1="10" y1="0" x2="15" y2="-5"/>
      <line x1="10" y1="0" x2="15" y2="5"/>
      <animateTransform attributeName="transform" type="rotate" values="0;360" dur="12s" repeatCount="indefinite" additive="sum"/>
    </g>
    <rect x="10" y="186" width="180" height="28" fill="url(#comPlaque)" stroke="#f6d97c" stroke-width="1.5" rx="3">
      <animate attributeName="fill-opacity" values="0;1" dur="1.6s" begin="1.2s" fill="freeze"/>
    </rect>
    <text x="100" y="207" font-size="13" text-anchor="middle" font-family="Georgia, serif" font-weight="bold" fill="#f6d97c" letter-spacing="2">GIVRE</text>
  </g>
</svg>
