<svg xmlns="http://www.w3.org/2000/svg" style="max-width:1064px" viewBox="0 0 1064 260"><defs><radialGradient id="b" cx=".5" cy=".5" r=".5"><stop offset="0%" stop-color="#fff4a0"/><stop offset="50%" stop-color="#ff5722"/><stop offset="100%" stop-color="#7a1c0a" stop-opacity="0"/></radialGradient><radialGradient id="d" cx=".5" cy=".5" r=".5"><stop offset="0%" stop-color="#fff"/><stop offset="50%" stop-color="#a3e635"/><stop offset="100%" stop-color="#1a4a1a" stop-opacity="0"/></radialGradient><radialGradient id="e" cx=".5" cy=".5" r=".5"><stop offset="0%" stop-color="#fff7c0"/><stop offset="50%" stop-color="#fbbf24"/><stop offset="100%" stop-color="#7a5500" stop-opacity="0"/></radialGradient><radialGradient id="g" cx=".5" cy=".5" r=".5"><stop offset="0%" stop-color="#fff4c2"/><stop offset="60%" stop-color="#f6d97c"/><stop offset="100%" stop-color="#a07c3a" stop-opacity="0"/></radialGradient><radialGradient id="h" cx=".5" cy=".5" r=".5"><stop offset="0%" stop-color="#fff"/><stop offset="60%" stop-color="#7dd3fc"/><stop offset="100%" stop-color="#0a3a5a" stop-opacity="0"/></radialGradient><linearGradient id="a" x1="0" x2="0" y1="0" y2="1"><stop offset="0%" stop-color="#fff4c2"/><stop offset="100%" stop-color="#d8be83"/></linearGradient><linearGradient id="c" x1="0" x2="0" y1="0" y2="1"><stop offset="0%" stop-color="#3a2412"/><stop offset="100%" stop-color="#1a0e2e"/></linearGradient><filter id="f" width="200%" height="200%" x="-50%" y="-50%"><feGaussianBlur stdDeviation="2.2"/></filter></defs><g transform="translate(8 8)"><rect width="188" height="224" x="6" y="6" fill="url(#a)" stroke="#a07c3a" stroke-width="2" rx="10"><animate attributeName="stroke-opacity" begin="0s" dur="3.6s" repeatCount="indefinite" values="0.55;1;0.55"/></rect><rect width="180" height="216" x="10" y="10" fill="none" stroke="#a07c3a" stroke-width=".5" opacity=".4" rx="8"/><circle cx="100" cy="80" r="70" fill="url(#b)" opacity=".6"><animate attributeName="r" dur="2.4s" repeatCount="indefinite" values="60;75;60"/><animate attributeName="opacity" dur="2.4s" repeatCount="indefinite" values="0.4;0.8;0.4"/></circle><circle cx="100" cy="80" r="30" fill="#ffd24a"><animate attributeName="r" dur="2.4s" repeatCount="indefinite" values="28;36;28"/></circle><text x="100" y="92" font-size="40" text-anchor="middle">🔥</text><rect width="180" height="28" x="10" y="135" fill="url(#c)" stroke="#f6d97c" stroke-width="1.5" rx="3"><animate fill="freeze" attributeName="fill-opacity" begin="0.4s" dur="1.6s" values="0;1"/></rect><text x="100" y="155" fill="#f6d97c" font-family="Georgia, serif" font-size="12" font-weight="bold" letter-spacing=".5" text-anchor="middle">❦ BOULE DE FEU ❦</text><text x="100" y="186" fill="#5a3a1f" font-family="Georgia, serif" font-size="12" text-anchor="middle">♦ 15 mana</text><text x="100" y="210" fill="#a07c3a" font-family="Georgia, serif" font-size="11" font-style="italic" text-anchor="middle">dégâts AoE</text></g><g transform="translate(220 8)"><rect width="188" height="224" x="6" y="6" fill="url(#a)" stroke="#a07c3a" stroke-width="2" rx="10"><animate attributeName="stroke-opacity" begin="0.2s" dur="3.6s" repeatCount="indefinite" values="0.55;1;0.55"/></rect><rect width="180" height="216" x="10" y="10" fill="none" stroke="#a07c3a" stroke-width=".4" opacity=".4" rx="8"/><circle cx="100" cy="80" r="60" fill="url(#d)" opacity=".7"><animate attributeName="r" dur="3s" repeatCount="indefinite" values="50;65;50"/></circle><g transform="translate(100 80)"><line y1="-32" y2="-12" stroke="#1a4a1a" stroke-width="3"><animate attributeName="opacity" dur="2s" repeatCount="indefinite" values="0;1;0"/></line><line y1="12" y2="32" stroke="#1a4a1a" stroke-width="3"><animate attributeName="opacity" begin="0.5s" dur="2s" repeatCount="indefinite" values="0;1;0"/></line><line x1="-32" x2="-12" stroke="#1a4a1a" stroke-width="3"><animate attributeName="opacity" begin="1s" dur="2s" repeatCount="indefinite" values="0;1;0"/></line><line x1="12" x2="32" stroke="#1a4a1a" stroke-width="3"><animate attributeName="opacity" begin="1.5s" dur="2s" repeatCount="indefinite" values="0;1;0"/></line><circle r="8" fill="#a3e635"><animate attributeName="r" dur="2s" repeatCount="indefinite" values="6;10;6"/></circle></g><text x="100" y="92" font-size="36" text-anchor="middle">✨</text><rect width="180" height="28" x="10" y="135" fill="url(#c)" stroke="#f6d97c" stroke-width="1.5" rx="3"><animate fill="freeze" attributeName="fill-opacity" begin="0.6s" dur="1.6s" values="0;1"/></rect><text x="100" y="155" fill="#f6d97c" font-family="Georgia, serif" font-size="12" font-weight="bold" letter-spacing=".5" text-anchor="middle">❦ SOIN LÉGER ❦</text><text x="100" y="186" fill="#5a3a1f" font-family="Georgia, serif" font-size="12" text-anchor="middle">♦ 20 mana</text><text x="100" y="210" fill="#a07c3a" font-family="Georgia, serif" font-size="11" font-style="italic" text-anchor="middle">+50 PV instantanés</text></g><g transform="translate(432 8)"><rect width="188" height="224" x="6" y="6" fill="url(#a)" stroke="#a07c3a" stroke-width="2" rx="10"><animate attributeName="stroke-opacity" begin="0.4s" dur="3.6s" repeatCount="indefinite" values="0.55;1;0.55"/></rect><rect width="180" height="216" x="10" y="10" fill="none" stroke="#a07c3a" stroke-width=".5" opacity=".4" rx="8"/><circle cx="100" cy="80" r="60" fill="url(#e)" opacity=".6"><animate attributeName="r" dur="1.8s" repeatCount="indefinite" values="50;68;50"/><animate attributeName="opacity" dur="1.8s" repeatCount="indefinite" values="0.4;0.85;0.4"/></circle><g filter="url(#f)" transform="translate(100 80)"><polygon fill="#fbbf24" stroke="#7a5500" stroke-linejoin="round" stroke-width="1.5" points="-6,-40 18,-6 4,-2 24,34 -18,-4 -2,-4 -22,-32"><animate attributeName="fill-opacity" dur="1.2s" repeatCount="indefinite" values="0.7;1;0.7"/></polygon><polygon fill="#fff7c0" points="-3,-30 11,-4 0,0 14,22 -10,-2 -12,-2 -14,-22" opacity=".85"/></g><g stroke="#fde68a" stroke-linecap="round" stroke-width="2.5"><line x1="36" x2="46" y1="48" y2="58"><animate attributeName="opacity" begin="0.2s" dur="1.4s" repeatCount="indefinite" values="0;1;0"/></line><line x1="154" x2="164" y1="48" y2="58"><animate attributeName="opacity" begin="0.8s" dur="1.4s" repeatCount="indefinite" values="0;1;0"/></line><line x1="30" x2="42" y1="105" y2="108"><animate attributeName="opacity" begin="0.4s" dur="1.4s" repeatCount="indefinite" values="0;1;0"/></line><line x1="160" x2="172" y1="105" y2="108"><animate attributeName="opacity" begin="1.0s" dur="1.4s" repeatCount="indefinite" values="0;1;0"/></line><line x1="100" x2="100" y1="18" y2="26"><animate attributeName="opacity" begin="0.6s" dur="1.4s" repeatCount="indefinite" values="0;1;0"/></line><circle cx="40" cy="42" r="2"><animate attributeName="opacity" begin="0.1s" dur="1.4s" repeatCount="indefinite" values="0;1;0"/></circle><circle cx="160" cy="42" r="2"><animate attributeName="opacity" begin="0.7s" dur="1.4s" repeatCount="indefinite" values="0;1;0"/></circle></g><rect width="180" height="28" x="10" y="135" fill="url(#c)" stroke="#f6d97c" stroke-width="1.5" rx="3"><animate fill="freeze" attributeName="fill-opacity" begin="0.8s" dur="1.6s" values="0;1"/></rect><text x="100" y="155" fill="#f6d97c" font-family="Georgia, serif" font-size="12" font-weight="bold" letter-spacing=".5" text-anchor="middle">❦ CHAÎNE D&apos;ÉCLAIRS ❦</text><text x="100" y="186" fill="#5a3a1f" font-family="Georgia, serif" font-size="12" text-anchor="middle">♦ 25 mana</text><text x="100" y="210" fill="#a07c3a" font-family="Georgia, serif" font-size="11" font-style="italic" text-anchor="middle">frappe ciblée</text></g><g transform="translate(644 8)"><rect width="188" height="224" x="6" y="6" fill="url(#a)" stroke="#a07c3a" stroke-width="2" rx="10"><animate attributeName="stroke-opacity" begin="0.6s" dur="3.6s" repeatCount="indefinite" values="0.55;1;0.55"/></rect><rect width="180" height="216" x="10" y="10" fill="none" stroke="#a07c3a" stroke-width=".5" opacity=".4" rx="8"/><circle cx="100" cy="80" r="58" fill="url(#g)" opacity=".5"><animate attributeName="r" dur="2.4s" repeatCount="indefinite" values="50;64;50"/></circle><g transform="translate(100 80)"><path fill="url(#c)" stroke="#f6d97c" stroke-linejoin="round" stroke-width="2.5" d="m0-40 36 14V8q0 20-36 40-36-20-36-40v-34Z"><animate attributeName="stroke-opacity" dur="2.4s" repeatCount="indefinite" values="0.55;1;0.55"/></path><path fill="none" stroke="#fbbf24" d="m0-32 30 12V6q0 18-30 32-30-14-30-32v-26Z" opacity=".7"/><g fill="none" stroke="#f6d97c" stroke-linecap="round" stroke-linejoin="round" stroke-width="2"><line y1="-22" y2="22"/><line x1="-22" x2="22"/><line x1="-15" x2="15" y1="-15" y2="15" opacity=".7"/><line x1="-15" x2="15" y1="15" y2="-15" opacity=".7"/></g><circle r="5" fill="#fbbf24" stroke="#7a5500" stroke-width="1.2"/><circle r="2" fill="#fff7c0"/></g><rect width="180" height="28" x="10" y="135" fill="url(#c)" stroke="#f6d97c" stroke-width="1.5" rx="3"><animate fill="freeze" attributeName="fill-opacity" begin="1.0s" dur="1.6s" values="0;1"/></rect><text x="100" y="155" fill="#f6d97c" font-family="Georgia, serif" font-size="12" font-weight="bold" letter-spacing=".5" text-anchor="middle">❦ BOUCLIER ARCANIQUE ❦</text><text x="100" y="186" fill="#5a3a1f" font-family="Georgia, serif" font-size="12" text-anchor="middle">♦ 18 mana</text><text x="100" y="210" fill="#a07c3a" font-family="Georgia, serif" font-size="11" font-style="italic" text-anchor="middle">absorbe 80 dmg</text></g><g transform="translate(856 8)"><rect width="188" height="224" x="6" y="6" fill="url(#a)" stroke="#a07c3a" stroke-width="2" rx="10"><animate attributeName="stroke-opacity" begin="0.8s" dur="3.6s" repeatCount="indefinite" values="0.55;1;0.55"/></rect><rect width="180" height="216" x="10" y="10" fill="none" stroke="#a07c3a" stroke-width=".4" opacity=".4" rx="8"/><circle cx="100" cy="80" r="60" fill="url(#h)" opacity=".7"><animate attributeName="r" dur="3s" repeatCount="indefinite" values="55;72;55"/></circle><g fill="none" stroke-linecap="round" stroke-linejoin="round" transform="translate(100 80)"><g stroke="#0a3a5a" filter="url(#f)"><line y1="-40" y2="40" stroke-width="3"/><line x1="-34.6" x2="34.6" y1="-20" y2="20" stroke-width="3"/><line x1="-34.6" x2="34.6" y1="20" y2="-20" stroke-width="3"/><g stroke-width="2"><line x2="-7" y1="-40" y2="-32"/><line x2="7" y1="-40" y2="-32"/><line x2="-7" y1="40" y2="32"/><line x2="7" y1="40" y2="32"/><line x1="-34.6" x2="-29" y1="-20" y2="-12"/><line x1="-34.6" x2="-31" y1="-20" y2="-26"/><line x1="34.6" x2="29" y1="20" y2="12"/><line x1="34.6" x2="31" y1="20" y2="26"/><line x1="-34.6" x2="-29" y1="20" y2="28"/><line x1="-34.6" x2="-31" y1="20" y2="14"/><line x1="34.6" x2="29" y1="-20" y2="-28"/><line x1="34.6" x2="31" y1="-20" y2="-14"/></g><polygon fill="#fff" fill-opacity=".85" stroke-width="1.5" points="0,-13 11.3,-6.5 11.3,6.5 0,13 -11.3,6.5 -11.3,-6.5"/></g><circle r="6" fill="#fff"/><circle r="3" fill="#7dd3fc"/><animateTransform additive="sum" attributeName="transform" dur="14s" repeatCount="indefinite" type="rotate" values="0;360"/></g><rect width="180" height="28" x="10" y="135" fill="url(#c)" stroke="#f6d97c" stroke-width="1.5" rx="3"><animate fill="freeze" attributeName="fill-opacity" begin="1.2s" dur="1.6s" values="0;1"/></rect><text x="100" y="155" fill="#f6d97c" font-family="Georgia, serif" font-size="12" font-weight="bold" letter-spacing=".5" text-anchor="middle">❦ NOVA DE GIVRE ❦</text><text x="100" y="186" fill="#5a3a1f" font-family="Georgia, serif" font-size="12" text-anchor="middle">♦ 30 mana</text><text x="100" y="210" fill="#a07c3a" font-family="Georgia, serif" font-size="11" font-style="italic" text-anchor="middle">ralentit &amp; gèle</text></g></svg>