<svg xmlns="http://www.w3.org/2000/svg" aria-label="Eldoria — Chroniques de la Forêt d'Argent" viewBox="0 0 1600 600"><title>Eldoria — Chroniques de la Forêt d&apos;Argent</title><defs><linearGradient id="a" x1="0" x2="0" y1="0" y2="1"><stop offset="0%" stop-color="#070219"/><stop offset="22%" stop-color="#1a0838"/><stop offset="45%" stop-color="#5b1c5c"/><stop offset="62%" stop-color="#c84a3a"/><stop offset="78%" stop-color="#f3a14a"/><stop offset="100%" stop-color="#f6d97c"/></linearGradient><linearGradient id="h" x1="0" x2="0" y1="0" y2="1"><stop offset="0%" stop-color="#5e3a82"/><stop offset="100%" stop-color="#2a1850"/></linearGradient><linearGradient id="i" x1="0" x2="0" y1="0" y2="1"><stop offset="0%" stop-color="#3e2566"/><stop offset="100%" stop-color="#1c0f3a"/></linearGradient><linearGradient id="j" x1="0" x2="0" y1="0" y2="1"><stop offset="0%" stop-color="#21123e"/><stop offset="100%" stop-color="#0a041e"/></linearGradient><linearGradient id="k" x1="0" x2="0" y1="0" y2="1"><stop offset="0%" stop-color="#0e1a2a"/><stop offset="100%" stop-color="#02050c"/></linearGradient><linearGradient id="l" x1="0" x2="0" y1="0" y2="1"><stop offset="0%" stop-color="#fff4c2"/><stop offset="35%" stop-color="#f8d76a"/><stop offset="65%" stop-color="#d4a537"/><stop offset="100%" stop-color="#8a5d12"/></linearGradient><linearGradient id="n" x1="0" x2="1" y1="0" y2="0"><stop offset="0%" stop-color="#9bdfff"/><stop offset="50%" stop-color="#fff"/><stop offset="100%" stop-color="#9bdfff"/></linearGradient><linearGradient id="o" x1="0" x2="0" y1="0" y2="1"><stop offset="0%" stop-color="#f6d97c"/><stop offset="50%" stop-color="#b8860b"/><stop offset="100%" stop-color="#5a3e10"/></linearGradient><linearGradient id="p" x1="0" x2="0" y1="0" y2="1"><stop offset="0%" stop-color="#ff8da0"/><stop offset="100%" stop-color="#9b1c3a"/></linearGradient><radialGradient id="e" cx=".5" cy=".5" r=".5"><stop offset="0%" stop-color="#fff6c8"/><stop offset="35%" stop-color="#ffd24a" stop-opacity=".95"/><stop offset="70%" stop-color="#f3712c" stop-opacity=".55"/><stop offset="100%" stop-color="#c84a3a" stop-opacity="0"/></radialGradient><radialGradient id="g" cx=".5" cy=".5" r=".5"><stop offset="0%" stop-color="#ffba54" stop-opacity=".45"/><stop offset="100%" stop-color="#ffba54" stop-opacity="0"/></radialGradient><symbol id="b" viewBox="-5 -5 10 10"><path fill="#fff8d4" d="m0-4 1 3 3 1-3 1-1 3-1-3-3-1 3-1Z"/></symbol><symbol id="c" viewBox="0 0 200 60"><ellipse cx="40" cy="42" fill="#1a0e34" opacity=".5" rx="40" ry="14"/><ellipse cx="100" cy="32" fill="#1a0e34" opacity=".55" rx="60" ry="22"/><ellipse cx="160" cy="44" fill="#1a0e34" opacity=".5" rx="42" ry="16"/></symbol><filter id="m" width="200%" height="200%" x="-50%" y="-50%"><feGaussianBlur result="b" stdDeviation="6"/><feMerge><feMergeNode in="b"/><feMergeNode in="SourceGraphic"/></feMerge></filter><filter id="f" width="200%" height="200%" x="-50%" y="-50%"><feGaussianBlur result="b1" stdDeviation="14"/><feGaussianBlur in="SourceGraphic" result="b2" stdDeviation="4"/><feMerge><feMergeNode in="b1"/><feMergeNode in="b2"/><feMergeNode in="SourceGraphic"/></feMerge></filter></defs><rect width="1600" height="600" fill="url(#a)"/><use width="6" height="6" x="80" y="60" href="#b"><animate attributeName="opacity" begin="0s" dur="3.6s" repeatCount="indefinite" values="0.2;1;0.2"/></use><use width="5" height="5" x="220" y="100" href="#b"><animate attributeName="opacity" begin="0.4s" dur="4.2s" repeatCount="indefinite" values="0.1;0.9;0.1"/></use><use width="7" height="7" x="380" y="40" href="#b"><animate attributeName="opacity" begin="0.8s" dur="2.8s" repeatCount="indefinite" values="0.3;1;0.3"/></use><use width="4" height="4" x="520" y="90" href="#b"><animate attributeName="opacity" begin="1.2s" dur="3.2s" repeatCount="indefinite" values="0.2;0.8;0.2"/></use><use width="6" height="6" x="700" y="60" href="#b"><animate attributeName="opacity" begin="1.5s" dur="2.4s" repeatCount="indefinite" values="0.1;1;0.1"/></use><use width="5" height="5" x="840" y="120" href="#b"><animate attributeName="opacity" begin="0.2s" dur="3.8s" repeatCount="indefinite" values="0.15;0.85;0.15"/></use><use width="6" height="6" x="980" y="50" href="#b"><animate attributeName="opacity" begin="2.0s" dur="3.4s" repeatCount="indefinite" values="0.1;1;0.1"/></use><use width="4" height="4" x="1120" y="100" href="#b"><animate attributeName="opacity" begin="0.7s" dur="2.6s" repeatCount="indefinite" values="0.2;0.9;0.2"/></use><use width="7" height="7" x="1260" y="40" href="#b"><animate attributeName="opacity" begin="1.4s" dur="3.0s" repeatCount="indefinite" values="0.3;1;0.3"/></use><use width="5" height="5" x="1400" y="80" href="#b"><animate attributeName="opacity" begin="0.5s" dur="3.6s" repeatCount="indefinite" values="0.2;0.95;0.2"/></use><use width="6" height="6" x="1500" y="120" href="#b"><animate attributeName="opacity" begin="1.7s" dur="2.9s" repeatCount="indefinite" values="0.15;0.9;0.15"/></use><use width="4" height="4" x="160" y="160" href="#b"><animate attributeName="opacity" begin="0.3s" dur="4.1s" repeatCount="indefinite" values="0.4;1;0.4"/></use><use width="5" height="5" x="600" y="180" href="#b"><animate attributeName="opacity" begin="1.1s" dur="3.3s" repeatCount="indefinite" values="0.2;0.8;0.2"/></use><use width="4" height="4" x="1300" y="170" href="#b"><animate attributeName="opacity" begin="2.1s" dur="2.7s" repeatCount="indefinite" values="0.3;0.9;0.3"/></use><g opacity=".7"><use width="220" height="60" x="-200" y="120" href="#c"><animateTransform attributeName="transform" dur="55s" repeatCount="indefinite" type="translate" values="0,0; 1800,0"/></use><use width="260" height="70" x="-400" y="180" href="#c"><animateTransform attributeName="transform" begin="-20s" dur="75s" repeatCount="indefinite" type="translate" values="0,0; 1800,0"/></use><use width="180" height="50" x="-300" y="80" href="#c"><animateTransform attributeName="transform" begin="-40s" dur="95s" repeatCount="indefinite" type="translate" values="0,0; 1800,0"/></use></g><g transform="translate(800 380)"><circle r="160" fill="url(#e)" filter="url(#f)" opacity=".85"/><circle r="65" fill="#fff4b8" filter="url(#f)"><animate attributeName="r" dur="4.2s" repeatCount="indefinite" values="62;70;62"/></circle></g><ellipse cx="800" cy="500" fill="url(#g)" rx="900" ry="120"/><path fill="url(#h)" d="M-50 150 100 40l160 70 160-80 160 90L740 20l160 90 180-70 180 80 180-90 180 80 80 40Z" opacity=".95" transform="translate(0 320)"/><path fill="url(#i)" d="M-50 120 80 60l140 40 160-60 140 50 160-60 180 60 160-50 160 60 160-70 160 70 200 50Z" transform="translate(0 350)"/><path fill="url(#j)" d="M-50 90 60 50l140 40 120-60 140 60 140-50 140 50 140-60 140 70 160-60 140 50 160-50 220 50v60H-50Z" transform="translate(0 380)"/><g fill="#0a1a14" opacity=".85"><polygon points="120,470 130,420 140,470"/><polygon points="118,470 130,408 142,470"/><polygon points="320,490 332,432 344,490"/><polygon points="318,490 332,420 346,490"/><polygon points="1240,485 1252,430 1264,485"/><polygon points="1238,485 1252,418 1266,485"/><polygon points="1450,495 1462,440 1474,495"/><polygon points="1448,495 1462,428 1476,495"/></g><rect width="1600" height="110" y="490" fill="url(#k)"/><path fill="#0a0814" d="m0 490 20-30 20 30 30-35 30 35 30-45 40 45 40-30 50 30 40-40 50 40 50-30 50 30 50-45 60 45 50-30 50 30 50-40 60 40 50-35 60 35 50-45 60 45 50-30 60 30 50-35 60 35 50-50 60 50 50-35 60 35 50-30 60 30 60-35v55H0Z"/><g font-family="Georgia, 'Times New Roman', serif" text-anchor="middle" transform="translate(800 195)"><ellipse fill="#f6d97c" filter="url(#f)" opacity=".12" rx="540" ry="80"/><text fill="url(#l)" stroke="#3a2412" stroke-width="2" filter="url(#m)" font-size="148" font-weight="900" letter-spacing="14">
      ⚔  ELDORIA  ⚔
      <animate fill="freeze" attributeName="opacity" dur="1.4s" values="0;1;1"/>
    </text><text y="60" fill="#fff4c8" font-size="30" font-style="italic" font-weight="500" opacity=".95">
      Chroniques de la Forêt d&apos;Argent
      <animate fill="freeze" attributeName="opacity" begin="0.6s" dur="2.2s" values="0;0;0.95"/>
    </text><g stroke="#f6d97c" stroke-linecap="round" opacity=".85" transform="translate(0 100)"><line x1="-230" x2="-40" stroke-width="1.5"/><line x1="40" x2="230" stroke-width="1.5"/><circle cx="-230" r="3" fill="#f6d97c"/><circle cx="230" r="3" fill="#f6d97c"/><text y="6" fill="#f6d97c" stroke="none" font-size="22">
        ❦
        <animate fill="freeze" attributeName="opacity" begin="1.2s" dur="2.6s" values="0;0;1"/>
      </text></g></g><g filter="url(#f)" transform="translate(360 220)"><animateTransform attributeName="transform" dur="4.5s" repeatCount="indefinite" type="translate" values="360,220; 360,210; 360,220"/><animate attributeName="opacity" dur="4.5s" repeatCount="indefinite" values="0.85;1;0.85"/><g transform="rotate(-18)"><path fill="url(#n)" stroke="#cfeaff" stroke-width=".6" d="m0-90 8 80-4 90h-8l-4-90Z"/><path stroke="#fff" stroke-width=".5" d="M-8-10H8" opacity=".7"/><rect width="44" height="8" x="-22" y="-6" fill="url(#o)" stroke="#3a2412" stroke-width=".8" rx="3"/><rect width="8" height="20" x="-30" y="-12" fill="url(#o)" rx="2"/><rect width="8" height="20" x="22" y="-12" fill="url(#o)" rx="2"/><rect width="10" height="22" x="-5" y="4" fill="#3a2412" rx="3"/><rect width="10" height="2" x="-5" y="10" fill="#1c0e08"/><circle cy="32" r="7" fill="url(#p)" stroke="#3a2412"/><circle cy="30" r="2.5" fill="#fff6c8" opacity=".8"/></g></g><g filter="url(#f)" transform="translate(1240 220)"><animateTransform attributeName="transform" begin="2.25s" dur="4.5s" repeatCount="indefinite" type="translate" values="1240,220; 1240,210; 1240,220"/><animate attributeName="opacity" begin="2.25s" dur="4.5s" repeatCount="indefinite" values="0.85;1;0.85"/><g transform="rotate(18)"><path fill="url(#n)" stroke="#cfeaff" stroke-width=".6" d="m0-90 8 80-4 90h-8l-4-90Z"/><path stroke="#fff" stroke-width=".5" d="M-8-10H8" opacity=".7"/><rect width="44" height="8" x="-22" y="-6" fill="url(#o)" stroke="#3a2412" stroke-width=".8" rx="3"/><rect width="8" height="20" x="-30" y="-12" fill="url(#o)" rx="2"/><rect width="8" height="20" x="22" y="-12" fill="url(#o)" rx="2"/><rect width="10" height="22" x="-5" y="4" fill="#3a2412" rx="3"/><rect width="10" height="2" x="-5" y="10" fill="#1c0e08"/><circle cy="32" r="7" fill="url(#p)" stroke="#3a2412"/><circle cy="30" r="2.5" fill="#fff6c8" opacity=".8"/></g></g><g fill="#f6d97c"><circle cx="430" cy="170" r="2.2"><animate attributeName="opacity" dur="2.4s" repeatCount="indefinite" values="0;1;0"/></circle><circle cx="500" cy="120" r="1.8"><animate attributeName="opacity" begin="0.8s" dur="3.2s" repeatCount="indefinite" values="0;1;0"/></circle><circle cx="1100" cy="140" r="2.2"><animate attributeName="opacity" begin="1.4s" dur="2.8s" repeatCount="indefinite" values="0;1;0"/></circle><circle cx="1170" cy="180" r="1.8"><animate attributeName="opacity" begin="0.4s" dur="3.5s" repeatCount="indefinite" values="0;1;0"/></circle><circle cx="800" cy="80" r="2.5"><animate attributeName="opacity" begin="1.0s" dur="2.6s" repeatCount="indefinite" values="0;1;0"/></circle></g><rect width="1588" height="588" x="6" y="6" fill="none" stroke="url(#l)" stroke-width="2" opacity=".6" rx="14"/><rect width="1572" height="572" x="14" y="14" fill="none" stroke="url(#l)" stroke-width=".6" opacity=".4" rx="10"/></svg>