<svg xmlns="http://www.w3.org/2000/svg" aria-label="Le Grand Sceau d'Eldoria — six piliers rayonnant autour de l'Arbre d'Argent" viewBox="0 0 1100 560"><title>Le Grand Sceau d&apos;Eldoria</title><desc>Six astres (bestiaire, quêtes, mentors, coffres, recettes, arts arcanes) rayonnent depuis l&apos;Arbre d&apos;Argent — chiffres réels : 5+1 créatures, 5 quêtes, 4 mentors, 7 coffres, 7 recettes, 5 sorts — pour un total de 52+ entités tissées.</desc><defs><radialGradient id="c" cx=".5" cy=".5" r=".5"><stop offset="0%" stop-color="#fff4c2" stop-opacity=".85"/><stop offset="55%" stop-color="#f6d97c" stop-opacity=".25"/><stop offset="100%" stop-color="#f6d97c" stop-opacity="0"/></radialGradient><radialGradient id="g" cx=".5" cy=".5" r=".5"><stop offset="0%" stop-color="#fff4c2" stop-opacity=".95"/><stop offset="40%" stop-color="#ff8a96" stop-opacity=".7"/><stop offset="100%" stop-color="#f34" stop-opacity="0"/></radialGradient><radialGradient id="k" cx=".5" cy=".5" r=".5"><stop offset="0%" stop-color="#f6d97c"/><stop offset="100%" stop-color="#a07c3a" stop-opacity="0"/></radialGradient><radialGradient id="j" cx=".5" cy=".5" r=".5"><stop offset="0%" stop-color="#ff8a96"/><stop offset="100%" stop-color="#f34" stop-opacity="0"/></radialGradient><radialGradient id="i" cx=".5" cy=".5" r=".5"><stop offset="0%" stop-color="#ff5722" stop-opacity=".45"/><stop offset="100%" stop-color="#ff5722" stop-opacity="0"/></radialGradient><linearGradient id="b" x1="0" x2="0" y1="0" y2="1"><stop offset="0%" stop-color="#fff4c2"/><stop offset="50%" stop-color="#f6d97c"/><stop offset="100%" stop-color="#a07c3a"/></linearGradient><linearGradient id="a" x1="0" x2="0" y1="0" y2="1"><stop offset="0%" stop-color="#1a0838"/><stop offset="100%" stop-color="#3a2412"/></linearGradient><linearGradient id="f" x1="0" x2="1" y1="0" y2="0"><stop offset="0%" stop-color="#3a3a3a"/><stop offset="50%" stop-color="#7c8088"/><stop offset="100%" stop-color="#5a5a5a"/></linearGradient><linearGradient id="d" x1="0" x2="1" y1="0" y2="0"><stop offset="0%" stop-color="#f6d97c" stop-opacity="0"/><stop offset="50%" stop-color="#f6d97c"/><stop offset="100%" stop-color="#f6d97c" stop-opacity="0"/></linearGradient><linearGradient id="e" x1="0" x2="0" y1="0" y2="1"><stop offset="0%" stop-color="#fff4c2" stop-opacity=".45"/><stop offset="100%" stop-color="#f6d97c"/></linearGradient><filter id="h"><feGaussianBlur stdDeviation="1.4"/></filter></defs><rect width="1100" height="560" fill="url(#a)" rx="14"/><rect width="1088" height="548" x="6" y="6" fill="none" stroke="url(#b)" stroke-width="2" opacity=".6" rx="12"/><rect width="1072" height="532" x="14" y="14" fill="none" stroke="#f6d97c" stroke-width=".5" opacity=".4" rx="10"/><text x="20" y="40" fill="#a07c3a" font-family="Georgia, serif" font-size="20">❦</text><text x="1080" y="40" fill="#a07c3a" font-family="Georgia, serif" font-size="20" text-anchor="end">❧</text><text x="20" y="540" fill="#a07c3a" font-family="Georgia, serif" font-size="20">❧</text><text x="1080" y="540" fill="#a07c3a" font-family="Georgia, serif" font-size="20" text-anchor="end">❦</text><g fill="#f6d97c"><circle cx="120" cy="120" r="1.5"><animate attributeName="opacity" begin="0s" dur="3.2s" repeatCount="indefinite" values="0.2;1;0.2"/></circle><circle cx="980" cy="140" r="1.5"><animate attributeName="opacity" begin="0.4s" dur="3.2s" repeatCount="indefinite" values="0.2;1;0.2"/></circle><circle cx="80" cy="430" r="1.5"><animate attributeName="opacity" begin="0.8s" dur="3.2s" repeatCount="indefinite" values="0.2;1;0.2"/></circle><circle cx="1020" cy="420" r="1.5"><animate attributeName="opacity" begin="1.2s" dur="3.2s" repeatCount="indefinite" values="0.2;1;0.2"/></circle><circle cx="200" cy="500" r="1.5"><animate attributeName="opacity" begin="1.6s" dur="3.2s" repeatCount="indefinite" values="0.2;1;0.2"/></circle><circle cx="900" cy="500" r="1.5"><animate attributeName="opacity" begin="2.0s" dur="3.2s" repeatCount="indefinite" values="0.2;1;0.2"/></circle><circle cx="40" cy="280" r="1.5"><animate attributeName="opacity" begin="2.4s" dur="3.2s" repeatCount="indefinite" values="0.2;1;0.2"/></circle><circle cx="1060" cy="280" r="1.5"><animate attributeName="opacity" begin="2.8s" dur="3.2s" repeatCount="indefinite" values="0.2;1;0.2"/></circle></g><g text-anchor="middle"><ellipse cx="550" cy="32" fill="url(#c)" opacity=".55" rx="380" ry="14"/><text x="550" y="34" fill="#f6d97c" font-family="Georgia, serif" font-size="11" font-weight="bold" letter-spacing="6">◆  SIX PILIERS — UN SEUL ROYAUME  ◆</text><text x="550" y="58" fill="#fff4c2" font-family="Georgia, serif" font-size="18" font-weight="900" letter-spacing="1">Ce qu&apos;Eldoria a sous le capot</text></g><circle cx="550" cy="290" r="200" fill="url(#c)"><animate attributeName="r" dur="5s" repeatCount="indefinite" values="190;215;190"/><animate attributeName="opacity" dur="5s" repeatCount="indefinite" values="0.6;1;0.6"/></circle><g transform="translate(550 290)"><circle r="178" fill="none" stroke="url(#d)" stroke-dasharray="3 8" stroke-width="2.5" opacity=".7"/><animateTransform attributeName="transform" dur="48s" repeatCount="indefinite" type="rotate" values="0;360"/></g><g fill="#f6d97c" font-family="Georgia, serif" font-size="14" text-anchor="middle"><text y="-185" transform="translate(550 290)">✦</text><text x="131" y="-131" transform="translate(550 290)">✧</text><text x="185" dy="5" transform="translate(550 290)">◆</text><text x="131" y="131" transform="translate(550 290)">✦</text><text y="190" dy="6" transform="translate(550 290)">✧</text><text x="-131" y="131" transform="translate(550 290)">◆</text><text x="-185" dy="5" transform="translate(550 290)">✧</text><text x="-131" y="-131" transform="translate(550 290)">✦</text></g><g transform="translate(550 290)"><circle r="140" fill="none" stroke="#a07c3a" stroke-dasharray="2 6" opacity=".5"/><g><circle r="140" fill="none" stroke="#f6d97c" stroke-width=".6" opacity=".5"/><animateTransform attributeName="transform" dur="72s" repeatCount="indefinite" type="rotate" values="360;0"/></g></g><g fill="none" stroke="url(#e)" stroke-linecap="round" stroke-width="2.5"><line x1="550" x2="550" y1="172" y2="155"><animate attributeName="opacity" begin="0s" dur="3.6s" repeatCount="indefinite" values="0.5;1;0.5"/></line><line x1="661" x2="833" y1="251" y2="191"><animate attributeName="opacity" begin="0.5s" dur="3.6s" repeatCount="indefinite" values="0.5;1;0.5"/></line><line x1="661" x2="833" y1="329" y2="389"><animate attributeName="opacity" begin="1.0s" dur="3.6s" repeatCount="indefinite" values="0.5;1;0.5"/></line><line x1="550" x2="550" y1="408" y2="425"><animate attributeName="opacity" begin="1.5s" dur="3.6s" repeatCount="indefinite" values="0.5;1;0.5"/></line><line x1="439" x2="267" y1="329" y2="389"><animate attributeName="opacity" begin="2.0s" dur="3.6s" repeatCount="indefinite" values="0.5;1;0.5"/></line><line x1="439" x2="267" y1="251" y2="191"><animate attributeName="opacity" begin="2.5s" dur="3.6s" repeatCount="indefinite" values="0.5;1;0.5"/></line></g><g fill="#fff4c2" stroke="#a07c3a" stroke-width=".5"><polygon points="550,155 545,164 550,162 555,164"/><circle cx="550" cy="159" r="1.6"><animate attributeName="opacity" begin="0s" dur="2.4s" repeatCount="indefinite" values="0.4;1;0.4"/></circle><polygon points="833,191 825,198 830,198 828,202"/><circle cx="832" cy="196" r="1.6"><animate attributeName="opacity" begin="0.4s" dur="2.4s" repeatCount="indefinite" values="0.4;1;0.4"/></circle><polygon points="833,391 825,384 830,384 828,380"/><circle cx="831" cy="386" r="1.6"><animate attributeName="opacity" begin="0.8s" dur="2.4s" repeatCount="indefinite" values="0.4;1;0.4"/></circle><polygon points="550,425 545,416 550,418 555,416"/><circle cx="550" cy="421" r="1.6"><animate attributeName="opacity" begin="1.2s" dur="2.4s" repeatCount="indefinite" values="0.4;1;0.4"/></circle><polygon points="267,391 275,384 270,384 272,380"/><circle cx="269" cy="386" r="1.6"><animate attributeName="opacity" begin="1.6s" dur="2.4s" repeatCount="indefinite" values="0.4;1;0.4"/></circle><polygon points="267,189 275,196 270,196 272,200"/><circle cx="269" cy="194" r="1.6"><animate attributeName="opacity" begin="2.0s" dur="2.4s" repeatCount="indefinite" values="0.4;1;0.4"/></circle></g><g transform="translate(550 290)"><circle r="118" fill="#1a0838" stroke="url(#b)" stroke-width="2.5"/><circle r="112" fill="none" stroke="#f6d97c" stroke-width=".5" opacity=".5"/><circle r="100" fill="none" stroke="#a07c3a" opacity=".7"/><g fill="none" stroke="#f6d97c" stroke-width=".6" opacity=".18"><line x1="-92" x2="92"/><line y1="-92" y2="92"/></g><g fill="url(#f)"><path d="M-6 28q-16 10-36 18 12-6 36-14Z"/><path d="M6 28q16 10 36 18-12-6-36-14Z"/><path d="M-3 28v18h6V28Z"/></g><ellipse cy="46" fill="#0a0408" opacity=".7" rx="38" ry="2.5"/><path fill="url(#f)" stroke="#1a1a1a" stroke-width=".6" d="m-7 28 2-58H5l2 58Z"/><line x1="-2" x2="-2" y1="-28" y2="26" stroke="#dcdee2" stroke-width=".7" opacity=".85"/><line x1="2" x2="2" y1="-28" y2="20" stroke="#dcdee2" stroke-width=".4" opacity=".6"/><g fill="url(#f)"><path d="M-5-12q-17-8-29-18 12 8 29 20Z"/><path d="M5-12q17-8 29-18-12 8-29 20Z"/><path d="M-4-22q-12-18-18-32 9 16 18 34Z"/><path d="M4-22q12-18 18-32-9 16-18 34Z"/><path d="M-2-30v-28h4v28Z"/></g><g fill="#fff4c2" stroke="#a07c3a" stroke-width=".6"><circle cx="-34" cy="-30" r="13" opacity=".88"/><circle cx="34" cy="-30" r="13" opacity=".88"/><circle cx="-22" cy="-54" r="11" opacity=".88"/><circle cx="22" cy="-54" r="11" opacity=".88"/><circle cy="-58" r="14" opacity=".88"/></g><g fill="#f6d97c" opacity=".55"><circle cx="-36" cy="-32" r="4"/><circle cx="32" cy="-32" r="4"/><circle cx="-24" cy="-56" r="3"/><circle cx="20" cy="-56" r="3"/><circle cx="-3" cy="-60" r="4"/></g><circle cy="32" r="22" fill="url(#g)"><animate attributeName="r" dur="2.4s" repeatCount="indefinite" values="20;26;20"/><animate attributeName="opacity" dur="2.4s" repeatCount="indefinite" values="0.55;1;0.55"/></circle><circle cy="32" r="6" fill="#fff4c2"><animate attributeName="r" dur="1.5s" repeatCount="indefinite" values="5;7;5"/></circle><circle cy="32" r="3" fill="#fff" filter="url(#h)"/><path fill="#a07c3a" stroke="#3a2412" stroke-width=".8" d="m-32 5-6-5 6-3h64l6 3-6 5 6 7-6 3h-64l-6-3Z"/><path fill="#5a3a1f" d="m-30 5-2 10h64L30 5Z"/><path stroke="#fff4c2" stroke-width=".4" d="M-32 3h64" opacity=".7"/><text y="11" fill="#fff4c2" font-family="Georgia, serif" font-size="13" font-weight="900" text-anchor="middle">52+</text><text y="82" fill="#a07c3a" font-family="Georgia, serif" font-size="9" font-style="italic" letter-spacing="3" text-anchor="middle">entités tissées</text><text y="96" fill="#f6d97c" font-family="Georgia, serif" font-size="11" font-weight="bold" letter-spacing="3" text-anchor="middle">L&apos;ARBRE D&apos;ARGENT</text><text y="108" fill="#a07c3a" font-family="Georgia, serif" font-size="8" font-style="italic" text-anchor="middle">âme du royaume</text></g><g transform="translate(550 105)"><circle r="56" fill="url(#i)"><animate attributeName="opacity" begin="0s" dur="3.6s" repeatCount="indefinite" values="0.45;0.85;0.45"/></circle><circle r="50" fill="#fff4c2" stroke="url(#b)" stroke-width="2"/><circle r="44" fill="none" stroke="#a07c3a" stroke-width=".6" opacity=".6"/><circle cy="-6" r="40" fill="url(#j)" opacity=".5"/><g transform="translate(0 -18)"><ellipse fill="#f0e0c0" stroke="#3a2412" stroke-width=".9" rx="13" ry="14"/><ellipse cx="-9" cy="6" fill="#3a2412" opacity=".55" rx="3.5" ry="2.5"/><ellipse cx="9" cy="6" fill="#3a2412" opacity=".55" rx="3.5" ry="2.5"/><ellipse cx="-5" cy="-1" fill="#1a0808" rx="3" ry="4"/><ellipse cx="5" cy="-1" fill="#1a0808" rx="3" ry="4"/><circle cx="-5" cy="-1" r="1.8" fill="#ff5722"><animate attributeName="opacity" begin="0s" dur="1.4s" repeatCount="indefinite" values="0.45;1;0.45"/></circle><circle cx="5" cy="-1" r="1.8" fill="#ff5722"><animate attributeName="opacity" begin="0.3s" dur="1.4s" repeatCount="indefinite" values="0.45;1;0.45"/></circle><polygon fill="#1a0808" points="-1,3 1,3 0,6"/><rect width="14" height="5" x="-7" y="8" fill="#e0d0b0" stroke="#3a2412" stroke-width=".5"/><line x1="-5" x2="-5" y1="8" y2="13" stroke="#3a2412" stroke-width=".4"/><line x1="-2" x2="-2" y1="8" y2="13" stroke="#3a2412" stroke-width=".4"/><line x1="2" x2="2" y1="8" y2="13" stroke="#3a2412" stroke-width=".4"/><line x1="5" x2="5" y1="8" y2="13" stroke="#3a2412" stroke-width=".4"/><polygon fill="#fff" points="-7,10 -5,10 -6,15"/><polygon fill="#fff" points="7,10 5,10 6,15"/></g><text y="14" fill="#a13a2a" font-family="Georgia, serif" font-size="22" font-weight="900" text-anchor="middle">5+1</text><text y="30" fill="#3a2412" font-family="Georgia, serif" font-size="9" font-weight="bold" letter-spacing="2" text-anchor="middle">BESTIAIRE</text><text y="42" fill="#5a3a1f" font-family="Georgia, serif" font-size="7" font-style="italic" text-anchor="middle">5 créatures + Mordrak</text></g><g transform="translate(880 175)"><circle r="56" fill="url(#c)" opacity=".55"><animate attributeName="opacity" begin="0.5s" dur="3.6s" repeatCount="indefinite" values="0.45;0.85;0.45"/></circle><circle r="50" fill="#fff4c2" stroke="url(#b)" stroke-width="2"/><circle r="44" fill="none" stroke="#a07c3a" stroke-width=".6" opacity=".6"/><circle cy="-6" r="40" fill="url(#c)" opacity=".5"/><g transform="translate(0 -18)"><path fill="#fff4c2" stroke="#a07c3a" stroke-width=".9" d="M-16-8q4-4 12-2h8q8-2 12 2V7Q12 3 4 5h-8q-8-2-12 2Z"/><ellipse cx="-14" cy="-8" fill="#d8be83" stroke="#a07c3a" stroke-width=".5" rx="2.5" ry="3.5"/><ellipse cx="14" cy="-8" fill="#d8be83" stroke="#a07c3a" stroke-width=".5" rx="2.5" ry="3.5"/><path fill="none" stroke="#a13a2a" stroke-dasharray="2 2" stroke-width="1.2" d="M-10-3q8 6 18 1"/><polygon fill="#f6d97c" stroke="#a07c3a" stroke-width=".3" points="7,-3 10,0 7,3 5,0"/><circle cx="11" cy="6" r="4.5" fill="#a13a2a" stroke="#3a2412" stroke-width=".5"/><path fill="#f6d97c" d="m11 3 1 2h2l-1.5 1.5L13 9l-2-1.5L9 9l.5-2.5L8 5h2Z"/></g><text y="14" fill="#a13a2a" font-family="Georgia, serif" font-size="22" font-weight="900" text-anchor="middle">5</text><text y="30" fill="#3a2412" font-family="Georgia, serif" font-size="9" font-weight="bold" letter-spacing="2" text-anchor="middle">QUÊTES</text><text y="42" fill="#5a3a1f" font-family="Georgia, serif" font-size="7" font-style="italic" text-anchor="middle">chaîne héroïque</text></g><g transform="translate(880 405)"><circle r="56" fill="url(#c)" opacity=".55"><animate attributeName="opacity" begin="1.0s" dur="3.6s" repeatCount="indefinite" values="0.45;0.85;0.45"/></circle><circle r="50" fill="#fff4c2" stroke="url(#b)" stroke-width="2"/><circle r="44" fill="none" stroke="#a07c3a" stroke-width=".6" opacity=".6"/><circle cy="-6" r="40" fill="url(#c)" opacity=".5"/><g transform="translate(0 -18)"><ellipse cy="-2" fill="#2a0a3d" stroke="#f6d97c" stroke-width=".5" opacity=".92" rx="14" ry="15"/><path fill="#3a0a2e" stroke="#a07c3a" stroke-width=".5" d="M-13 5q-5 5-2 10h30q3-5-2-10Z"/><ellipse fill="#0a0408" rx="9" ry="10"/><circle cx="-2" cy="-1" r="2.2" fill="#a8d4ff"><animate attributeName="opacity" dur="1.8s" repeatCount="indefinite" values="0.6;1;0.6"/></circle><circle cx="-2" cy="-1" r=".9" fill="#fff"/><circle cx="2" cy="-1" r="1.5" fill="#a8d4ff" opacity=".5"/><path fill="none" stroke="#dcdee2" stroke-width="1.4" d="M-5 6Q0 9 5 6"/><path fill="none" stroke="#dcdee2" stroke-width=".9" d="M-3 9q3 2 6 0"/><line x1="13" x2="17" y1="14" y2="17" stroke="#a07c3a" stroke-linecap="round" stroke-width="1.5"/><circle cx="17" cy="17" r="2" fill="#fff4c2"><animate attributeName="opacity" dur="1.6s" repeatCount="indefinite" values="0.5;1;0.5"/></circle></g><text y="14" fill="#a13a2a" font-family="Georgia, serif" font-size="22" font-weight="900" text-anchor="middle">4</text><text y="30" fill="#3a2412" font-family="Georgia, serif" font-size="9" font-weight="bold" letter-spacing="2" text-anchor="middle">MENTORS</text><text y="42" fill="#5a3a1f" font-family="Georgia, serif" font-size="7" font-style="italic" text-anchor="middle">PNJ &amp; dialogues</text></g><g transform="translate(550 475)"><circle r="56" fill="url(#k)" opacity=".7"><animate attributeName="opacity" begin="1.5s" dur="3.6s" repeatCount="indefinite" values="0.5;0.95;0.5"/></circle><circle r="50" fill="#fff4c2" stroke="url(#b)" stroke-width="2"/><circle r="44" fill="none" stroke="#a07c3a" stroke-width=".6" opacity=".6"/><circle cy="-6" r="40" fill="url(#k)" opacity=".6"/><g transform="translate(0 -18)"><path fill="#a07c3a" stroke="#3a2412" stroke-width=".9" d="M-14-2q0-10 14-10T14-2Z"/><path fill="#5a5a5a" stroke="#1a1a1a" stroke-width=".3" d="M-12-7q0-2 2-2t2 2Z"/><path fill="#5a5a5a" stroke="#1a1a1a" stroke-width=".3" d="M8-7q0-2 2-2t2 2Z"/><rect width="28" height="14" x="-14" y="-2" fill="#a07c3a" stroke="#3a2412" stroke-width=".9"/><rect width="28" height="2.5" x="-14" y="3" fill="#5a5a5a" stroke="#1a1a1a" stroke-width=".3"/><rect width="6" height="6" x="-3" y="-3" fill="#5a5a5a" stroke="#1a1a1a" stroke-width=".3" rx="1"/><circle r="1.2" fill="#0a0408"/><circle cx="-6" cy="-13" r="1" fill="#fff4c2"><animate attributeName="opacity" begin="0s" dur="2.4s" repeatCount="indefinite" values="0.2;1;0.2"/></circle><circle cy="-16" r="1.3" fill="#fff4c2"><animate attributeName="opacity" begin="0.6s" dur="2.4s" repeatCount="indefinite" values="0.2;1;0.2"/></circle><circle cx="6" cy="-13" r="1" fill="#fff4c2"><animate attributeName="opacity" begin="1.2s" dur="2.4s" repeatCount="indefinite" values="0.2;1;0.2"/></circle></g><text y="14" fill="#a13a2a" font-family="Georgia, serif" font-size="22" font-weight="900" text-anchor="middle">7</text><text y="30" fill="#3a2412" font-family="Georgia, serif" font-size="9" font-weight="bold" letter-spacing="2" text-anchor="middle">COFFRES</text><text y="42" fill="#5a3a1f" font-family="Georgia, serif" font-size="7" font-style="italic" text-anchor="middle">butins cachés</text></g><g transform="translate(220 405)"><circle r="56" fill="url(#c)" opacity=".55"><animate attributeName="opacity" begin="2.0s" dur="3.6s" repeatCount="indefinite" values="0.45;0.85;0.45"/></circle><circle r="50" fill="#fff4c2" stroke="url(#b)" stroke-width="2"/><circle r="44" fill="none" stroke="#a07c3a" stroke-width=".6" opacity=".6"/><circle cy="-6" r="40" fill="url(#j)" opacity=".45"/><g transform="translate(0 -18)"><path fill="#1a0838" d="m-15 12 3-4h9V5h6v3h9l3 4v4h-30Z"/><path fill="#fff4c2" stroke="#3a2412" stroke-width=".9" d="M-4-12v8q-4 4-4 9 0 8 8 8t8-8q0-5-4-9v-8Z" opacity=".92"/><rect width="6" height="4" x="-3" y="-16" fill="#a07c3a" stroke="#3a2412" stroke-width=".5"/><path fill="#a13a2a" d="M-7 6Q0 9 7 6q0 6-7 7-7-1-7-7"/><circle cx="-3" cy="3" r=".9" fill="#fff4c2" opacity=".7"/><circle cx="3" cy="1" r=".7" fill="#fff4c2" opacity=".7"/><circle cy="-1" r=".5" fill="#fff4c2" opacity=".7"/><path fill="none" stroke="#fff4c2" stroke-width=".7" d="M-1-17q-1-3 1-5t0-4" opacity=".6"/></g><text y="14" fill="#a13a2a" font-family="Georgia, serif" font-size="22" font-weight="900" text-anchor="middle">7</text><text y="30" fill="#3a2412" font-family="Georgia, serif" font-size="9" font-weight="bold" letter-spacing="2" text-anchor="middle">RECETTES</text><text y="42" fill="#5a3a1f" font-family="Georgia, serif" font-size="7" font-style="italic" text-anchor="middle">forge &amp; potions</text></g><g transform="translate(220 175)"><circle r="56" fill="url(#c)" opacity=".55"><animate attributeName="opacity" begin="2.5s" dur="3.6s" repeatCount="indefinite" values="0.45;0.85;0.45"/></circle><circle r="50" fill="#fff4c2" stroke="url(#b)" stroke-width="2"/><circle r="44" fill="none" stroke="#a07c3a" stroke-width=".6" opacity=".6"/><circle cy="-6" r="40" fill="url(#j)" opacity=".55"/><g transform="translate(0 -18)"><path fill="#3a2412" d="M-2-12v22l2 2v-22Z"/><path fill="#3a2412" d="M2-12v22l-2 2v-22Z"/><path fill="#fff4c2" stroke="#a07c3a" stroke-width=".7" d="m0-12-15 2V8l15 2Z"/><path fill="#fff4c2" stroke="#a07c3a" stroke-width=".7" d="m0-12 15 2V8L0 10Z"/><ellipse cx="-15" cy="-10" fill="#d8be83" stroke="#a07c3a" stroke-width=".3" rx="2" ry="2.6"/><ellipse cx="15" cy="-10" fill="#d8be83" stroke="#a07c3a" stroke-width=".3" rx="2" ry="2.6"/><line x1="-12" x2="-4" y1="-6" y2="-6" stroke="#5a3a1f" stroke-width=".6"/><line x1="-12" x2="-4" y1="-3" y2="-3" stroke="#5a3a1f" stroke-width=".6"/><line x1="-12" x2="-6" stroke="#5a3a1f" stroke-width=".6"/><line x1="-12" x2="-4" y1="3" y2="3" stroke="#5a3a1f" stroke-width=".6"/><line x1="-12" x2="-7" y1="6" y2="6" stroke="#5a3a1f" stroke-width=".6"/><line x1="4" x2="12" y1="-6" y2="-6" stroke="#5a3a1f" stroke-width=".6"/><line x1="4" x2="12" y1="-3" y2="-3" stroke="#5a3a1f" stroke-width=".6"/><line x1="6" x2="12" stroke="#5a3a1f" stroke-width=".6"/><line x1="4" x2="12" y1="3" y2="3" stroke="#5a3a1f" stroke-width=".6"/><line x1="7" x2="12" y1="6" y2="6" stroke="#5a3a1f" stroke-width=".6"/><polygon fill="#ff5722" points="0,-15 1.2,-19 0,-23 -1.2,-19"><animate attributeName="opacity" dur="1.4s" repeatCount="indefinite" values="0.4;1;0.4"/></polygon><circle cy="-19" r="4" fill="#ff8a96" opacity=".45"><animate attributeName="r" dur="2.1s" repeatCount="indefinite" values="3;6;3"/></circle></g><text y="14" fill="#a13a2a" font-family="Georgia, serif" font-size="22" font-weight="900" text-anchor="middle">5</text><text y="30" fill="#3a2412" font-family="Georgia, serif" font-size="9" font-weight="bold" letter-spacing="2" text-anchor="middle">ARTS ARCANES</text><text y="42" fill="#5a3a1f" font-family="Georgia, serif" font-size="7" font-style="italic" text-anchor="middle">sorts cycliques</text></g><text x="550" y="528" fill="#a07c3a" font-family="Georgia, serif" font-size="11" font-style="italic" letter-spacing="2" text-anchor="middle">✦  six astres brillent au-dessus du Sceau central — chaque rayon pulse vers l&apos;Arbre d&apos;Argent, âme du royaume  ✦</text></svg>