<?xml version="1.0" encoding="UTF-8" standalone="no"?>
<svg xmlns="http://www.w3.org/2000/svg" viewBox="0 0 1100 560" preserveAspectRatio="xMidYMid meet" role="img" aria-label="Le Grand Sceau d'Eldoria — six piliers rayonnant autour de l'Arbre d'Argent">
  <title>Le Grand Sceau d'Eldoria</title>
  <desc>Six astres (bestiaire, quêtes, mentors, coffres, recettes, arts arcanes) rayonnent depuis l'Arbre d'Argent — chiffres réels : 5+1 créatures, 5 quêtes, 4 mentors, 7 coffres, 7 recettes, 5 sorts — pour un total de 52+ entités tissées.</desc>

  <defs>
    <linearGradient id="capGold" x1="0" y1="0" x2="0" y2="1">
      <stop offset="0%" stop-color="#fff4c2"/><stop offset="50%" stop-color="#f6d97c"/><stop offset="100%" stop-color="#a07c3a"/>
    </linearGradient>
    <linearGradient id="capParch" x1="0" y1="0" x2="0" y2="1">
      <stop offset="0%" stop-color="#1a0838"/><stop offset="100%" stop-color="#3a2412"/>
    </linearGradient>
    <linearGradient id="capSilver" x1="0" y1="0" x2="1" y2="0">
      <stop offset="0%" stop-color="#7c8088"/><stop offset="50%" stop-color="#dcdee2"/><stop offset="100%" stop-color="#7c8088"/>
    </linearGradient>
    <linearGradient id="capBark" x1="0" y1="0" x2="1" y2="0">
      <stop offset="0%" stop-color="#3a3a3a"/><stop offset="50%" stop-color="#7c8088"/><stop offset="100%" stop-color="#5a5a5a"/>
    </linearGradient>
    <radialGradient id="capCenterGlow" cx="0.5" cy="0.5" r="0.5">
      <stop offset="0%" stop-color="#fff4c2" stop-opacity="0.85"/><stop offset="55%" stop-color="#f6d97c" stop-opacity="0.25"/><stop offset="100%" stop-color="#f6d97c" stop-opacity="0"/>
    </radialGradient>
    <radialGradient id="capTreeEmber" cx="0.5" cy="0.5" r="0.5">
      <stop offset="0%" stop-color="#fff4c2" stop-opacity="0.95"/><stop offset="40%" stop-color="#ff8a96" stop-opacity="0.7"/><stop offset="100%" stop-color="#ff3344" stop-opacity="0"/>
    </radialGradient>
    <radialGradient id="capLootGlow" cx="0.5" cy="0.5" r="0.5">
      <stop offset="0%" stop-color="#f6d97c"/><stop offset="100%" stop-color="#a07c3a" stop-opacity="0"/>
    </radialGradient>
    <radialGradient id="capFireGlow" cx="0.5" cy="0.5" r="0.5">
      <stop offset="0%" stop-color="#ff8a96"/><stop offset="100%" stop-color="#ff3344" stop-opacity="0"/>
    </radialGradient>
    <radialGradient id="capBeastGlow" cx="0.5" cy="0.5" r="0.5">
      <stop offset="0%" stop-color="#ff5722" stop-opacity="0.45"/><stop offset="100%" stop-color="#ff5722" stop-opacity="0"/>
    </radialGradient>
    <linearGradient id="capRune" x1="0" y1="0" x2="1" y2="0">
      <stop offset="0%" stop-color="#f6d97c" stop-opacity="0"/><stop offset="50%" stop-color="#f6d97c"/><stop offset="100%" stop-color="#f6d97c" stop-opacity="0"/>
    </linearGradient>
    <linearGradient id="capSpoke" x1="0" y1="0" x2="0" y2="1">
      <stop offset="0%" stop-color="#fff4c2" stop-opacity="0.45"/><stop offset="100%" stop-color="#f6d97c" stop-opacity="1"/>
    </linearGradient>
    <filter id="capBlur"><feGaussianBlur stdDeviation="1.4"/></filter>
    <filter id="capBlurSoft"><feGaussianBlur stdDeviation="3"/></filter>
  </defs>

  <!-- ===== Backdrop cartouche ===== -->
  <rect width="1100" height="560" rx="14" fill="url(#capParch)"/>
  <rect x="6" y="6" width="1088" height="548" fill="none" stroke="url(#capGold)" stroke-width="2" opacity="0.6" rx="12"/>
  <rect x="14" y="14" width="1072" height="532" fill="none" stroke="#f6d97c" stroke-width="0.5" opacity="0.4" rx="10"/>
  <text x="20" y="40" font-family="Georgia, serif" font-size="20" fill="#a07c3a">❦</text>
  <text x="1080" y="40" font-family="Georgia, serif" font-size="20" fill="#a07c3a" text-anchor="end">❧</text>
  <text x="20" y="540" font-family="Georgia, serif" font-size="20" fill="#a07c3a">❧</text>
  <text x="1080" y="540" font-family="Georgia, serif" font-size="20" fill="#a07c3a" text-anchor="end">❦</text>

  <!-- ===== Twinkling backdrop stars ===== -->
  <g fill="#f6d97c">
    <circle cx="120" cy="120" r="1.5"><animate attributeName="opacity" values="0.2;1;0.2" dur="3.2s" begin="0s" repeatCount="indefinite"/></circle>
    <circle cx="980" cy="140" r="1.5"><animate attributeName="opacity" values="0.2;1;0.2" dur="3.2s" begin="0.4s" repeatCount="indefinite"/></circle>
    <circle cx="80" cy="430" r="1.5"><animate attributeName="opacity" values="0.2;1;0.2" dur="3.2s" begin="0.8s" repeatCount="indefinite"/></circle>
    <circle cx="1020" cy="420" r="1.5"><animate attributeName="opacity" values="0.2;1;0.2" dur="3.2s" begin="1.2s" repeatCount="indefinite"/></circle>
    <circle cx="200" cy="500" r="1.5"><animate attributeName="opacity" values="0.2;1;0.2" dur="3.2s" begin="1.6s" repeatCount="indefinite"/></circle>
    <circle cx="900" cy="500" r="1.5"><animate attributeName="opacity" values="0.2;1;0.2" dur="3.2s" begin="2.0s" repeatCount="indefinite"/></circle>
    <circle cx="40" cy="280" r="1.5"><animate attributeName="opacity" values="0.2;1;0.2" dur="3.2s" begin="2.4s" repeatCount="indefinite"/></circle>
    <circle cx="1060" cy="280" r="1.5"><animate attributeName="opacity" values="0.2;1;0.2" dur="3.2s" begin="2.8s" repeatCount="indefinite"/></circle>
  </g>

  <!-- ===== Header block (eyebrow + main title + subtitle) ===== -->
  <g text-anchor="middle">
    <ellipse cx="550" cy="32" rx="380" ry="14" fill="url(#capCenterGlow)" opacity="0.55"/>
    <text x="550" y="34" font-family="Georgia, serif" font-size="11" fill="#f6d97c" letter-spacing="6" font-weight="bold">◆  SIX PILIERS — UN SEUL ROYAUME  ◆</text>
    <text x="550" y="58" font-family="Georgia, serif" font-size="18" font-weight="900" fill="#fff4c2" letter-spacing="1">Ce qu'Eldoria a sous le capot</text>
  </g>
  <!-- Subtitle is intentionally removed from the header band —
       at y=74 it was rendered under the TOP medallion disc
       (paint order: header before medallions). The tagline now lives
       in the bottom legend below so it remains visible. -->

  <!-- ===== Halo + dashed rotating ring + 8 mini-runes ===== -->
  <circle cx="550" cy="290" r="200" fill="url(#capCenterGlow)">
    <animate attributeName="r" values="190;215;190" dur="5s" repeatCount="indefinite"/>
    <animate attributeName="opacity" values="0.6;1;0.6" dur="5s" repeatCount="indefinite"/>
  </circle>

  <g transform="translate(550 290)">
    <g>
      <circle r="178" fill="none" stroke="url(#capRune)" stroke-width="2.5" stroke-dasharray="3 8" opacity="0.7"/>
      <animateTransform attributeName="transform" type="rotate" values="0;360" dur="48s" repeatCount="indefinite"/>
    </g>
    <g fill="#f6d97c" font-family="Georgia, serif" font-size="14">
      <text x="0" y="-185" text-anchor="middle">✦</text>
      <text x="131" y="-131" text-anchor="middle">✧</text>
      <text x="185" y="0" text-anchor="middle" dy="5">◆</text>
      <text x="131" y="131" text-anchor="middle">✦</text>
      <text x="0" y="190" text-anchor="middle" dy="6">✧</text>
      <text x="-131" y="131" text-anchor="middle">◆</text>
      <text x="-185" y="0" text-anchor="middle" dy="5">✧</text>
      <text x="-131" y="-131" text-anchor="middle">✦</text>
    </g>
  </g>

  <g transform="translate(550 290)">
    <circle r="140" fill="none" stroke="#a07c3a" stroke-width="1" stroke-dasharray="2 6" opacity="0.5"/>
    <g>
      <circle r="140" fill="none" stroke="#f6d97c" stroke-width="0.6" opacity="0.5"/>
      <animateTransform attributeName="transform" type="rotate" values="360;0" dur="72s" repeatCount="indefinite"/>
    </g>
  </g>

  <!-- ===== Six glowing spokes (sigil edge → medallion) ===== -->
  <!-- Spoke geometry computed from center (550, 290), sigil r=118, medallion r=50. -->
  <!-- TOP:        (550,172) → (550,155).  horizontal axis stays at x=550 -->
  <!-- TOP-RIGHT:  (661,251) → (833,191) -->
  <!-- BTM-RIGHT:  (661,329) → (833,389) -->
  <!-- BOTTOM:     (550,408) → (550,425) -->
  <!-- BTM-LEFT:   (439,329) → (267,389) -->
  <!-- TOP-LEFT:   (439,251) → (267,191) -->

  <g stroke="url(#capSpoke)" stroke-width="2.5" fill="none" stroke-linecap="round">
    <line x1="550" y1="172" x2="550" y2="155"><animate attributeName="opacity" values="0.5;1;0.5" dur="3.6s" begin="0s" repeatCount="indefinite"/></line>
    <line x1="661" y1="251" x2="833" y2="191"><animate attributeName="opacity" values="0.5;1;0.5" dur="3.6s" begin="0.5s" repeatCount="indefinite"/></line>
    <line x1="661" y1="329" x2="833" y2="389"><animate attributeName="opacity" values="0.5;1;0.5" dur="3.6s" begin="1.0s" repeatCount="indefinite"/></line>
    <line x1="550" y1="408" x2="550" y2="425"><animate attributeName="opacity" values="0.5;1;0.5" dur="3.6s" begin="1.5s" repeatCount="indefinite"/></line>
    <line x1="439" y1="329" x2="267" y2="389"><animate attributeName="opacity" values="0.5;1;0.5" dur="3.6s" begin="2.0s" repeatCount="indefinite"/></line>
    <line x1="439" y1="251" x2="267" y2="191"><animate attributeName="opacity" values="0.5;1;0.5" dur="3.6s" begin="2.5s" repeatCount="indefinite"/></line>
  </g>
  <!-- Flame-tip arrow heads at the medallion end of each spoke.
       Each tip is a 3-pronged chevron ~12px wide, paired with a pulsing
       gold spark to read clearly against the parchment disc. -->
  <g stroke="#a07c3a" stroke-width="0.5">
    <!-- TOP — vertical flame (tip lands exactly on spoke-end y=155) -->
    <polygon fill="#fff4c2" points="550,155 545,164 550,162 555,164"/>
    <circle cx="550" cy="159" r="1.6" fill="#fff4c2">
      <animate attributeName="opacity" values="0.4;1;0.4" dur="2.4s" begin="0s" repeatCount="indefinite"/>
    </circle>
    <!-- TR — flame oriented up-left (tip lands on spoke-end (833,191)) -->
    <polygon fill="#fff4c2" points="833,191 825,198 830,198 828,202"/>
    <circle cx="832" cy="196" r="1.6" fill="#fff4c2">
      <animate attributeName="opacity" values="0.4;1;0.4" dur="2.4s" begin="0.4s" repeatCount="indefinite"/>
    </circle>
    <!-- BR — flame oriented down-left -->
    <polygon fill="#fff4c2" points="833,391 825,384 830,384 828,380"/>
    <circle cx="831" cy="386" r="1.6" fill="#fff4c2">
      <animate attributeName="opacity" values="0.4;1;0.4" dur="2.4s" begin="0.8s" repeatCount="indefinite"/>
    </circle>
    <!-- BOTTOM — vertical flame pointing down (tip at spoke-end y=425) -->
    <polygon fill="#fff4c2" points="550,425 545,416 550,418 555,416"/>
    <circle cx="550" cy="421" r="1.6" fill="#fff4c2">
      <animate attributeName="opacity" values="0.4;1;0.4" dur="2.4s" begin="1.2s" repeatCount="indefinite"/>
    </circle>
    <!-- BL — flame oriented down-right -->
    <polygon fill="#fff4c2" points="267,391 275,384 270,384 272,380"/>
    <circle cx="269" cy="386" r="1.6" fill="#fff4c2">
      <animate attributeName="opacity" values="0.4;1;0.4" dur="2.4s" begin="1.6s" repeatCount="indefinite"/>
    </circle>
    <!-- TL — flame oriented up-right -->
    <polygon fill="#fff4c2" points="267,189 275,196 270,196 272,200"/>
    <circle cx="269" cy="194" r="1.6" fill="#fff4c2">
      <animate attributeName="opacity" values="0.4;1;0.4" dur="2.4s" begin="2.0s" repeatCount="indefinite"/>
    </circle>
  </g>

  <!-- ===== Central sigil — L'Arbre d'Argent (Yggdrasil-inspired) ===== -->
  <g transform="translate(550 290)">
    <!-- Outer disc -->
    <circle r="118" fill="#1a0838" stroke="url(#capGold)" stroke-width="2.5"/>
    <circle r="112" fill="none" stroke="#f6d97c" stroke-width="0.5" opacity="0.5"/>
    <circle r="100" fill="none" stroke="#a07c3a" stroke-width="1" opacity="0.7"/>

    <!-- Faint compass cross on dark disc -->
    <g stroke="#f6d97c" stroke-width="0.6" opacity="0.18" fill="none">
      <line x1="-92" y1="0" x2="92" y2="0"/>
      <line x1="0" y1="-92" x2="0" y2="92"/>
    </g>

    <!-- Roots: 3 sweeping silver-grey curves below the trunk -->
    <g fill="url(#capBark)">
      <path d="M-6,28 Q-22,38 -42,46 Q-30,40 -6,32 Z"/>
      <path d="M6,28 Q22,38 42,46 Q30,40 6,32 Z"/>
      <path d="M-3,28 L-3,46 L3,46 L3,28 Z"/>
    </g>
    <!-- Soil shadow -->
    <ellipse cx="0" cy="46" rx="38" ry="2.5" fill="#0a0408" opacity="0.7"/>

    <!-- Trunk (tapered, silver gradient) -->
    <path d="M-7,28 L-5,-30 L5,-30 L7,28 Z" fill="url(#capBark)" stroke="#1a1a1a" stroke-width="0.6"/>
    <line x1="-2" y1="-28" x2="-2" y2="26" stroke="#dcdee2" stroke-width="0.7" opacity="0.85"/>
    <line x1="2" y1="-28" x2="2" y2="20" stroke="#dcdee2" stroke-width="0.4" opacity="0.6"/>

    <!-- Silver branches (5 sweeping curves) -->
    <g fill="url(#capBark)">
      <path d="M-5,-12 Q-22,-20 -34,-30 Q-22,-22 -5,-10 Z"/>
      <path d="M5,-12 Q22,-20 34,-30 Q22,-22 5,-10 Z"/>
      <path d="M-4,-22 Q-16,-40 -22,-54 Q-13,-38 -4,-20 Z"/>
      <path d="M4,-22 Q16,-40 22,-54 Q13,-38 4,-20 Z"/>
      <path d="M-2,-30 L-2,-58 L2,-58 L2,-30 Z"/>
    </g>

    <!-- Silver/cream leaf clusters (5) -->
    <g fill="#fff4c2" stroke="#a07c3a" stroke-width="0.6">
      <circle cx="-34" cy="-30" r="13" opacity="0.88"/>
      <circle cx="34" cy="-30" r="13" opacity="0.88"/>
      <circle cx="-22" cy="-54" r="11" opacity="0.88"/>
      <circle cx="22" cy="-54" r="11" opacity="0.88"/>
      <circle cx="0" cy="-58" r="14" opacity="0.88"/>
    </g>
    <!-- Inner highlight on each leaf cluster -->
    <g fill="#f6d97c" opacity="0.55">
      <circle cx="-36" cy="-32" r="4"/>
      <circle cx="32" cy="-32" r="4"/>
      <circle cx="-24" cy="-56" r="3"/>
      <circle cx="20" cy="-56" r="3"/>
      <circle cx="-3" cy="-60" r="4"/>
    </g>

    <!-- Glowing ember heart at the base of the trunk -->
    <circle cx="0" cy="32" r="22" fill="url(#capTreeEmber)">
      <animate attributeName="r" values="20;26;20" dur="2.4s" repeatCount="indefinite"/>
      <animate attributeName="opacity" values="0.55;1;0.55" dur="2.4s" repeatCount="indefinite"/>
    </circle>
    <circle cx="0" cy="32" r="6" fill="#fff4c2">
      <animate attributeName="r" values="5;7;5" dur="1.5s" repeatCount="indefinite"/>
    </circle>
    <circle cx="0" cy="32" r="3" fill="#fff" filter="url(#capBlur)"/>

    <!-- Gold ribbon across mid-trunk carrying "52+" -->
    <g>
      <path d="M-32,5 L-38,0 L-32,-3 L32,-3 L38,0 L32,5 L38,12 L32,15 L-32,15 L-38,12 Z" fill="#a07c3a" stroke="#3a2412" stroke-width="0.8"/>
      <path d="M-30,5 L-32,15 L32,15 L30,5 Z" fill="#5a3a1f"/>
      <path d="M-32,3 L32,3" stroke="#fff4c2" stroke-width="0.4" opacity="0.7"/>
      <text x="0" y="11" text-anchor="middle" font-family="Georgia, serif" font-size="13" font-weight="900" fill="#fff4c2">52+</text>
    </g>

    <!-- Plate beneath ribbon: italic caption -->
    <text x="0" y="82" text-anchor="middle" font-family="Georgia, serif" font-size="9" fill="#a07c3a" letter-spacing="3" font-style="italic">entités tissées</text>
    <text x="0" y="96" text-anchor="middle" font-family="Georgia, serif" font-size="11" fill="#f6d97c" letter-spacing="3" font-weight="bold">L'ARBRE D'ARGENT</text>
    <text x="0" y="108" text-anchor="middle" font-family="Georgia, serif" font-size="8" fill="#a07c3a" font-style="italic">âme du royaume</text>
  </g>

  <!-- ===== 6 medallions in hexagonal pattern ===== -->

  <!-- TOP — BESTIAIRE (5+1) — Skull glyph -->
  <g transform="translate(550 105)">
    <circle r="56" fill="url(#capBeastGlow)">
      <animate attributeName="opacity" values="0.45;0.85;0.45" dur="3.6s" begin="0s" repeatCount="indefinite"/>
    </circle>
    <circle r="50" fill="#fff4c2" stroke="url(#capGold)" stroke-width="2"/>
    <circle r="44" fill="none" stroke="#a07c3a" stroke-width="0.6" opacity="0.6"/>
    <circle cx="0" cy="-6" r="40" fill="url(#capFireGlow)" opacity="0.5"/>
    <!-- Skull glyph (top half) -->
    <g transform="translate(0 -18)">
      <ellipse cx="0" cy="0" rx="13" ry="14" fill="#f0e0c0" stroke="#3a2412" stroke-width="0.9"/>
      <ellipse cx="-9" cy="6" rx="3.5" ry="2.5" fill="#3a2412" opacity="0.55"/>
      <ellipse cx="9" cy="6" rx="3.5" ry="2.5" fill="#3a2412" opacity="0.55"/>
      <ellipse cx="-5" cy="-1" rx="3" ry="4" fill="#1a0808"/>
      <ellipse cx="5" cy="-1" rx="3" ry="4" fill="#1a0808"/>
      <circle cx="-5" cy="-1" r="1.8" fill="#ff5722">
        <animate attributeName="opacity" values="0.45;1;0.45" dur="1.4s" begin="0s" repeatCount="indefinite"/>
      </circle>
      <circle cx="5" cy="-1" r="1.8" fill="#ff5722">
        <animate attributeName="opacity" values="0.45;1;0.45" dur="1.4s" begin="0.3s" repeatCount="indefinite"/>
      </circle>
      <polygon points="-1,3 1,3 0,6" fill="#1a0808"/>
      <rect x="-7" y="8" width="14" height="5" fill="#e0d0b0" stroke="#3a2412" stroke-width="0.5"/>
      <line x1="-5" y1="8" x2="-5" y2="13" stroke="#3a2412" stroke-width="0.4"/>
      <line x1="-2" y1="8" x2="-2" y2="13" stroke="#3a2412" stroke-width="0.4"/>
      <line x1="2" y1="8" x2="2" y2="13" stroke="#3a2412" stroke-width="0.4"/>
      <line x1="5" y1="8" x2="5" y2="13" stroke="#3a2412" stroke-width="0.4"/>
      <polygon points="-7,10 -5,10 -6,15" fill="#fff"/>
      <polygon points="7,10 5,10 6,15" fill="#fff"/>
    </g>
    <!-- Big count -->
    <text x="0" y="14" text-anchor="middle" font-family="Georgia, serif" font-size="22" font-weight="900" fill="#a13a2a">5+1</text>
    <text x="0" y="30" text-anchor="middle" font-family="Georgia, serif" font-size="9" font-weight="bold" fill="#3a2412" letter-spacing="2">BESTIAIRE</text>
    <text x="0" y="42" text-anchor="middle" font-family="Georgia, serif" font-size="7" fill="#5a3a1f" font-style="italic">5 créatures + Mordrak</text>
  </g>

  <!-- TOP-RIGHT — QUÊTES (5) — Map & wax seal glyph -->
  <g transform="translate(880 175)">
    <circle r="56" fill="url(#capCenterGlow)" opacity="0.55">
      <animate attributeName="opacity" values="0.45;0.85;0.45" dur="3.6s" begin="0.5s" repeatCount="indefinite"/>
    </circle>
    <circle r="50" fill="#fff4c2" stroke="url(#capGold)" stroke-width="2"/>
    <circle r="44" fill="none" stroke="#a07c3a" stroke-width="0.6" opacity="0.6"/>
    <circle cx="0" cy="-6" r="40" fill="url(#capCenterGlow)" opacity="0.5"/>
    <!-- Map glyph -->
    <g transform="translate(0 -18)">
      <path d="M-16,-8 Q-12,-12 -4,-10 L4,-10 Q12,-12 16,-8 L16,7 Q12,3 4,5 L-4,5 Q-12,3 -16,7 Z" fill="#fff4c2" stroke="#a07c3a" stroke-width="0.9"/>
      <ellipse cx="-14" cy="-8" rx="2.5" ry="3.5" fill="#d8be83" stroke="#a07c3a" stroke-width="0.5"/>
      <ellipse cx="14" cy="-8" rx="2.5" ry="3.5" fill="#d8be83" stroke="#a07c3a" stroke-width="0.5"/>
      <path d="M-10,-3 Q-2,3 8,-2" fill="none" stroke="#a13a2a" stroke-width="1.2" stroke-dasharray="2 2"/>
      <polygon points="7,-3 10,0 7,3 5,0" fill="#f6d97c" stroke="#a07c3a" stroke-width="0.3"/>
      <circle cx="11" cy="6" r="4.5" fill="#a13a2a" stroke="#3a2412" stroke-width="0.5"/>
      <path d="M11,3 L12,5 L14,5 L12.5,6.5 L13,9 L11,7.5 L9,9 L9.5,6.5 L8,5 L10,5 Z" fill="#f6d97c"/>
    </g>
    <text x="0" y="14" text-anchor="middle" font-family="Georgia, serif" font-size="22" font-weight="900" fill="#a13a2a">5</text>
    <text x="0" y="30" text-anchor="middle" font-family="Georgia, serif" font-size="9" font-weight="bold" fill="#3a2412" letter-spacing="2">QUÊTES</text>
    <text x="0" y="42" text-anchor="middle" font-family="Georgia, serif" font-size="7" fill="#5a3a1f" font-style="italic">chaîne héroïque</text>
  </g>

  <!-- BOTTOM-RIGHT — MENTORS (4) — Hooded lantern bearer glyph -->
  <g transform="translate(880 405)">
    <circle r="56" fill="url(#capCenterGlow)" opacity="0.55">
      <animate attributeName="opacity" values="0.45;0.85;0.45" dur="3.6s" begin="1.0s" repeatCount="indefinite"/>
    </circle>
    <circle r="50" fill="#fff4c2" stroke="url(#capGold)" stroke-width="2"/>
    <circle r="44" fill="none" stroke="#a07c3a" stroke-width="0.6" opacity="0.6"/>
    <circle cx="0" cy="-6" r="40" fill="url(#capCenterGlow)" opacity="0.5"/>
    <!-- Hooded mentor glyph -->
    <g transform="translate(0 -18)">
      <!-- Hood (dark purple with silver trim) -->
      <ellipse cx="0" cy="-2" rx="14" ry="15" fill="#2a0a3d" stroke="#f6d97c" stroke-width="0.5" opacity="0.92"/>
      <!-- Shoulders cape -->
      <path d="M-13,5 Q-18,10 -15,15 L15,15 Q18,10 13,5 Z" fill="#3a0a2e" stroke="#a07c3a" stroke-width="0.5"/>
      <!-- Inside hood dark area -->
      <ellipse cx="0" cy="0" rx="9" ry="10" fill="#0a0408"/>
      <!-- Glowing eye -->
      <circle cx="-2" cy="-1" r="2.2" fill="#a8d4ff">
        <animate attributeName="opacity" values="0.6;1;0.6" dur="1.8s" repeatCount="indefinite"/>
      </circle>
      <circle cx="-2" cy="-1" r="0.9" fill="#fff"/>
      <circle cx="2" cy="-1" r="1.5" fill="#a8d4ff" opacity="0.5"/>
      <!-- Beard hint (silver strands) -->
      <path d="M-5,6 Q0,9 5,6" fill="none" stroke="#dcdee2" stroke-width="1.4"/>
      <path d="M-3,9 Q0,11 3,9" fill="none" stroke="#dcdee2" stroke-width="0.9"/>
      <!-- Wand tip glow (right side) -->
      <line x1="13" y1="14" x2="17" y2="17" stroke="#a07c3a" stroke-width="1.5" stroke-linecap="round"/>
      <circle cx="17" cy="17" r="2" fill="#fff4c2">
        <animate attributeName="opacity" values="0.5;1;0.5" dur="1.6s" repeatCount="indefinite"/>
      </circle>
    </g>
    <text x="0" y="14" text-anchor="middle" font-family="Georgia, serif" font-size="22" font-weight="900" fill="#a13a2a">4</text>
    <text x="0" y="30" text-anchor="middle" font-family="Georgia, serif" font-size="9" font-weight="bold" fill="#3a2412" letter-spacing="2">MENTORS</text>
    <text x="0" y="42" text-anchor="middle" font-family="Georgia, serif" font-size="7" fill="#5a3a1f" font-style="italic">PNJ &amp; dialogues</text>
  </g>

  <!-- BOTTOM — COFFRES (7) — Treasure chest glyph -->
  <g transform="translate(550 475)">
    <circle r="56" fill="url(#capLootGlow)" opacity="0.7">
      <animate attributeName="opacity" values="0.5;0.95;0.5" dur="3.6s" begin="1.5s" repeatCount="indefinite"/>
    </circle>
    <circle r="50" fill="#fff4c2" stroke="url(#capGold)" stroke-width="2"/>
    <circle r="44" fill="none" stroke="#a07c3a" stroke-width="0.6" opacity="0.6"/>
    <circle cx="0" cy="-6" r="40" fill="url(#capLootGlow)" opacity="0.6"/>
    <!-- Treasure chest glyph -->
    <g transform="translate(0 -18)">
      <!-- Lid (arc) -->
      <path d="M-14,-2 Q-14,-12 0,-12 Q14,-12 14,-2 Z" fill="#a07c3a" stroke="#3a2412" stroke-width="0.9"/>
      <!-- Iron bands on lid -->
      <path d="M-12,-7 Q-12,-9 -10,-9 Q-8,-9 -8,-7 Z" fill="#5a5a5a" stroke="#1a1a1a" stroke-width="0.3"/>
      <path d="M8,-7 Q8,-9 10,-9 Q12,-9 12,-7 Z" fill="#5a5a5a" stroke="#1a1a1a" stroke-width="0.3"/>
      <!-- Body -->
      <rect x="-14" y="-2" width="28" height="14" fill="#a07c3a" stroke="#3a2412" stroke-width="0.9"/>
      <!-- Iron band on body -->
      <rect x="-14" y="3" width="28" height="2.5" fill="#5a5a5a" stroke="#1a1a1a" stroke-width="0.3"/>
      <!-- Lock plate -->
      <rect x="-3" y="-3" width="6" height="6" fill="#5a5a5a" stroke="#1a1a1a" stroke-width="0.3" rx="1"/>
      <circle cx="0" cy="0" r="1.2" fill="#0a0408"/>
      <!-- Sparkles flying up -->
      <circle cx="-6" cy="-13" r="1" fill="#fff4c2">
        <animate attributeName="opacity" values="0.2;1;0.2" dur="2.4s" begin="0s" repeatCount="indefinite"/>
      </circle>
      <circle cx="0" cy="-16" r="1.3" fill="#fff4c2">
        <animate attributeName="opacity" values="0.2;1;0.2" dur="2.4s" begin="0.6s" repeatCount="indefinite"/>
      </circle>
      <circle cx="6" cy="-13" r="1" fill="#fff4c2">
        <animate attributeName="opacity" values="0.2;1;0.2" dur="2.4s" begin="1.2s" repeatCount="indefinite"/>
      </circle>
    </g>
    <text x="0" y="14" text-anchor="middle" font-family="Georgia, serif" font-size="22" font-weight="900" fill="#a13a2a">7</text>
    <text x="0" y="30" text-anchor="middle" font-family="Georgia, serif" font-size="9" font-weight="bold" fill="#3a2412" letter-spacing="2">COFFRES</text>
    <text x="0" y="42" text-anchor="middle" font-family="Georgia, serif" font-size="7" fill="#5a3a1f" font-style="italic">butins cachés</text>
  </g>

  <!-- BOTTOM-LEFT — RECETTES (7) — Potion flask + anvil glyph -->
  <g transform="translate(220 405)">
    <circle r="56" fill="url(#capCenterGlow)" opacity="0.55">
      <animate attributeName="opacity" values="0.45;0.85;0.45" dur="3.6s" begin="2.0s" repeatCount="indefinite"/>
    </circle>
    <circle r="50" fill="#fff4c2" stroke="url(#capGold)" stroke-width="2"/>
    <circle r="44" fill="none" stroke="#a07c3a" stroke-width="0.6" opacity="0.6"/>
    <circle cx="0" cy="-6" r="40" fill="url(#capFireGlow)" opacity="0.45"/>
    <!-- Potion + anvil glyph -->
    <g transform="translate(0 -18)">
      <!-- Anvil silhouette in back -->
      <path d="M-15,12 L-12,8 L-3,8 L-3,5 L3,5 L3,8 L12,8 L15,12 L15,16 L-15,16 Z" fill="#1a0838"/>
      <!-- Flask body -->
      <path d="M-4,-12 L-4,-4 Q-8,0 -8,5 Q-8,13 0,13 Q8,13 8,5 Q8,0 4,-4 L4,-12 Z" fill="#fff4c2" stroke="#3a2412" stroke-width="0.9" opacity="0.92"/>
      <!-- Cork -->
      <rect x="-3" y="-16" width="6" height="4" fill="#a07c3a" stroke="#3a2412" stroke-width="0.5"/>
      <!-- Liquid -->
      <path d="M-7,6 Q0,9 7,6 Q7,12 0,13 Q-7,12 -7,6 Z" fill="#a13a2a"/>
      <!-- Bubbles -->
      <circle cx="-3" cy="3" r="0.9" fill="#fff4c2" opacity="0.7"/>
      <circle cx="3" cy="1" r="0.7" fill="#fff4c2" opacity="0.7"/>
      <circle cx="0" cy="-1" r="0.5" fill="#fff4c2" opacity="0.7"/>
      <!-- Steam wisp -->
      <path d="M-1,-17 Q-2,-20 0,-22 Q2,-24 0,-26" fill="none" stroke="#fff4c2" stroke-width="0.7" opacity="0.6"/>
    </g>
    <text x="0" y="14" text-anchor="middle" font-family="Georgia, serif" font-size="22" font-weight="900" fill="#a13a2a">7</text>
    <text x="0" y="30" text-anchor="middle" font-family="Georgia, serif" font-size="9" font-weight="bold" fill="#3a2412" letter-spacing="2">RECETTES</text>
    <text x="0" y="42" text-anchor="middle" font-family="Georgia, serif" font-size="7" fill="#5a3a1f" font-style="italic">forge &amp; potions</text>
  </g>

  <!-- TOP-LEFT — SORTS (5) — Open grimoire glyph -->
  <g transform="translate(220 175)">
    <circle r="56" fill="url(#capCenterGlow)" opacity="0.55">
      <animate attributeName="opacity" values="0.45;0.85;0.45" dur="3.6s" begin="2.5s" repeatCount="indefinite"/>
    </circle>
    <circle r="50" fill="#fff4c2" stroke="url(#capGold)" stroke-width="2"/>
    <circle r="44" fill="none" stroke="#a07c3a" stroke-width="0.6" opacity="0.6"/>
    <circle cx="0" cy="-6" r="40" fill="url(#capFireGlow)" opacity="0.55"/>
    <!-- Grimoire glyph -->
    <g transform="translate(0 -18)">
      <!-- Open book spine (back) -->
      <path d="M-2,-12 L-2,10 L0,12 L0,-10 Z" fill="#3a2412"/>
      <path d="M2,-12 L2,10 L0,12 L0,-10 Z" fill="#3a2412"/>
      <!-- Left page -->
      <path d="M0,-12 L-15,-10 L-15,8 L0,10 Z" fill="#fff4c2" stroke="#a07c3a" stroke-width="0.7"/>
      <!-- Right page -->
      <path d="M0,-12 L15,-10 L15,8 L0,10 Z" fill="#fff4c2" stroke="#a07c3a" stroke-width="0.7"/>
      <!-- Top page curls -->
      <ellipse cx="-15" cy="-10" rx="2" ry="2.6" fill="#d8be83" stroke="#a07c3a" stroke-width="0.3"/>
      <ellipse cx="15" cy="-10" rx="2" ry="2.6" fill="#d8be83" stroke="#a07c3a" stroke-width="0.3"/>
      <!-- Left page text lines -->
      <line x1="-12" y1="-6" x2="-4" y2="-6" stroke="#5a3a1f" stroke-width="0.6"/>
      <line x1="-12" y1="-3" x2="-4" y2="-3" stroke="#5a3a1f" stroke-width="0.6"/>
      <line x1="-12" y1="0" x2="-6" y2="0" stroke="#5a3a1f" stroke-width="0.6"/>
      <line x1="-12" y1="3" x2="-4" y2="3" stroke="#5a3a1f" stroke-width="0.6"/>
      <line x1="-12" y1="6" x2="-7" y2="6" stroke="#5a3a1f" stroke-width="0.6"/>
      <!-- Right page text lines -->
      <line x1="4" y1="-6" x2="12" y2="-6" stroke="#5a3a1f" stroke-width="0.6"/>
      <line x1="4" y1="-3" x2="12" y2="-3" stroke="#5a3a1f" stroke-width="0.6"/>
      <line x1="6" y1="0" x2="12" y2="0" stroke="#5a3a1f" stroke-width="0.6"/>
      <line x1="4" y1="3" x2="12" y2="3" stroke="#5a3a1f" stroke-width="0.6"/>
      <line x1="7" y1="6" x2="12" y2="6" stroke="#5a3a1f" stroke-width="0.6"/>
      <!-- Arcane rune floating above the spine -->
      <polygon points="0,-15 1.2,-19 0,-23 -1.2,-19" fill="#ff5722">
        <animate attributeName="opacity" values="0.4;1;0.4" dur="1.4s" repeatCount="indefinite"/>
      </polygon>
      <circle cx="0" cy="-19" r="4" fill="#ff8a96" opacity="0.45">
        <animate attributeName="r" values="3;6;3" dur="2.1s" repeatCount="indefinite"/>
      </circle>
    </g>
    <text x="0" y="14" text-anchor="middle" font-family="Georgia, serif" font-size="22" font-weight="900" fill="#a13a2a">5</text>
    <text x="0" y="30" text-anchor="middle" font-family="Georgia, serif" font-size="9" font-weight="bold" fill="#3a2412" letter-spacing="2">ARTS ARCANES</text>
    <text x="0" y="42" text-anchor="middle" font-family="Georgia, serif" font-size="7" fill="#5a3a1f" font-style="italic">sorts cycliques</text>
  </g>

  <!-- ===== Bottom legend (absorbs former header subtitle) ===== -->
  <text x="550" y="528" text-anchor="middle" font-family="Georgia, serif" font-size="11" fill="#a07c3a" font-style="italic" letter-spacing="2">✦  six astres brillent au-dessus du Sceau central — chaque rayon pulse vers l'Arbre d'Argent, âme du royaume  ✦</text>
</svg>
