<svg xmlns="http://www.w3.org/2000/svg" style="max-width:1100px" viewBox="0 0 1100 160"><defs><linearGradient id="a" x1="0" x2="0" y1="0" y2="1"><stop offset="0%" stop-color="#f8e9c5"/><stop offset="100%" stop-color="#d8be83"/></linearGradient><linearGradient id="b" x1="0" x2="0" y1="0" y2="1"><stop offset="0%" stop-color="#fff4c2"/><stop offset="100%" stop-color="#a07c3a"/></linearGradient></defs><rect width="1060" height="120" x="20" y="20" fill="url(#a)" stroke="url(#b)" stroke-width="2" rx="8"/><rect width="1044" height="104" x="28" y="28" fill="none" stroke="#a07c3a" stroke-width=".5" opacity=".55" rx="6"/><text x="550" y="40" fill="#a13a2a" font-family="Georgia, serif" font-size="10" font-weight="bold" letter-spacing="5" text-anchor="middle">◈ LE SCEAU D&apos;ELDORIA ◈</text><text x="38" y="135" fill="#a07c3a" font-family="Georgia, serif" font-size="14">❦</text><text x="1062" y="135" fill="#a07c3a" font-family="Georgia, serif" font-size="14" text-anchor="end">❧</text><line x1="80" x2="450" y1="80" y2="80" stroke="url(#b)" stroke-width="1.2"/><line x1="650" x2="1020" y1="80" y2="80" stroke="url(#b)" stroke-width="1.2"/><circle cx="80" cy="80" r="2.5" fill="#f6d97c"/><circle cx="1020" cy="80" r="2.5" fill="#f6d97c"/><circle cx="550" cy="80" r="56" fill="#3a2412" stroke="url(#b)" stroke-width="2.5"/><circle cx="550" cy="80" r="48" fill="url(#a)" stroke="#a07c3a" stroke-width=".7"/><g fill="none" stroke="#a07c3a" stroke-linecap="round" stroke-width="1.4" transform="translate(550 88)"><line y1="20" y2="-8"/><path d="M-10-4Q0-16 10-4"/><path d="M-8 4Q0-8 8 4"/><path d="M-5 12Q0 2 5 12"/></g><circle cx="550" cy="74" r="4" fill="#fff4c2" stroke="#a07c3a" stroke-width=".7"><animate attributeName="opacity" dur="3.2s" repeatCount="indefinite" values="0.85;1;0.85"/></circle><circle cx="538" cy="82" r="3" fill="#fff4c2" stroke="#a07c3a" stroke-width=".5"/><circle cx="562" cy="82" r="3" fill="#fff4c2" stroke="#a07c3a" stroke-width=".5"/><text x="550" y="125" fill="#5a3a1f" font-family="Georgia, serif" font-size="13" font-style="italic" text-anchor="middle">Du téléchargement au premier pas dans le sanctuaire</text></svg>