<svg xmlns="http://www.w3.org/2000/svg" aria-label="Carte du monde d'Eldoria" viewBox="0 0 900 600"><title>Carte du monde d&apos;Eldoria</title><defs><radialGradient id="a" cx=".5" cy=".45" r=".6"><stop offset="0%" stop-color="#f8e9c5"/><stop offset="60%" stop-color="#e6cf9a"/><stop offset="100%" stop-color="#b88a4a"/></radialGradient><radialGradient id="i" cx=".5" cy=".5" r=".5"><stop offset="0%" stop-color="#f34" stop-opacity=".85"/><stop offset="60%" stop-color="#a01a2c" stop-opacity=".55"/><stop offset="100%" stop-color="#2b0a3d" stop-opacity="0"/></radialGradient><radialGradient id="f" cx=".5" cy=".5" r=".5"><stop offset="0%" stop-color="#fff6c8" stop-opacity=".7"/><stop offset="100%" stop-color="#fff6c8" stop-opacity="0"/></radialGradient><linearGradient id="c" x1="0" x2="0" y1="0" y2="1"><stop offset="0%" stop-color="#5b8aa1"/><stop offset="100%" stop-color="#1f3e54"/></linearGradient><linearGradient id="d" x1="0" x2="0" y1="0" y2="1"><stop offset="0%" stop-color="#3e6b3e"/><stop offset="100%" stop-color="#1c3a1c"/></linearGradient><linearGradient id="e" x1="0" x2="0" y1="0" y2="1"><stop offset="0%" stop-color="#7a6238"/><stop offset="100%" stop-color="#3a2a14"/></linearGradient><symbol id="h" viewBox="-32 -32 64 64"><polygon fill="#3a2412" stroke="#f6d97c" stroke-width="2" points="-30,0 -15,-26 15,-26 30,0 15,26 -15,26"/></symbol><symbol id="l" viewBox="-30 -30 60 60"><circle r="28" fill="#3a2412" stroke="#f6d97c" stroke-width="1.5" opacity=".9"/><circle r="20" fill="#ead7a8" stroke="#a07c3a"/><polygon fill="#a13a2a" points="0,-22 4,0 0,22 -4,0"/><polygon fill="#3a2412" points="-22,0 0,4 22,0 0,-4"/><text y="-25" fill="#f6d97c" font-family="Georgia, serif" font-size="9" font-weight="bold" text-anchor="middle">N</text></symbol><filter id="g" width="200%" height="200%" x="-50%" y="-50%"><feGaussianBlur result="b" stdDeviation="3"/><feMerge><feMergeNode in="b"/><feMergeNode in="SourceGraphic"/></feMerge></filter><filter id="j" width="200%" height="200%" x="-50%" y="-50%"><feGaussianBlur result="b1" stdDeviation="9"/><feGaussianBlur in="SourceGraphic" result="b2" stdDeviation="3"/><feMerge><feMergeNode in="b1"/><feMergeNode in="b2"/><feMergeNode in="SourceGraphic"/></feMerge></filter></defs><rect width="900" height="600" fill="url(#a)"/><radialGradient id="b" cx=".5" cy=".5" r=".7"><stop offset="60%" stop-opacity="0"/><stop offset="100%" stop-color="#3a2412" stop-opacity=".45"/></radialGradient><rect width="900" height="600" fill="url(#b)"/><path fill="url(#c)" d="M40 80q120-40 280 0t300 10 240-10v440q-160 40-380 20t-380 0z" opacity=".85"/><g fill="none" stroke="#a6c5d8" stroke-width="1.2" opacity=".45"><path d="M70 160q50-10 100 0t100 0"><animate attributeName="d" dur="6s" repeatCount="indefinite" values="M70,160 Q120,150 170,160 T270,160; M70,160 Q120,170 170,160 T270,160; M70,160 Q120,150 170,160 T270,160"/></path><path d="M620 200q40-10 80 0t80 0"><animate attributeName="d" dur="5.5s" repeatCount="indefinite" values="M620,200 Q660,190 700,200 T780,200; M620,200 Q660,210 700,200 T780,200; M620,200 Q660,190 700,200 T780,200"/></path><path d="M100 460q60-10 120 0t120 0"><animate attributeName="d" dur="7s" repeatCount="indefinite" values="M100,460 Q160,450 220,460 T340,460; M100,460 Q160,470 220,460 T340,460; M100,460 Q160,450 220,460 T340,460"/></path></g><path fill="url(#d)" stroke="#1a2814" stroke-width="3" d="M180 260q-40-100 100-120 80-50 180-30 120 0 180 60 80 40 80 140 20 90-80 150-100 40-200 30-120 0-200-50-70-40-60-180Z"/><g fill="#2a4a2a"><circle cx="280" cy="220" r="13"/><circle cx="320" cy="180" r="10"/><circle cx="380" cy="200" r="12"/><circle cx="450" cy="170" r="11"/><circle cx="540" cy="180" r="13"/><circle cx="610" cy="220" r="10"/><circle cx="260" cy="320" r="11"/><circle cx="320" cy="370" r="13"/><circle cx="430" cy="340" r="10"/><circle cx="510" cy="380" r="12"/><circle cx="600" cy="350" r="11"/></g><g fill="url(#e)"><polygon points="320,150 360,100 400,150"/><polygon points="380,160 410,120 440,160"/><polygon points="490,150 530,110 570,150"/><polygon points="540,170 570,130 600,170"/></g><g fill="#fff" opacity=".85"><polygon points="356,108 360,100 364,108"/><polygon points="408,128 410,120 412,128"/><polygon points="524,118 530,110 535,118"/><polygon points="566,138 570,130 574,138"/></g><g fill="none" stroke="#5a3a1f" stroke-dasharray="6 5" stroke-linecap="round" stroke-width="2.5" opacity=".8"><path d="M450 300q-70 10-150 40"/><path d="M450 300q60 30 110 80"/><path d="M450 300q-30 50-70 100"/><path d="M450 300q50-40 70-70"/><path stroke="#a13a2a" stroke-width="3" d="M520 230q20-35 30-80"/></g><g transform="translate(450 300)"><circle r="44" fill="url(#f)"/><use width="64" height="64" x="-32" y="-32" filter="url(#g)" href="#h"/><circle r="6" fill="#f6d97c" filter="url(#g)"><animate attributeName="r" dur="3s" repeatCount="indefinite" values="5;9;5"/><animate attributeName="opacity" dur="3s" repeatCount="indefinite" values="0.7;1;0.7"/></circle><text y="48" fill="#3a2412" font-family="Georgia, serif" font-size="13" font-weight="bold" text-anchor="middle">🏘️ Village</text></g><g transform="translate(295 340)"><circle r="36" fill="url(#f)" opacity=".7"/><use width="56" height="56" x="-28" y="-28" href="#h"/><circle r="5" fill="#5fd35f"/><text y="44" fill="#3a2412" font-family="Georgia, serif" font-size="11" font-weight="bold" text-anchor="middle">🌾 Slimes</text></g><g transform="translate(565 380)"><circle r="36" fill="url(#f)" opacity=".7"/><use width="56" height="56" x="-28" y="-28" href="#h"/><circle r="5" fill="#8b5a2b"/><text y="44" fill="#3a2412" font-family="Georgia, serif" font-size="11" font-weight="bold" text-anchor="middle">🌲 Gobelins</text></g><g transform="translate(380 410)"><circle r="36" fill="url(#f)" opacity=".7"/><use width="56" height="56" x="-28" y="-28" href="#h"/><circle r="5" fill="#6b6b6b"/><text y="44" fill="#3a2412" font-family="Georgia, serif" font-size="11" font-weight="bold" text-anchor="middle">🐺 Loups</text></g><g transform="translate(530 230)"><circle r="38" fill="url(#f)" opacity=".8"/><use width="60" height="60" x="-30" y="-30" href="#h"/><circle r="5" fill="#e8e8e8"/><text y="46" fill="#3a2412" font-family="Georgia, serif" font-size="9" font-weight="bold" text-anchor="middle">🏚️ Guerrier Squelette</text></g><g transform="translate(550 150)"><circle r="80" fill="url(#i)"><animate attributeName="r" dur="2.4s" repeatCount="indefinite" values="70;90;70"/><animate attributeName="opacity" dur="2.4s" repeatCount="indefinite" values="0.6;1;0.6"/></circle><use width="72" height="72" x="-36" y="-36" stroke="#f34" filter="url(#j)" href="#h"/><g transform="translate(0 -2)"><ellipse cy="-2" fill="#1a0808" stroke="#f34" stroke-width="1.2" rx="11" ry="13"/><circle cx="-4" cy="-3" r="2.5" fill="#f34"><animate attributeName="opacity" dur="1.2s" repeatCount="indefinite" values="0.6;1;0.6"/></circle><circle cx="4" cy="-3" r="2.5" fill="#f34"><animate attributeName="opacity" begin="0.3s" dur="1.2s" repeatCount="indefinite" values="0.6;1;0.6"/></circle><path stroke="#f34" d="M-2 8v4m2-4v4m2-4v4"/><path stroke="#f34" d="m-12 8 8 2m16-2-8 2"/></g><text y="55" fill="#3a2412" font-family="Georgia, serif" font-size="13" font-weight="bold" text-anchor="middle">🏰 Donjon de Mordrak</text></g><g transform="translate(820 80)"><use width="60" height="60" x="-30" y="-30" href="#l"/><animateTransform additive="sum" attributeName="transform" dur="40s" repeatCount="indefinite" type="rotate" values="0 820 80; 360 820 80"/></g><g transform="translate(450 70)"><rect width="300" height="42" x="-150" y="-26" fill="#3a2412" stroke="#f6d97c" stroke-width="2" opacity=".95" rx="6"/><rect width="290" height="32" x="-145" y="-21" fill="none" stroke="#f6d97c" stroke-width=".5" opacity=".6" rx="4"/><text y="6" fill="#f6d97c" font-family="Georgia, 'Times New Roman', serif" font-size="22" font-weight="bold" letter-spacing="4" text-anchor="middle">
      ❦ CARTE D&apos;ELDORIA ❦
    </text></g><text fill="#3a2412" font-family="Georgia, serif" font-size="13" font-style="italic" transform="translate(60 540)">
      ~ Eldoria, Forêt d&apos;Argent, An 1247 de l&apos;Âge des Ténèbres ~
    </text><rect width="900" height="6" fill="#fff4c2" opacity=".15"><animate attributeName="y" dur="9s" repeatCount="indefinite" values="0;600;0"/></rect><rect width="894" height="594" x="3" y="3" fill="none" stroke="#3a2412" stroke-width="2" opacity=".6" rx="8"/></svg>